<svg version="1.1" xmlns="http://www.w3.org/2000/svg" viewBox="0 0 1495.3999938964841 858.4000396728516" width="1495.3999938964841" height="858.4000396728516">
  <!-- svg-source:excalidraw -->
  
  <defs>
    <style>
      @font-face {
        font-family: "Virgil";
        src: url("https://excalidraw.com/Virgil.woff2");
      }
      @font-face {
        font-family: "Cascadia";
        src: url("https://excalidraw.com/Cascadia.woff2");
      }
    </style>
  </defs>
  <rect x="0" y="0" width="1495.3999938964841" height="858.4000396728516" fill="#ffffff"></rect><g stroke-linecap="round" transform="translate(10 10) rotate(0 737.6999969482421 419.2000198364258)"><path d="M-1.31 -1.5 C327.07 10.59, 657.76 12.83, 1475.86 -1.31 M0.05 -0.34 C531.29 2.07, 1060.85 2.94, 1476.02 -0.31 M1474.48 1.19 C1478.11 197.85, 1480.43 396.87, 1474.97 837.9 M1475.03 -0.75 C1473.48 259.62, 1472.78 520.36, 1474.65 839.11 M1475.04 839.39 C1032.05 837.15, 588.87 837.83, 0.77 839.91 M1475.32 838.58 C1022.73 835.18, 571.99 835.17, -0.24 838.24 M1.38 838.69 C5.76 525.02, 6.54 212.37, -0.51 0.32 M-0.64 839.11 C7.27 507.55, 7.25 177.34, -0.48 -0.01" stroke="#0b7285" stroke-width="4" fill="none"></path></g><g transform="translate(265.4000701904298 364.34999370574957) rotate(0 495.72009887695316 76.50001525878909)"><text x="0" y="107.00003051757815" font-family="Virgil, Segoe UI Emoji" font-size="122.4000244140626px" fill="#1864ab" text-anchor="start" style="white-space: pre;" direction="ltr">Conteneurisation</text></g><g transform="translate(1221.4000549316406 784.3500089645387) rotate(0 117.70004081726086 22.00000762939453)"><text x="0" y="31.000015258789084" font-family="Virgil, Segoe UI Emoji" font-size="35.20001220703127px" fill="#000000" text-anchor="start" style="white-space: pre;" direction="ltr">2021 - 2022</text></g><g transform="translate(31.200014114379996 741.3500013351442) rotate(0 134.5 44)"><text x="0" y="31" font-family="Virgil, Segoe UI Emoji" font-size="35.20001220703127px" fill="#000000" text-anchor="start" style="white-space: pre;" direction="ltr">Gaëtan Allain</text><text x="0" y="75" font-family="Virgil, Segoe UI Emoji" font-size="35.20001220703127px" fill="#000000" text-anchor="start" style="white-space: pre;" direction="ltr">Alexandre Linte</text></g><g stroke-linecap="round"><g transform="translate(1411.223940316795 71.11175842966344) rotate(0 -59.24411154315567 22.911669929593884)" fill-rule="evenodd"><path d="M-139.43 13.95 C-139.43 13.95, -139.43 13.95, -139.43 13.95 M-139.43 13.95 C-139.43 13.95, -139.43 13.95, -139.43 13.95 M-138.18 18.24 C-137.41 17.48, -135.36 15.27, -134.11 13.87 M-138.53 18.65 C-137.11 16.95, -135.08 15.02, -133.49 13.41 M-137.76 24.31 C-135.56 21.68, -133.8 18.22, -129.51 14.22 M-138.74 25.93 C-136.16 22.43, -134.14 19.66, -129.39 14.37 M-136.36 29.29 C-132.65 26.4, -126 17.38, -123.67 15.36 M-137.32 30.79 C-132.81 24.92, -127.88 19.55, -122.42 14.15 M-135.28 35.57 C-131.12 31.09, -127.3 25.08, -120.1 12.33 M-136.59 34.77 C-128.5 26.06, -123.18 19.79, -119.04 13.26 M-132.71 37.92 C-126.7 29.98, -119.92 22.86, -111.21 13.49 M-133.87 38.56 C-128.79 33.83, -125.39 27.01, -113.39 13.72 M-133.85 42.87 C-125.71 36.94, -122.22 29.39, -106.02 12.13 M-131.68 42.01 C-122.06 30.97, -112.88 20.28, -108 13.17 M-128.29 45.54 C-121.61 34.65, -108.14 23.42, -100.67 12.21 M-129.41 44.99 C-119.5 34.73, -109.78 22.96, -103.36 15.13 M-127.75 49.28 C-127.75 49.28, -127.75 49.28, -127.75 49.28 M-127.75 49.28 C-127.75 49.28, -127.75 49.28, -127.75 49.28 M-125.88 48.75 C-121.11 40.77, -113.15 33.01, -96.89 14.82 M-126.68 46.76 C-116.91 37.9, -107.79 27.56, -96.29 13.29 M-124.76 51.74 C-124.48 51.43, -123.6 50.77, -122.83 49.77 M-124.73 51.86 C-124.07 51.15, -123.28 50.16, -122.74 49.5 M-119.02 46.49 C-110.88 35.4, -100.63 25.72, -91.25 13.35 M-120.63 47.08 C-113.28 39.28, -106.93 30.42, -92.63 14.58 M-121.97 54.88 C-120.16 52.12, -118.49 51.26, -117.06 49.24 M-121.36 54.65 C-120.48 53.43, -118.83 51.57, -117.13 49.3 M-113.12 47.32 C-102.6 34.46, -93.58 19.4, -84.68 15.27 M-114.53 46.03 C-105.47 34.7, -95.51 23.51, -85.35 14.46 M-119.67 57.52 C-116.76 53.74, -113.47 51.83, -111.46 50.39 M-118.38 56.73 C-116.89 55.14, -115.76 53.38, -112.32 50.06 M-107.17 44.6 C-100.53 35.36, -92.62 25.59, -81.29 15.06 M-108.68 44.63 C-99.09 34.06, -91.2 23.27, -80.53 14.17 M-115.76 58.66 C-112.44 55.54, -108.49 51.65, -105.63 48.76 M-114.82 59.5 C-112.06 55.21, -108.64 51.91, -105.84 48.83 M-102.99 42.22 C-95.97 35.5, -89.4 30.09, -77.07 14.24 M-102.7 43.66 C-94.06 33.25, -84.01 24.6, -75.1 13.65 M-113.06 61.53 C-98 45.21, -81.84 26.54, -71.97 12.43 M-111.41 60.06 C-97.9 45.31, -83.02 28.38, -69.72 13.62 M-109.36 62.3 C-97.87 53.47, -91.1 42.91, -65.52 12.98 M-108.56 62.36 C-98.79 52.21, -89 43.35, -65.46 14.19 M-102.83 62.75 C-95.06 53.71, -83.39 42.48, -59.35 12.16 M-103.65 62.74 C-87.21 46.02, -73.11 30.09, -59.65 14.58 M-98 63.47 C-90.27 52.09, -81.25 44.39, -56.02 12 M-99.68 65.65 C-90.08 53.14, -79.64 43.84, -54.81 13.38 M-92.47 66.52 C-79.83 51.33, -68.71 38.73, -50.53 15.6 M-93.81 65.38 C-85.83 55.25, -75.79 44.85, -50.18 13.48 M-87.79 67.05 C-70.86 45.83, -58.13 29.58, -45.46 12.42 M-88.09 65.33 C-71.54 45.51, -52.78 25.01, -43.85 13.85 M-86.57 67.83 C-74.52 54.29, -64.04 38.48, -38.44 13.63 M-83.72 66.95 C-74.76 54.92, -64.47 44.52, -38.37 14.46 M-78.7 65.04 C-64.41 47.34, -49.9 34.06, -33.28 13.38 M-79.3 65.14 C-62.53 48.89, -47.94 30.89, -32.77 14.01 M-12 -9.62 C-11.33 -11.93, -8.81 -13.17, -6.6 -17.39 M-13.1 -9.42 C-10.33 -11.96, -8.67 -14.37, -6.94 -16.16 M-70.54 63.37 C-57.68 45.16, -40.91 27.22, -29.75 15.22 M-72.17 64.9 C-63.1 53.66, -54.05 44.74, -28.54 14.13 M-11.47 -4.39 C-8.34 -6.83, -6.59 -12.62, -2.72 -13.82 M-12.34 -3.58 C-9.59 -7.02, -6.69 -9.55, -4.13 -13.63 M-67.32 62.48 C-55.96 52.72, -48.07 41.37, -21.1 11.73 M-66.23 64.16 C-49.37 44.72, -34.16 27.55, -23.04 13.65 M-11.14 0.98 C-8.04 -2.9, -3.76 -8.45, -2.83 -10.83 M-11.85 0.67 C-8.12 -3.09, -5.51 -5.23, -1.1 -10.58 M-60.95 60.71 C-44.11 45.37, -31.69 29.32, -16.32 14.41 M-60.3 62.58 C-45.44 44.66, -29.31 27.23, -16.88 12.43 M-9.02 4.93 C-8.39 1.57, -4.81 -0.74, -1.17 -6.01 M-9.24 5.1 C-7.82 1.88, -5.32 -0.62, -0.65 -5.32 M-52.18 60.69 C-40.77 46.65, -27.42 32.04, 1.51 -1.54 M-52.54 61.32 C-42.24 47.95, -30.52 34.99, 0.33 -0.26 M-46.92 57.73 C-27.23 36.72, -8.51 16.35, 7.02 1.44 M-46.34 59.47 C-33.35 43.34, -19.39 27.81, 4.71 -0.04 M-36.39 51.92 C-25.28 38.7, -15.67 28.47, -8.72 21.58 M-35.18 52.57 C-28.78 43.99, -21.36 35.7, -7.07 20.01 M0.73 10.03 C4.29 5.76, 8.25 2.39, 12.35 0.49 M2.05 10.98 C4.76 6.71, 8.44 2.88, 11.83 -0.71 M5.61 10.19 C7.79 8.33, 11.01 5.66, 16.68 -0.05 M5.66 11.79 C9.43 8.04, 12.41 4.32, 17.09 -1.78 M15.22 7.59 C17.06 5.65, 17.72 2.93, 20.32 1.21 M14.48 7.46 C16.58 5.4, 18.73 2.89, 20.45 0.47 M-124.83 52.14 C-124.83 52.14, -124.83 52.14, -124.83 52.14 M-124.83 52.14 C-124.83 52.14, -124.83 52.14, -124.83 52.14 M-110.33 60.08 C-113.87 57.73, -118.17 49.78, -125.39 47.39 M-108.86 60.77 C-114.53 56.98, -119.35 51.53, -124.59 48.62 M-127.22 45.54 C-128.42 42.68, -131.01 42.18, -134.84 38.31 M-127.17 45.37 C-128.39 43.47, -131.02 42.18, -134.08 38.55 M-99.9 62.71 C-105.58 59.47, -111.83 51.94, -116.1 46.87 M-100.58 62.22 C-106.59 58.87, -112.04 53.72, -116.41 49.03 M-122.46 46.74 C-125.67 40.2, -127.58 40.58, -136.98 30.39 M-121.03 43.8 C-126.66 39.44, -132.52 35.4, -137.97 30.33 M-92.79 65.44 C-98.57 60.97, -100.39 57.14, -110.46 45.16 M-92.67 63.62 C-100.73 57.31, -106.33 51.56, -113.22 46.59 M-115.4 44.69 C-122.27 38.28, -126.8 36.22, -140.26 24.5 M-115.1 44.09 C-121.56 38.9, -129.82 32.05, -139.14 23.15 M-85.39 62.76 C-92.12 60.96, -96.89 55.28, -107.97 46.46 M-86.22 65.16 C-91.45 59.5, -96.43 56.07, -107.64 46 M-108.92 44.38 C-118.28 36.86, -130.02 28.83, -137.26 17.15 M-110.78 43.99 C-119 37.41, -127.55 28.84, -138.68 19.73 M-78.58 65.19 C-88.88 58.16, -96.08 51.27, -100.69 45.37 M-80.78 63.8 C-87.3 58.65, -93.43 51.98, -101.31 45.57 M-102.43 43.41 C-116.42 34.84, -129.74 24.62, -140.07 13.89 M-104.52 43.23 C-117.91 32.73, -131.68 20.58, -138.85 13.31 M-73.31 63.98 C-92.18 48.49, -110.15 33.19, -132.43 12.02 M-74.94 64.89 C-86.98 51.98, -102.34 40.4, -133.07 13.34 M-70.37 62.41 C-82.42 51.09, -93.33 39.98, -125.83 12.44 M-71.21 62.81 C-86.47 48.77, -100.08 37.04, -126.93 14.01 M-66.16 61.34 C-80.98 48.11, -99.19 32.14, -119.17 14.29 M-64.84 61.48 C-87.18 43.61, -107.32 24.5, -120.42 14.3 M-60.87 59.43 C-70.24 50.4, -83.25 40.84, -115.87 12.87 M-59.93 60.31 C-75.02 47.39, -92.57 32.86, -115.33 13.97 M-54.25 58.91 C-64.89 49.04, -80.27 37.82, -108.19 14.13 M-54.13 59.72 C-67.52 47.7, -82.39 36.02, -107.56 13.7 M-53.35 57.59 C-64.69 47.04, -79.9 33.58, -102.82 13.46 M-50.45 58.61 C-68.98 41.86, -84.83 27.34, -101.74 14.27 M-45.13 55.4 C-68.3 37.79, -87.33 23.73, -96.91 14.91 M-46.86 57.55 C-59.52 45.18, -73.72 31.43, -97.32 13.45 M-43.81 55.92 C-58.12 40.91, -70.68 31.73, -88.13 12.54 M-41.64 55.71 C-59.32 40.55, -74.15 28, -89.61 13.74 M-40.37 51.5 C-55.58 39.01, -72.62 23.89, -86.27 15.05 M-40.01 52.59 C-49.63 44.63, -59.12 36.2, -83.48 12.68 M-33.85 51.25 C-53.96 35.65, -67.62 22.39, -79.52 14.44 M-35.37 51.57 C-45.47 42.11, -56 31.81, -78.6 13.9 M-31.77 49.86 C-38.38 39.24, -47.86 35.85, -70.02 14.65 M-30.79 49.15 C-44.64 37.58, -57.26 24.9, -71.09 13.41 M-28.33 47.39 C-39.54 37.85, -46.95 30.89, -63.98 12.88 M-29.23 46.37 C-42.47 33.88, -57.93 20.83, -66.61 13.36 M-24.5 41.31 C-37.68 31.47, -48.75 24.47, -59.67 14.86 M-24.7 43.36 C-32.53 35.97, -40.18 31.1, -60.43 12.93 M-21.37 41.17 C-30.81 35.98, -36.92 26.73, -53.04 13.59 M-21.56 41.52 C-31.21 32.78, -39.23 25.76, -54.03 13.48 M-18.19 37.92 C-28.25 29, -37.2 23.96, -46.01 11.86 M-19.67 37.36 C-30.35 28.06, -41.59 18.03, -47.48 12.73 M-17.16 34.5 C-25.21 26.41, -34.51 20.01, -40.02 13.01 M-17.17 34.67 C-25.26 27.56, -33.37 18.96, -41.99 13.98 M-14.03 31.19 C-20.04 25.36, -28.54 19.6, -36.12 12.18 M-14.13 32.37 C-21.67 25.37, -27.88 20.09, -36 12.9 M-11.64 27.59 C-16.33 25.45, -21.1 21.14, -29 13.62 M-12.12 28.03 C-16.81 24.05, -21.43 20.82, -28.33 13.37 M-8.99 25.29 C-13.94 21.01, -19.4 14.58, -24.12 10.07 M-10.27 25.04 C-14.47 19.44, -20.49 15.94, -25.22 12.41 M-8.26 23.39 C-10.93 20.83, -14.04 17.8, -18.75 11.84 M-6.77 22.04 C-10.26 18.93, -13.14 16.84, -18.58 11.79 M-5.6 18.76 C-8.97 16.61, -9.27 14.52, -13.31 9.83 M-5.09 18.32 C-8.32 15.64, -11.66 12.22, -14.33 10.23 M-2.9 14.26 C-6.84 12.65, -9 11.1, -10.38 7.27 M-3.4 14.86 C-5.68 12.63, -8.01 10.68, -11.39 8.24 M-2.16 9.88 C-5.47 7.47, -6.87 5.65, -9.6 4.2 M-2.09 10.19 C-4.33 8.84, -6.02 6.89, -9.95 4.13 M1.84 8.81 C-0.08 5.45, -4.7 1.34, -10.34 -1.44 M2.29 8.46 C-2.89 4.05, -7.91 -0.92, -11.88 -3.46 M8.84 8.7 C2.59 1.91, -6.61 -5.34, -12.28 -10.16 M8.42 9.04 C4.52 5.96, -0.08 1.57, -12.85 -7.91 M13.4 8.11 C10.01 5.74, 5.61 2.39, 3.13 -2.26 M12.35 7.09 C8.69 3.4, 4.46 0.08, 2.99 -1.88 M1.41 -4.15 C-2.31 -5.42, -7.42 -8.37, -10.89 -13.93 M-0.09 -2.81 C-1.79 -5.39, -5.12 -8.35, -11.08 -14.42 M15.93 6.19 C14.17 4.86, 12.63 1.89, 7.5 -3.16 M16.14 5.92 C14.42 3.76, 11.6 1.02, 7.32 -2.82 M-0.19 -10.31 C-2.61 -11.82, -4.3 -14.4, -9.37 -18.63 M-0.31 -9.25 C-4.21 -13.69, -8.13 -16.9, -10.73 -17.96 M19.41 3.93 C18.06 0.64, 15.09 -2.05, 12.79 -2.73 M19.66 2.68 C18.1 1.27, 15.79 -0.39, 13.53 -3.14" stroke="#22A0C8" stroke-width="0.5" fill="none"></path><path d="M0 0 C0 0, 0 0, 0 0 M0 0 C0 0, 0 0, 0 0 M0.1 0.15 C-0.08 -0.4, -0.04 -0.84, -0.03 -1.73 M-0.06 0 C-0.03 -0.48, 0.03 -0.94, 0.14 -1.57 M0.11 -1.51 C0.19 -2, 0.14 -2.37, 0.07 -3.35 M0.07 -1.58 C0.05 -2.03, 0.08 -2.48, 0.06 -3.28 M-0.06 -3.19 C-0.08 -3.83, -0.05 -4.46, -0.25 -4.77 M0.06 -3.3 C0.01 -3.55, 0.05 -3.88, -0.16 -4.83 M-0.23 -4.85 C-0.28 -5.19, -0.28 -5.45, -0.46 -6.18 M-0.17 -4.73 C-0.18 -5.18, -0.33 -5.59, -0.45 -6.26 M-0.59 -6.28 C-0.62 -6.73, -0.7 -7.49, -1.4 -9.04 M-0.53 -6.31 C-0.8 -7.09, -0.83 -7.71, -1.52 -9.27 M-1.42 -9.37 C-1.71 -10.08, -2.48 -10.38, -2.64 -11.74 M-1.56 -9.2 C-2.07 -10.01, -2.47 -11.04, -2.8 -11.64 M-2.79 -11.62 C-3.59 -12.75, -4.19 -13.73, -4.65 -14.19 M-2.96 -11.69 C-3.23 -12.45, -3.62 -13.01, -4.54 -14.05 M-4.36 -14.23 C-5.12 -14.47, -5.29 -15.11, -6.33 -16.31 M-4.39 -14.02 C-5.06 -14.75, -5.7 -15.36, -6.37 -16.1 M-6.44 -16.13 C-6.84 -16.8, -7.37 -16.98, -7.77 -17.81 M-6.34 -16.17 C-6.8 -16.69, -7.34 -17.18, -8 -17.94 M-8.19 -17.73 C-8.47 -18.14, -9.14 -18.75, -9.49 -19.27 M-8 -17.78 C-8.34 -18.09, -8.74 -18.56, -9.58 -19.17 M-9.75 -19.24 C-9.94 -19, -9.99 -18.69, -10.59 -18.15 M-9.63 -19.22 C-9.81 -19.06, -10.07 -18.72, -10.45 -18.06 M-10.55 -18.03 C-10.87 -17.79, -10.97 -17.47, -11.29 -16.88 M-10.55 -18.16 C-10.71 -17.74, -11.03 -17.32, -11.3 -16.8 M-11.38 -16.71 C-11.3 -16.37, -11.52 -15.76, -11.82 -15.2 M-11.18 -16.73 C-11.56 -16.21, -11.69 -15.58, -11.93 -15.4 M-11.8 -15.32 C-12.03 -14.73, -12.17 -14.15, -12.56 -13.66 M-11.83 -15.31 C-12.12 -14.66, -12.35 -13.98, -12.44 -13.71 M-12.4 -13.73 C-12.42 -13.37, -12.52 -12.94, -12.83 -11.84 M-12.45 -13.69 C-12.54 -13.11, -12.69 -12.43, -12.91 -12.03 M-12.73 -11.85 C-12.79 -11.16, -13.15 -10.71, -13.28 -10.07 M-12.74 -11.91 C-12.89 -11.47, -12.93 -11.06, -13.11 -10.16 M-12.93 -10.07 C-13.31 -9.49, -13.32 -8.92, -13.39 -8.27 M-13.02 -10.14 C-13.12 -9.63, -13.14 -9.25, -13.26 -8.31 M-13.35 -8.45 C-13.16 -7.63, -13.4 -7.19, -13.19 -6.42 M-13.17 -8.28 C-13.35 -7.72, -13.26 -7.2, -13.22 -6.45 M-13.36 -6.35 C-13.37 -5.87, -13.35 -5.45, -13.18 -4.35 M-13.31 -6.47 C-13.32 -5.87, -13.24 -5.19, -13.11 -4.54 M-13.16 -4.59 C-12.91 -4.02, -12.84 -3.64, -12.86 -2.66 M-13.07 -4.48 C-13.14 -4.09, -12.99 -3.68, -12.87 -2.61 M-12.98 -2.49 C-12.84 -2.11, -12.54 -1.19, -12.41 -0.99 M-12.86 -2.64 C-12.67 -2.2, -12.6 -1.56, -12.45 -0.81 M-12.6 -0.75 C-12.24 -0.26, -12.01 0.05, -11.99 1.1 M-12.39 -0.87 C-12.21 -0.26, -12.09 0.38, -11.78 0.91 M-11.71 1.07 C-11.43 1.58, -11.36 2.21, -11.22 2.73 M-11.92 0.99 C-11.51 1.49, -11.29 1.95, -11.15 2.54 M-10.92 2.5 C-10.64 3.17, -10.14 3.75, -9.95 3.99 M-10.99 2.65 C-10.77 3.15, -10.44 3.74, -10.06 4.14 M-10.24 4.24 C-9.82 4.7, -9.58 4.86, -9.17 5.54 M-10.21 4.13 C-9.75 4.66, -9.37 5.14, -9.08 5.57 M-9.01 5.42 C-8.57 5.87, -8.2 6.23, -7.8 6.83 M-9.08 5.65 C-8.6 6.05, -8.06 6.36, -7.78 6.85 M-7.67 6.75 C-8.15 6.93, -8.27 7.42, -9.42 8.31 M-7.81 6.86 C-8.25 7.17, -8.94 7.64, -9.49 8.22 M-9.52 8.15 C-10.17 8.54, -10.56 8.94, -11.62 9.36 M-9.56 8.13 C-10.1 8.46, -10.69 8.87, -11.63 9.58 M-11.78 9.59 C-12.43 9.9, -13.06 9.79, -14.05 10.47 M-11.72 9.53 C-12.42 9.8, -13.47 10.51, -14.24 10.76 M-13.91 10.7 C-14.83 10.89, -15.64 11.32, -17.12 11.69 M-14.21 10.66 C-14.93 10.88, -15.57 11.22, -16.86 11.61 M-16.75 11.45 C-17.65 11.73, -18.33 11.9, -19.59 12.54 M-16.74 11.85 C-18.06 12.24, -19.24 12.33, -19.92 12.64 M-20.1 12.55 C-21.02 12.65, -22.45 13.05, -22.73 13.15 M-19.79 12.58 C-21.01 12.86, -22.34 13.28, -23.06 13.4 M-23.05 13.44 C-24.06 13.35, -24.95 13.72, -26.56 13.88 M-23 13.22 C-24.04 13.3, -25.12 13.56, -26.24 13.83 M-26.49 13.62 C-27.52 13.78, -28.6 13.71, -29.63 13.94 M-26.38 13.68 C-27.12 13.77, -28 13.64, -29.72 13.92 M-30.36 14.42 C-65.33 12.81, -96.86 13.96, -137.85 12.57 M-29.43 14.4 C-71.75 15.77, -112.87 14.36, -139.8 12.89 M-139.37 13.87 C-139.37 13.87, -139.37 13.87, -139.37 13.87 M-139.37 13.87 C-139.37 13.87, -139.37 13.87, -139.37 13.87 M-139.04 13.97 C-139.11 14.96, -139.32 16.27, -139.64 17.65 M-139.46 13.89 C-139.3 14.97, -139.4 16.2, -139.44 17.44 M-139.44 17.64 C-139.31 18.52, -139.21 19.77, -139.63 20.62 M-139.44 17.25 C-139.66 18.26, -139.47 19.28, -139.5 20.78 M-139.6 20.53 C-139.47 21.63, -139.7 22.42, -139.56 24.39 M-139.4 20.87 C-139.5 21.51, -139.53 22.39, -139.46 23.99 M-139.29 24.39 C-139.44 25.18, -138.93 26.22, -138.67 27.16 M-139.3 24.12 C-139.08 24.82, -139.13 25.34, -138.82 27.32 M-138.75 27.34 C-138.45 28.46, -138.75 28.63, -138.46 30.47 M-138.98 27.48 C-138.62 28.41, -138.41 29.47, -138.24 30.54 M-138.41 30.69 C-137.6 31.22, -137.85 32.36, -137.48 33.73 M-138.17 30.38 C-137.71 31.84, -137.54 32.8, -137.18 33.66 M-137.02 33.61 C-136.99 34.43, -136.26 35.34, -136.31 36.49 M-137.39 33.46 C-136.79 34.56, -136.67 35.29, -136.17 36.66 M-135.87 36.55 C-135.73 37.27, -135.49 37.96, -134.96 39.52 M-136.06 36.43 C-135.87 37.52, -135.21 38.11, -134.86 39.22 M-134.95 39.27 C-134.31 39.99, -133.74 40.68, -133.58 41.5 M-134.91 39.33 C-134.25 40.1, -133.87 40.99, -133.55 41.6 M-133.58 41.64 C-133.58 41.64, -133.58 41.64, -133.58 41.64 M-133.58 41.64 C-133.58 41.64, -133.58 41.64, -133.58 41.64 M-133.74 41.33 C-133.24 43.01, -132.04 43.33, -130.85 45.77 M-133.35 41.47 C-132.64 42.95, -131.71 44.21, -131.08 45.45 M-131.26 45.23 C-129.91 45.55, -128.49 45.62, -127.92 45.61 M-131.02 45.55 C-129.78 45.66, -128.6 45.67, -127.62 45.6 M-127.69 45.71 C-127.21 46.03, -125.96 46.09, -124.69 45.71 M-127.58 45.64 C-126.49 45.56, -125.56 45.68, -124.63 45.91 M-124.46 45.65 C-123.64 45.64, -122.87 45.95, -121.64 45.63 M-124.35 45.68 C-123.69 45.71, -123.09 45.69, -121.31 45.7 M-121.48 45.72 C-120.89 45.77, -119.99 45.7, -118.41 46.1 M-121.55 45.92 C-120.56 45.81, -119.62 45.92, -118.42 45.7 M-118.52 45.83 C-118.52 45.83, -118.52 45.83, -118.52 45.83 M-118.52 45.83 C-118.52 45.83, -118.52 45.83, -118.52 45.83 M-118.52 45.83 C-118.52 45.83, -118.52 45.83, -118.52 45.83 M-118.52 45.83 C-118.52 45.83, -118.52 45.83, -118.52 45.83 M-118.38 45.85 C-117.7 45.63, -116.91 45.75, -116.04 45.62 M-118.48 45.72 C-118 45.87, -117.34 45.67, -115.85 45.7 M-115.71 45.63 C-115.13 45.84, -114.37 45.45, -113.15 45.46 M-115.7 45.81 C-114.85 45.68, -114.06 45.47, -113.25 45.63 M-113.01 45.41 C-112.37 45.75, -111.55 45.65, -110.52 45.29 M-113.17 45.48 C-112.48 45.45, -111.57 45.5, -110.81 45.37 M-110.59 45.33 C-109.86 45.28, -109.34 45.24, -108.51 44.96 M-110.79 45.44 C-110.14 45.21, -109.34 45.18, -108.26 45.04 M-108.51 45.08 C-107.61 45.11, -106.82 44.84, -105.95 44.83 M-108.34 45.01 C-107.83 45, -107.11 44.84, -106.08 44.58 M-106.23 44.83 C-105.51 44.48, -105.15 44.46, -104.16 44.07 M-106.11 44.61 C-105.65 44.65, -104.91 44.47, -104.02 44.32 M-104.2 44.4 C-103.42 44.24, -102.77 44.1, -101.95 43.74 M-103.98 44.34 C-103.26 44.09, -102.64 43.94, -102.07 43.84 M-102.14 43.71 C-101.32 43.67, -100.65 43.5, -100.29 43.34 M-102.05 43.69 C-101.67 43.7, -101.21 43.55, -100.25 43.22 M-100.25 43.18 C-100.17 43.13, -99.99 43.17, -99.56 43.18 M-100.3 43.17 C-100.07 43.18, -99.81 43.17, -99.62 43.15 M-99.6 43.17 C-99.46 43.21, -99.32 43.31, -98.99 43.51 M-99.63 43.15 C-99.49 43.26, -99.31 43.3, -99.01 43.49 M-99 43.49 C-98.85 43.64, -98.72 43.92, -98.65 44.08 M-99.01 43.48 C-98.98 43.58, -98.88 43.68, -98.7 44.05 M-98.72 44.09 C-98.68 44.26, -98.62 44.52, -98.65 44.69 M-98.69 44.06 C-98.68 44.25, -98.65 44.41, -98.66 44.74 M-98.66 44.75 C-98.75 44.91, -98.74 45.02, -98.91 45.36 M-98.63 44.76 C-98.73 44.88, -98.76 45.01, -98.95 45.32 M-98.9 45.29 C-99.17 45.49, -99.31 45.55, -99.52 45.63 M-98.93 45.29 C-99.1 45.42, -99.21 45.52, -99.48 45.69 M-99.37 45.78 C-100.05 45.71, -100.81 46.02, -101.17 46.4 M-99.44 45.75 C-100.16 45.78, -100.81 46.18, -101.46 46.31 M-101.37 46.27 C-101.37 46.27, -101.37 46.27, -101.38 46.27 M-101.37 46.27 C-101.37 46.27, -101.38 46.27, -101.38 46.27 M-101.38 46.27 C-101.38 46.27, -101.38 46.27, -101.38 46.27 M-101.38 46.27 C-101.38 46.27, -101.38 46.27, -101.38 46.27 M-101.32 46.11 C-102.09 46.26, -103.39 46.56, -104.15 47.16 M-101.43 46.14 C-101.94 46.34, -102.63 46.64, -104.22 46.87 M-103.89 47.16 C-105.08 47.14, -105.33 47.12, -107.17 47.56 M-104.13 47.09 C-105.18 47.22, -106.03 47.33, -107.27 47.53 M-107.09 47.61 C-108.27 47.63, -109.49 48.01, -110.29 48.32 M-107.02 47.65 C-108.4 47.56, -109.48 47.91, -110.28 48.01 M-110.17 47.9 C-111.52 48.43, -112.13 48.16, -113.78 48.43 M-110.5 48.18 C-111.29 48.17, -111.77 48.22, -113.78 48.46 M-113.96 48.31 C-113.93 48.32, -113.91 48.33, -113.87 48.33 M-113.95 48.32 C-113.93 48.32, -113.9 48.32, -113.88 48.33 M-113.88 48.32 C-113.93 48.33, -113.97 48.33, -114 48.34 M-113.88 48.33 C-113.92 48.34, -113.96 48.34, -114 48.35 M-113.97 48.36 C-114.06 48.34, -114.14 48.35, -114.29 48.34 M-114.01 48.34 C-114.12 48.36, -114.22 48.35, -114.26 48.36 M-114.27 48.32 C-114.38 48.39, -114.59 48.4, -114.88 48.44 M-114.25 48.39 C-114.42 48.39, -114.6 48.38, -114.81 48.41 M-114.65 48.23 C-116.07 48.14, -116.69 48.35, -117.81 48.51 M-114.76 48.32 C-115.41 48.48, -116.16 48.35, -117.83 48.4 M-117.97 48.83 C-118.48 48.61, -119.34 48.68, -120.89 48.69 M-117.78 48.37 C-118.99 48.7, -120.37 48.72, -121.16 48.46 M-120.96 48.84 C-122.01 48.27, -123.11 48.27, -124.97 48.37 M-121.29 48.54 C-122.09 48.55, -123.24 48.66, -124.87 48.61 M-124.43 48.47 C-126.02 48.42, -127.23 48.1, -128.63 48.71 M-124.77 48.43 C-125.94 48.57, -127.21 48.47, -128.69 48.23 M-128.52 48.37 C-128.54 48.38, -128.55 48.39, -128.59 48.41 M-128.51 48.37 C-128.54 48.38, -128.57 48.4, -128.58 48.41 M-128.58 48.41 C-128.58 48.41, -128.58 48.41, -128.58 48.41 M-128.58 48.41 C-128.58 48.41, -128.58 48.41, -128.58 48.41 M-128.62 48.32 C-128.13 49.05, -127.5 49.47, -126.9 50.5 M-128.63 48.35 C-128.05 48.75, -127.7 49.37, -126.82 50.35 M-126.7 50.22 C-126.41 50.66, -125.51 51.25, -124.71 52.18 M-126.72 50.18 C-126.32 50.85, -125.87 51.42, -124.9 51.99 M-124.92 52.16 C-124.51 52.37, -123.74 53.05, -123.04 53.62 M-124.97 52.13 C-124.2 52.5, -123.66 53.13, -122.99 53.72 M-123.11 53.77 C-122.01 54.44, -121.64 54.59, -120.65 55.17 M-122.85 53.82 C-122.47 54.24, -121.95 54.5, -120.79 55.38 M-120.83 55.34 C-120.24 55.49, -119.56 56.31, -118.49 56.58 M-120.85 55.31 C-119.94 55.9, -119.21 56.35, -118.46 56.82 M-118.69 56.97 C-118.06 56.93, -117.31 57.21, -116.05 58.39 M-118.66 56.65 C-118.07 57, -117.49 57.28, -116.3 58.08 M-116.33 57.88 C-115.3 58.62, -114.25 58.97, -113.83 59.48 M-116.12 58.18 C-115.2 58.66, -114.48 59.07, -113.72 59.3 M-113.77 59.38 C-112.54 59.68, -111.65 60.24, -111.17 60.74 M-113.84 59.22 C-112.93 59.56, -112.35 59.91, -111.33 60.36 M-111.47 60.34 C-110.24 60.79, -109.8 60.95, -108.8 61.43 M-111.2 60.59 C-110.56 60.89, -109.75 60.97, -108.48 61.35 M-108.4 61.25 C-107.79 61.71, -106.89 61.82, -105.51 62.45 M-108.59 61.6 C-107.81 61.85, -106.74 62.02, -105.72 62.48 M-106.08 62.5 C-105.01 62.35, -104.32 62.52, -103.03 63.08 M-105.93 62.33 C-104.89 62.75, -103.57 62.91, -102.84 63.1 M-103.15 63.33 C-102.13 63.18, -101.13 63.6, -99.76 63.8 M-102.99 63.15 C-102.17 63.26, -101.35 63.38, -99.95 63.65 M-100.04 63.5 C-99 63.78, -98.2 64.09, -96.93 64.09 M-99.88 63.58 C-99.07 63.91, -98.27 63.9, -96.91 64.11 M-97.03 64.15 C-96.22 64.43, -94.7 64.6, -93.9 64.78 M-96.82 64.13 C-96.06 64.22, -95.18 64.44, -93.86 64.49 M-93.61 64.61 C-93.05 64.55, -91.98 64.94, -90.27 64.54 M-93.74 64.52 C-93.02 64.5, -92.55 64.48, -90.65 64.71 M-90.78 65.09 C-89.79 64.98, -88.56 64.6, -87.29 64.77 M-90.63 64.69 C-89.37 64.74, -87.8 64.9, -87.35 64.86 M-87.16 64.35 C-85.41 64.36, -83.43 64.31, -79.91 64.59 M-86.9 64.79 C-85.09 64.63, -83.72 65, -80.55 64.47 M-80.86 64.19 C-78.1 63.75, -75.3 64.42, -73.26 64.39 M-79.9 64.62 C-78.47 64.49, -76.28 64.38, -72.99 64.07 M-73.24 64.05 C-72.08 64.4, -69.26 64.12, -66.04 63 M-73.24 63.72 C-71.65 63.98, -70.03 63.23, -66.51 63.31 M-66.62 62.78 C-64.09 63.21, -62.16 62.48, -59.49 61.62 M-66.51 62.83 C-64.36 62.32, -62.47 61.76, -60.36 61.31 M-60.17 61.32 C-58.13 61.06, -55.71 59.63, -54 60.01 M-60.38 61.55 C-57.95 60.84, -55.63 60.5, -53.54 59.67 M-53.5 60.38 C-52.93 59.37, -50.73 58.76, -48 57.75 M-53.96 60.04 C-51.21 58.69, -49.03 58.22, -47.88 57.67 M-48.04 57.66 C-46.17 56.35, -43.34 55.41, -41.43 54.59 M-47.96 57.61 C-45.87 56.27, -43.51 55.89, -41.58 54.65 M-41.25 54.79 C-39.78 54.46, -38.89 52.69, -35.66 51.51 M-41.52 54.95 C-39.51 53.43, -37.35 52.34, -36.12 51.82 M-35.84 51.89 C-35.23 50.21, -33.42 49.37, -30.47 48.61 M-36.47 51.5 C-34.43 50.49, -32.78 49.15, -30.62 48.04 M-31.42 48.04 C-29.03 47.06, -28.17 45.4, -25.39 43.58 M-31.07 48.29 C-29.57 46.76, -28.44 46.21, -26.06 44.3 M-25.94 43.56 C-25.08 42.68, -23.84 41.59, -21.77 39.82 M-26.18 44.03 C-25.19 43.5, -23.95 42.34, -20.95 39.42 M-21.58 39.23 C-19.48 37.23, -18.28 36.14, -16.39 34.65 M-20.9 39.89 C-19.7 38.08, -17.45 35.56, -16.9 34.6 M-16.92 34.75 C-16.3 34.25, -15.56 33.4, -14.65 31.82 M-16.84 34.85 C-16.11 33.61, -15.06 32.86, -14.79 31.97 M-14.49 32 C-14.43 31.39, -13.93 30.91, -12.55 29.36 M-14.62 32.27 C-14.41 31.44, -13.83 31.11, -12.69 29.32 M-12.5 29.14 C-12.15 28.18, -11.83 28.04, -10.58 26.48 M-12.62 29.24 C-12.34 28.61, -11.72 28.03, -10.83 26.44 M-10.66 26.33 C-10.4 25.78, -10.19 24.91, -8.86 23.42 M-10.94 26.55 C-10.37 26, -10.19 25.24, -9 23.53 M-9.09 23.34 C-8.34 22.49, -7.61 21.37, -7.1 20.35 M-9.21 23.43 C-8.57 22.46, -8.03 21.66, -7.55 20.3 M-7.43 20.49 C-6.57 19.14, -5.89 18.08, -6.01 17.29 M-7.29 20.43 C-7.03 19.73, -6.68 19.09, -5.9 17.08 M-5.49 17.13 C-5.78 16.26, -4.9 15.67, -4.18 13.59 M-5.98 16.99 C-5.47 16.04, -4.97 15.05, -4.33 13.85 M-4.5 14.03 C-3.85 13.1, -3.65 12.52, -3.16 9.97 M-4.45 13.66 C-3.83 12.98, -3.68 11.99, -2.87 10.23 M-2.72 10.3 C-2.26 10.55, -1.59 10.07, 1.13 10.42 M-3.1 10.34 C-2.2 10.17, -1.12 10.22, 0.85 10.54 M0.69 10.47 C2.22 10.6, 3.15 10.18, 4.33 10.37 M0.73 10.55 C1.87 10.56, 2.81 10.5, 4.58 10.23 M4.14 10.37 C5.85 10.08, 7.09 10.04, 7.92 9.57 M4.33 10.49 C5.67 10.04, 6.92 9.97, 8.06 9.82 M8.24 10.07 C9.3 9.34, 10.07 8.9, 11.6 8.65 M8 9.98 C8.93 9.65, 10.1 9.38, 11.46 8.94 M11.28 9.01 C12.25 8.19, 13.31 7.97, 14.38 7.19 M11.34 8.77 C12.06 8.59, 12.57 8.28, 14.21 7.33 M14.4 7.52 C14.95 7.17, 15.45 6.69, 15.88 6.64 M14.31 7.41 C14.91 7.07, 15.52 6.75, 15.67 6.47 M15.69 6.67 C16.3 6.15, 16.62 5.7, 17.21 5.59 M15.76 6.47 C16.24 6.19, 16.71 5.74, 17.09 5.46 M17.14 5.56 C17.39 5.27, 17.85 4.8, 18.42 4.52 M17.06 5.55 C17.44 5.2, 17.87 4.81, 18.28 4.36 M18.33 4.48 C18.59 3.89, 19.05 3.64, 19.47 3.07 M18.28 4.46 C18.59 4.08, 18.76 3.86, 19.35 3.13 M19.44 2.95 C19.77 2.51, 20.09 2.29, 20.56 1.77 M19.33 3.14 C19.67 2.6, 20.03 2.28, 20.34 1.72 M20.55 1.73 C20.78 1.22, 20.99 1.01, 21.18 0.16 M20.38 1.68 C20.71 1.23, 20.84 0.8, 21.21 0.23 M21 0.15 C20.89 -0.06, 19.82 -0.49, 18.84 -1.23 M21.31 0.27 C20.73 -0.22, 19.8 -0.61, 18.56 -1.17 M18.53 -1.09 C17.7 -1.16, 16.63 -1.57, 15.55 -1.8 M18.63 -1.22 C17.82 -1.39, 16.76 -1.52, 15.74 -2.07 M15.56 -1.87 C15.21 -2.05, 14.46 -2.16, 12.64 -2.4 M15.65 -1.84 C14.65 -2.23, 13.76 -2.27, 12.77 -2.27 M13.03 -2.4 C11.96 -2.13, 11.39 -2.29, 10.13 -2.5 M12.81 -2.48 C12.18 -2.37, 11.32 -2.27, 9.96 -2.57 M10.03 -2.18 C8.75 -2.36, 8.05 -2.09, 7.29 -2.06 M9.84 -2.3 C9.48 -2.36, 8.87 -2.35, 7.06 -2.09 M7.27 -2.42 C6.04 -2.13, 5.43 -1.74, 4.58 -1.9 M7.07 -2.23 C6.47 -2.01, 5.67 -1.96, 4.63 -1.63 M4.44 -1.86 C3.74 -1.46, 3.54 -1.44, 1.92 -1.01 M4.43 -1.69 C3.48 -1.39, 2.75 -1.08, 2.18 -0.84 M2.3 -0.87 C1.61 -0.7, 0.84 -0.26, -0.07 -0.2 M2.17 -0.89 C1.27 -0.66, 0.63 -0.31, 0.09 -0.04 M0 0 C0 0, 0 0, 0 0 M0 0 C0 0, 0 0, 0 0" stroke="#22a0c8" stroke-width="1" fill="none"></path></g></g><g stroke-linecap="round"><g transform="translate(1286.4544568185283 66.54382025863362) rotate(0 7.633631983004761 7.218930263429584)" fill-rule="evenodd"><path d="M0 0 C0 0, 0 0, 0 0 M0 0 C0 0, 0 0, 0 0 M0.04 6.17 C1.4 3.94, 3.22 1.26, 4.6 0.08 M-0.17 6.48 C0.6 5.42, 1.82 3.81, 4.99 0.01 M-0.94 10.6 C4.16 7.38, 6.72 2.75, 9.35 0.56 M0.28 12.15 C3.13 8.14, 6.79 3.93, 10.58 -0.09 M1.55 15.64 C4.69 10.49, 11.86 7.99, 15.79 -0.17 M1.26 15.72 C5.65 10.19, 10.09 6.06, 14.8 0.88 M7.43 17.38 C11.14 13.33, 13.67 10.39, 15.26 5.91 M7.15 16.91 C9.72 14.19, 11.31 11.62, 15.86 6.5 M12.5 15.96 C13.09 15.61, 14.03 13.85, 15.62 11.95 M12.57 16.27 C13.41 14.58, 14.95 13.58, 15.93 12.36 M0.2 15.01 C0.2 15.01, 0.2 15.01, 0.2 15.01 M0.2 15.01 C0.2 15.01, 0.2 15.01, 0.2 15.01 M6.27 15.4 C4.21 13.94, 3.46 12.31, 0.39 10.05 M6.19 14.35 C4.2 13.43, 2.73 11.46, -0.59 9.7 M12.22 15.42 C7.38 12.1, 2.44 5.64, 0.59 5.96 M12.32 14.61 C7.89 10.46, 3.57 6.78, 0.19 3.77 M16.1 14.18 C10.8 9.6, 6.13 4.27, 2.17 0.37 M16.56 13.37 C10.63 8.06, 5.74 2.08, 0.08 0.39 M16.9 8.44 C13.46 3.99, 8.38 0.67, 7.73 -0.68 M16.52 7.54 C12.65 4.9, 8.71 1.66, 7.13 -0.24 M16.66 2.14 C15.62 1.39, 14.54 0.46, 12.72 -0.99 M16.46 2.63 C15.57 1.86, 14.36 0.87, 12.62 -0.77" stroke="#23A3C2" stroke-width="0.5" fill="none"></path><path d="M0.51 1.13 C4.24 -1.27, 9.14 -1.14, 14.01 0.71 M-0.59 0.22 C5.94 0.34, 9.91 -0.52, 14.83 -0.66 M16.17 -0.95 C14.51 4.15, 13.65 8.53, 14.12 14.38 M14.8 -0.53 C14.42 4.54, 14.24 9.89, 15.51 14.61 M16.08 15.57 C10.34 15.23, 5.75 14.67, -0.91 14.41 M15.5 14.12 C11.66 14.41, 7.86 14.54, -0.29 15.55 M0.62 14.05 C0.26 10.4, 0.15 4.16, 0.29 -1.13 M-0.51 14.64 C0.5 9.99, 0.68 3.44, -0.28 -0.52 M0 0 C0 0, 0 0, 0 0 M0 0 C0 0, 0 0, 0 0 M0 0 C0 0, 0 0, 0 0 M0 0 C0 0, 0 0, 0 0" stroke="#23a3c2" stroke-width="1" fill="none"></path></g></g><g stroke-linecap="round"><g transform="translate(1303.7507949646729 49.428717374174354) rotate(0 7.218995802177005 7.605127342119168)" fill-rule="evenodd"><path d="M0 0 C0 0, 0 0, 0 0 M0 0 C0 0, 0 0, 0 0 M-0.4 6.18 C0.73 4.8, 1.6 3.66, 2.84 2.15 M-0.21 6.23 C0.63 5.48, 1.13 4.72, 2.8 2.78 M-0.94 12.16 C1.85 9.05, 3.6 6.67, 8.45 3.02 M0.21 11.94 C2.64 9.19, 4.91 5.79, 7.96 3.13 M1.3 14.58 C5.6 12.35, 12.55 6.48, 15.13 0.87 M1.39 15.34 C3.97 11.99, 7.95 8.72, 16.17 1.03 M7.67 17.7 C9.97 13.92, 13.37 10.17, 14.55 6.4 M7.2 17.04 C9.37 13.72, 11.7 11.95, 15.13 6.52 M12.29 15.92 C14.25 14.48, 14.8 13.03, 15.33 12.7 M12.6 15.91 C13.59 14.74, 15.27 13.33, 15.75 12.22 M0.2 15.01 C0.2 15.01, 0.2 15.01, 0.2 15.01 M0.2 15.01 C0.2 15.01, 0.2 15.01, 0.2 15.01 M6.63 14.48 C4.79 13.73, 2.69 12.14, 0.49 9.31 M5.58 14.71 C4.5 13.69, 2.48 11.51, 0.14 9.69 M12.79 14.58 C10 11.33, 4.21 9.53, 1.75 5.71 M11.98 15.08 C8.89 12.98, 6.46 10.08, -0.44 4.57 M17.39 12.7 C12.85 9.33, 7.6 7.15, 1.5 0.76 M16.58 13.16 C12.74 10.94, 8.16 6.35, 1.52 0.07 M16.89 8.27 C13.25 4.84, 10.81 4.91, 6.6 0.59 M15.99 7.69 C12.58 4.14, 8.73 1.57, 7.03 -0.52 M15.94 2.83 C15.03 1.94, 13.99 0.99, 12.32 -0.92 M16.43 2.77 C15.17 1.45, 13.74 0.35, 12.54 -0.85" stroke="#23A3C2" stroke-width="0.5" fill="none"></path><path d="M1.13 -0.17 C4.55 0.27, 10.42 -0.87, 15.54 0.79 M0.22 0.7 C5.16 -0.46, 9.15 0.11, 14.17 0.25 M13.89 -0.46 C14.12 4.54, 13.54 11.01, 14.38 15.26 M14.3 -0.3 C14.39 2.82, 14.86 7.28, 14.61 15.21 M15.57 15.54 C11.72 16.27, 7.64 14.05, -0.42 14.05 M14.12 15.33 C10.39 15.34, 6.4 14.68, 0.71 14.94 M-0.78 15.18 C0.36 9.76, -1.21 4.51, -1.13 1.01 M-0.2 15.28 C0.66 11.59, -0.44 6.82, -0.52 0.56 M0 0 C0 0, 0 0, 0 0 M0 0 C0 0, 0 0, 0 0 M0 0 C0 0, 0 0, 0 0 M0 0 C0 0, 0 0, 0 0" stroke="#23a3c2" stroke-width="1" fill="none"></path></g></g><g stroke-linecap="round"><g transform="translate(1303.569561130635 66.54382025863282) rotate(0 7.4237402560348755 7.128008104794809)" fill-rule="evenodd"><path d="M0 0 C0 0, 0 0, 0 0 M0 0 C0 0, 0 0, 0 0 M-0.48 6.32 C0.43 4.91, 1.59 3.81, 2.55 2.23 M-0.43 6.54 C0.38 5.46, 1.19 4.49, 3.17 2.49 M0.25 11.86 C2.1 8.61, 4.67 6.3, 8.04 3.49 M0.03 11.91 C3.29 8.14, 5.9 5.29, 8.15 3.06 M0.24 15.52 C6.02 14.68, 8.16 8.68, 16.16 -1.44 M1 15.27 C4.19 12.76, 7.44 9.52, 16.32 0.5 M8 16.9 C9.22 15.36, 10.47 11.32, 15.03 6.17 M7.33 16.89 C9.17 13.93, 12.58 10.17, 15.15 7.34 M12.25 16.6 C13.09 14.97, 13.9 13.93, 16.09 12.84 M12.24 15.98 C13.69 15.05, 14.9 13.52, 15.6 12.58 M0.2 15.01 C0.2 15.01, 0.2 15.01, 0.2 15.01 M0.2 15.01 C0.2 15.01, 0.2 15.01, 0.2 15.01 M5.71 15.29 C5.08 13.85, 3.68 12.99, -0.25 9.07 M5.94 14.9 C3.79 12.34, 0.59 10.73, 0.13 9.27 M11.94 16.01 C7.24 9.81, 3.98 8.95, 1.5 3.26 M12.45 14.39 C8.15 10.7, 3.07 6.24, 0.36 4.2 M15.9 14.05 C11.48 9, 8.2 5.68, 1.89 -1.96 M16.37 13.18 C12.99 8.56, 7.29 6.71, 1.2 -1.39 M16.72 6.84 C11.71 3.7, 10.32 1.7, 7.86 0.81 M16.15 7.79 C11.96 4.39, 8.91 1.37, 6.75 -0.57 M16.63 2.25 C15.06 0.87, 13.49 -0.33, 12.39 -0.52 M16.58 2.69 C14.84 1.26, 13.37 -0.09, 12.46 -0.6" stroke="#34BBDE" stroke-width="0.5" fill="none"></path><path d="M-0.17 -1.2 C5.54 -1.18, 9.6 0.59, 15.63 0.4 M0.7 0.31 C3.56 -0.6, 8.25 -0.7, 15.09 0.71 M14.37 -0.81 C13.64 3.96, 14.25 10.25, 15.26 13.68 M14.53 -0.34 C14.35 3.51, 15.5 6.51, 15.21 14.37 M15.54 15.24 C11.84 14.76, 5.31 14.49, -0.78 14.51 M15.34 14.51 C11.83 14.51, 7.79 15.41, 0.11 15.26 M0.34 15.07 C0.17 10.36, 0.23 7.44, 1.01 -0.58 M0.44 15.45 C0.73 10.31, -0.18 6.22, 0.56 0.61 M0 0 C0 0, 0 0, 0 0 M0 0 C0 0, 0 0, 0 0 M0 0 C0 0, 0 0, 0 0 M0 0 C0 0, 0 0, 0 0" stroke="#34bbde" stroke-width="1" fill="none"></path></g></g><g stroke-linecap="round"><g transform="translate(1320.6854106720248 66.54382025863282) rotate(0 7.1724720603807555 7.41089773808887)" fill-rule="evenodd"><path d="M0 0 C0 0, 0 0, 0 0 M0 0 C0 0, 0 0, 0 0 M-0.38 5.85 C1.06 4, 3.02 1.59, 4.36 -0.26 M-0.04 6.27 C1.27 4.49, 2.76 2.78, 4.77 0.54 M-0.11 10.96 C2.19 7.94, 5.72 6.45, 11.31 1.08 M-0.04 12.39 C2.73 8.16, 6.75 4.56, 10.73 -0.66 M1.18 17.27 C7.81 11.93, 9.26 7.78, 13.85 -1.09 M0.94 15.27 C5.4 11.64, 9.13 9.33, 15.79 -0.46 M7.19 17.08 C10.78 12.96, 11.87 9.33, 14.8 6.86 M7.19 16.28 C10.25 13.54, 12.51 9.4, 15.97 6.33 M12.93 15.97 C13.2 14.87, 14.07 14.19, 16.22 12.59 M12.31 16.24 C13.8 15.07, 14.69 13.45, 15.96 12.3 M0.2 15.01 C0.2 15.01, 0.2 15.01, 0.2 15.01 M0.2 15.01 C0.2 15.01, 0.2 15.01, 0.2 15.01 M6.52 15.24 C4.02 13.33, 2.21 10.84, -0.49 10.15 M6.13 15.01 C3.4 12.2, 1.54 10.89, -0.29 9.61 M13.38 14.22 C7.27 12.14, 6.58 9.92, -0.95 5.67 M11.75 15.39 C8.4 11.69, 4.21 8.61, -0.02 4.46 M17.25 13.17 C11.8 10.83, 8.22 6.62, -0.83 -1.17 M16.38 14.12 C10.41 8.34, 7.25 5.07, -0.26 -0.08 M15.29 6.52 C11.39 5.42, 8.77 2.59, 8.08 0.83 M16.24 7.18 C12.44 4.68, 9.02 1.23, 6.7 0.22 M16.05 2.77 C14.66 1.52, 13.38 0, 12.79 -0.25 M16.49 2.56 C15.04 1.48, 13.68 0.18, 12.71 -0.85" stroke="#23A3C2" stroke-width="0.5" fill="none"></path><path d="M-1.2 0.32 C3.89 -0.81, 10.63 0.81, 15.23 -0.32 M0.31 -0.57 C2.72 -0.15, 5.89 0.11, 15.54 0.45 M14.03 -1.32 C13.35 5.08, 14.28 12.01, 13.68 13.75 M14.5 -0.48 C14.87 5.05, 14.5 9.13, 14.37 14.76 M15.24 16.15 C8.99 14, 3.01 14.13, -0.33 13.76 M14.51 15.2 C8.86 14.65, 3.97 15.04, 0.43 14.17 M0.23 15.07 C-1.27 10.06, -1.05 5.7, -0.58 -0.4 M0.62 15.46 C-0.44 11.12, -0.48 8.52, 0.61 -0.56 M0 0 C0 0, 0 0, 0 0 M0 0 C0 0, 0 0, 0 0 M0 0 C0 0, 0 0, 0 0 M0 0 C0 0, 0 0, 0 0" stroke="#23a3c2" stroke-width="1" fill="none"></path></g></g><g stroke-linecap="round"><g transform="translate(1320.6854106720202 49.24748354013552) rotate(0 7.536611789077938 7.392420989391518)" fill-rule="evenodd"><path d="M0 0 C0 0, 0 0, 0 0 M0 0 C0 0, 0 0, 0 0 M-0.81 5.93 C0.81 4.48, 1.87 2.49, 4.37 0.54 M-0.39 6.25 C1.47 4.08, 3.4 2.28, 5.17 0.09 M-0.95 11.54 C1.05 10.11, 4.58 7.66, 11.75 0.26 M0.48 11.31 C3.39 8.22, 6.93 4.59, 10.01 -0.15 M2.94 18.17 C5.91 11.4, 10.04 5.8, 14.2 -0.84 M0.93 16.34 C4.67 12.82, 9.69 8.4, 14.83 0.79 M7.37 17.59 C9.75 12.12, 12.63 8.8, 15.49 7.37 M6.58 17.03 C10.3 12.76, 12.64 10.1, 14.96 6.76 M12.3 15.86 C13.22 14.7, 14.56 14.59, 15.97 12.57 M12.57 16.37 C13.84 14.83, 14.67 13.71, 15.69 12.5 M0.2 15.01 C0.2 15.01, 0.2 15.01, 0.2 15.01 M0.2 15.01 C0.2 15.01, 0.2 15.01, 0.2 15.01 M6.47 14.97 C4.03 13.26, 0.98 10.18, 0.59 10.06 M6.24 14.47 C4.02 13.77, 3.33 12.11, 0.05 9.36 M11.59 13.54 C8.65 13.04, 5.53 6.83, 1.46 4.52 M12.75 14.73 C9.01 11.39, 5.96 9.01, 0.25 4.27 M16.38 13.19 C12.49 9.38, 6.66 2.22, -0.03 -0.24 M17.32 12.27 C10.86 9.76, 6.91 3.57, 1.06 0.16 M14.97 6.41 C13.33 4.18, 10.07 2.71, 8.1 0.74 M15.63 7.52 C13.43 5.3, 10.33 2.59, 7.5 0.03 M16.58 2.2 C15.64 1.54, 14.48 1.29, 13.06 -0.5 M16.37 2.56 C15.1 1.44, 13.68 0.51, 12.46 -0.9" stroke="#34BBDE" stroke-width="0.5" fill="none"></path><path d="M0.32 -1.07 C4.75 0.83, 11.94 0.52, 14.51 -1.17 M-0.57 -0.55 C4.87 -0.72, 10.02 0.65, 15.28 0.67 M13.51 -1.39 C14.07 3.04, 15.21 5.85, 13.75 14.76 M14.35 0.14 C15.45 3.15, 15.15 6.3, 14.76 15.46 M16.15 14.69 C8.74 14.45, 3.69 14.55, -1.07 16.17 M15.2 14.65 C11.53 15.48, 8.9 15.2, -0.66 15.14 M0.24 13.49 C0.26 10.04, 0.97 6.92, -0.4 -1.01 M0.62 14.35 C-0.36 10.25, 0.47 7.32, -0.56 -0.25 M0 0 C0 0, 0 0, 0 0 M0 0 C0 0, 0 0, 0 0 M0 0 C0 0, 0 0, 0 0 M0 0 C0 0, 0 0, 0 0" stroke="#34bbde" stroke-width="1" fill="none"></path></g></g><g stroke-linecap="round"><g transform="translate(1337.800517839412 49.42871737417481) rotate(0 7.080060212764579 7.188470062839549)" fill-rule="evenodd"><path d="M0 0 C0 0, 0 0, 0 0 M0 0 C0 0, 0 0, 0 0 M-0.73 6.01 C0.82 4.13, 1.82 2.71, 5.17 0.53 M-0.41 6.4 C0.58 5.25, 1.94 3.78, 4.72 0 M-0.37 10.76 C4 8.42, 7.33 5.75, 10.92 0.18 M-0.59 11.99 C3.08 8.77, 6.21 4.53, 10.51 -0.25 M3.83 16.35 C4.43 13.15, 6.19 7.71, 14.45 -0.58 M2 15.36 C5.52 13.57, 8.12 8.66, 16.08 0.97 M7.88 16.44 C9.32 12.35, 12.89 8.99, 16 7.47 M7.32 17.04 C9.77 12.65, 13.84 8.75, 15.39 6.49 M12.19 16.01 C12.86 15.53, 14.58 14.45, 15.96 12.63 M12.7 16.32 C13.18 15.19, 14.07 14.49, 15.89 12.15 M0.2 15.01 C0.2 15.01, 0.2 15.01, 0.2 15.01 M0.2 15.01 C0.2 15.01, 0.2 15.01, 0.2 15.01 M6.2 15.2 C4.77 13.11, 2.08 12.47, 0.5 8.83 M5.7 14.22 C4.19 13.29, 1.79 11.51, -0.2 9.5 M10.91 15.3 C10.36 13.21, 4.26 10.21, 0.31 3.85 M12.1 14.9 C7.77 11.73, 4.26 8.2, 0.06 4.78 M16.4 14.81 C12.91 10.73, 6.2 4.99, 0.9 -0.21 M15.48 12.72 C12.63 9.87, 6.11 5.61, 1.29 0.15 M14.86 8.33 C12.42 5.54, 10.63 2.93, 8.01 -0.33 M15.98 7.73 C13.09 4.72, 9.8 2.89, 7.3 -0.82 M16 2.69 C14.76 1.2, 13.87 0.7, 12.81 -0.57 M16.36 2.59 C14.81 1.14, 13.49 -0.15, 12.41 -0.59" stroke="#23A3C2" stroke-width="0.5" fill="none"></path><path d="M-1.07 -0.82 C4.99 0.76, 8.97 -0.35, 13.66 0.43 M-0.55 -0.01 C5.18 0.37, 12.39 0.57, 15.5 -0.47 M13.45 -0.72 C14.3 4.41, 13.6 6.89, 14.76 13.76 M14.97 0.68 C14.54 4.22, 14.3 7.63, 15.46 15.2 M14.69 13.93 C9.26 14.19, 4.2 13.89, 1.34 13.4 M14.65 14.55 C10.1 15.01, 4.36 14.25, 0.31 14.44 M-1.34 15.13 C-1.15 11.05, -0.6 4.84, -1.01 -0.39 M-0.48 14.56 C-0.64 10.05, 0.48 3.61, -0.25 -0.4 M0 0 C0 0, 0 0, 0 0 M0 0 C0 0, 0 0, 0 0 M0 0 C0 0, 0 0, 0 0 M0 0 C0 0, 0 0, 0 0" stroke="#23a3c2" stroke-width="1" fill="none"></path></g></g><g stroke-linecap="round"><g transform="translate(1317.7909380656001 105.42742330133086) rotate(0 0.053736456775027364 4.092402370416966)" fill-rule="evenodd"><path d="M0 0 L0 0 L1.12 0.14 L2.11 0.55 L2.94 1.18 L3.57 2 L3.99 2.94 L4.15 3.97 L4.04 5.04 L3.63 6.09 L2.96 6.97 L2.1 7.64 L1.1 8.05 L0 8.18 L-1.12 8.02 L-2.1 7.58 L-2.91 6.92 L-3.52 6.09 L-3.91 5.13 L-4.04 4.1 L-3.9 3.04 L-3.46 2 L-2.81 1.17 L-1.99 0.55 L-1.04 0.15 L0 0" stroke="none" stroke-width="0" fill="#ffffff" fill-rule="evenodd"></path><path d="M0 0 C0 0, 0 0, 0 0 M0 0 C0 0, 0 0, 0 0 M0 0 C0.28 0.03, 0.55 0.07, 1.12 0.14 M0 0 C0.29 0.03, 0.57 0.07, 1.12 0.14 M1.12 0.14 C1.45 0.27, 1.77 0.41, 2.11 0.55 M1.12 0.14 C1.38 0.24, 1.63 0.35, 2.11 0.55 M2.11 0.55 C2.37 0.75, 2.63 0.95, 2.94 1.18 M2.11 0.55 C2.43 0.79, 2.74 1.04, 2.94 1.18 M2.94 1.18 C3.13 1.43, 3.32 1.67, 3.57 2 M2.94 1.18 C3.08 1.37, 3.22 1.55, 3.57 2 M3.57 2 C3.73 2.37, 3.9 2.74, 3.99 2.94 M3.57 2 C3.73 2.37, 3.89 2.74, 3.99 2.94 M3.99 2.94 C4.02 3.17, 4.06 3.39, 4.15 3.97 M3.99 2.94 C4.03 3.24, 4.08 3.53, 4.15 3.97 M4.15 3.97 C4.12 4.28, 4.09 4.58, 4.04 5.04 M4.15 3.97 C4.11 4.35, 4.07 4.73, 4.04 5.04 M4.04 5.04 C3.92 5.34, 3.8 5.64, 3.63 6.09 M4.04 5.04 C3.93 5.33, 3.81 5.63, 3.63 6.09 M3.63 6.09 C3.45 6.33, 3.27 6.56, 2.96 6.97 M3.63 6.09 C3.49 6.28, 3.35 6.46, 2.96 6.97 M2.96 6.97 C2.68 7.19, 2.4 7.41, 2.1 7.64 M2.96 6.97 C2.66 7.21, 2.35 7.45, 2.1 7.64 M2.1 7.64 C1.71 7.8, 1.31 7.96, 1.1 8.05 M2.1 7.64 C1.86 7.74, 1.62 7.83, 1.1 8.05 M1.1 8.05 C0.77 8.09, 0.44 8.13, 0 8.18 M1.1 8.05 C0.81 8.09, 0.53 8.12, 0 8.18 M0 8.18 C-0.43 8.12, -0.86 8.06, -1.12 8.02 M0 8.18 C-0.42 8.12, -0.83 8.06, -1.12 8.02 M-1.12 8.02 C-1.48 7.86, -1.85 7.69, -2.1 7.58 M-1.12 8.02 C-1.35 7.91, -1.59 7.81, -2.1 7.58 M-2.1 7.58 C-2.38 7.35, -2.65 7.13, -2.91 6.92 M-2.1 7.58 C-2.34 7.38, -2.58 7.18, -2.91 6.92 M-2.91 6.92 C-3.05 6.72, -3.2 6.52, -3.52 6.09 M-2.91 6.92 C-3.12 6.64, -3.33 6.35, -3.52 6.09 M-3.52 6.09 C-3.61 5.86, -3.7 5.63, -3.91 5.13 M-3.52 6.09 C-3.66 5.75, -3.8 5.4, -3.91 5.13 M-3.91 5.13 C-3.94 4.89, -3.97 4.65, -4.04 4.1 M-3.91 5.13 C-3.95 4.8, -4 4.47, -4.04 4.1 M-4.04 4.1 C-4.01 3.86, -3.98 3.63, -3.9 3.04 M-4.04 4.1 C-4.01 3.84, -3.98 3.59, -3.9 3.04 M-3.9 3.04 C-3.73 2.63, -3.56 2.22, -3.46 2 M-3.9 3.04 C-3.76 2.69, -3.61 2.35, -3.46 2 M-3.46 2 C-3.26 1.75, -3.07 1.49, -2.81 1.17 M-3.46 2 C-3.28 1.76, -3.09 1.53, -2.81 1.17 M-2.81 1.17 C-2.5 0.93, -2.18 0.69, -1.99 0.55 M-2.81 1.17 C-2.63 1.03, -2.45 0.89, -1.99 0.55 M-1.99 0.55 C-1.72 0.43, -1.45 0.32, -1.04 0.15 M-1.99 0.55 C-1.63 0.4, -1.27 0.24, -1.04 0.15 M-1.04 0.15 C-0.63 0.09, -0.21 0.03, 0 0 M-1.04 0.15 C-0.77 0.11, -0.51 0.07, 0 0 M0 0 C0 0, 0 0, 0 0 M0 0 C0 0, 0 0, 0 0" stroke="#ffffff" stroke-width="2" fill="none"></path></g></g><g stroke-linecap="round"><g transform="translate(1337.9927912292137 66.34572613303072) rotate(0 7.548482428307807 7.718959072782738)" fill-rule="evenodd"><path d="M0 0 C0 0, 0 0, 0 0 M0 0 C0 0, 0 0, 0 0 M-0.44 5.93 C0.12 5.15, 1.39 4.77, 2.69 2.9 M-0.48 6.55 C0.5 5.5, 1.35 4.14, 3.04 2.59 M0.58 12.08 C2.5 10.84, 4.04 8.06, 7.81 2.73 M0.09 12.19 C2.99 8.47, 5.53 5.67, 7.53 2.79 M1.35 16.72 C4.81 9.12, 10.29 4.01, 13.95 -1.47 M2.39 16.88 C4.87 12.19, 8.05 10.3, 16.52 0.61 M6.02 16.21 C9.11 13.32, 13.22 10.58, 16.37 7.44 M6.6 16.33 C9.6 13.51, 11.24 11.11, 15.06 7.32 M12.05 16.48 C13.84 15.36, 14.45 14.39, 15.29 12.05 M12.47 15.99 C13.76 14.77, 14.81 13.33, 15.63 12.36 M0.2 15.01 C0.2 15.01, 0.2 15.01, 0.2 15.01 M0.2 15.01 C0.2 15.01, 0.2 15.01, 0.2 15.01 M6.53 14.55 C3.24 13.46, 1.95 10.16, 0 9.94 M6.18 14.93 C3.35 12.7, 1.04 10.5, -0.27 9.65 M13.83 16.21 C8.08 13.48, 6.22 8.95, 0.58 3.4 M11.64 15.07 C7.69 11.15, 3.37 7.65, -0.02 4.73 M17.35 14.54 C10.27 8.6, 7.24 5.43, 0.51 -0.59 M17.37 13.84 C9.46 8.2, 4.76 2.99, 1.15 -1.18 M15.65 8.47 C15.25 7.06, 13.23 4.21, 7.25 0.17 M16.09 7.35 C13.57 6.22, 11.98 3.27, 7.28 -0.7 M16.09 2.36 C15.27 1.91, 13.99 0.45, 13.04 -0.44 M16.32 2.43 C15.31 1.42, 13.84 0.68, 12.77 -0.9" stroke="#34BBDE" stroke-width="0.5" fill="none"></path><path d="M0.71 0.79 C5.17 -0.24, 8.38 0.51, 16.23 0.61 M-0.66 0.25 C4.01 0.45, 7.28 -0.47, 14.6 -0.4 M14.38 0.43 C13.54 2.05, 14.62 5.18, 14.23 14.16 M14.61 0.37 C14.4 3.42, 15.49 7.34, 15.19 15.04 M14.41 14.05 C8.74 13.67, 4.65 13.31, 1 14.2 M15.55 14.94 C10.07 14.12, 4.77 14.38, 0.17 14.95 M-1.13 15.84 C-0.45 9.74, -0.88 5.07, 0.89 1.24 M-0.52 15.39 C0.7 8.58, -0.15 3.03, -0.23 0 M0 0 C0 0, 0 0, 0 0 M0 0 C0 0, 0 0, 0 0 M0 0 C0 0, 0 0, 0 0 M0 0 C0 0, 0 0, 0 0" stroke="#34bbde" stroke-width="1" fill="none"></path></g></g><g stroke-linecap="round"><g transform="translate(1355.3912392969578 65.98325846495226) rotate(0 7.405255071704232 7.305075967010886)" fill-rule="evenodd"><path d="M0 0 C0 0, 0 0, 0 0 M0 0 C0 0, 0 0, 0 0 M-1.01 5.77 C0.42 5.14, 2.47 2.96, 5.43 0.11 M-0.01 6.18 C1.3 4.58, 2.14 3.3, 4.93 0.09 M0.18 12.72 C4.17 9.05, 6.09 5.25, 10.29 0.66 M0.33 12.14 C1.71 9.41, 4.32 6.36, 10.37 0.4 M2.38 14.41 C5.92 8.71, 11.93 1.87, 13.82 -1.49 M2.54 16.35 C5.54 11.55, 11.33 6.97, 15.9 0.74 M6.5 15.98 C10.22 13.49, 14.08 10.12, 16.08 6.22 M6.62 17.15 C9.56 12.91, 12.93 8.9, 15.95 6.51 M12.81 16.61 C13.5 15.46, 14.34 13.88, 15.44 12.57 M12.32 16.35 C13.67 14.8, 14.8 13.07, 15.75 12.12 M0.2 15.01 C0.2 15.01, 0.2 15.01, 0.2 15.01 M0.2 15.01 C0.2 15.01, 0.2 15.01, 0.2 15.01 M5.79 14.32 C4.51 13.55, 1.11 11.24, 0.39 10.16 M6.17 14.51 C4.54 13.27, 2.84 11.82, 0.09 9.2 M13.58 13.76 C10.89 12.87, 6.46 10.86, -0.81 5.4 M12.44 14.69 C8.91 11.71, 5.83 8.67, 0.52 4.38 M17.74 11.81 C10.93 9.47, 7.12 4.93, 0.54 1.28 M17.05 12.38 C13.64 11.2, 10.53 8.15, -0.05 -1.45 M16.92 8.68 C15.23 6.96, 12.2 4.57, 7.44 -1.05 M15.81 7.3 C13.81 5.56, 10.06 3.18, 6.57 -0.07 M16.16 2.76 C15.95 2, 14.76 1.47, 12.87 -0.7 M16.23 2.68 C15.07 1.37, 14.17 0.72, 12.41 -0.68" stroke="#23A3C2" stroke-width="0.5" fill="none"></path><path d="M0.79 0.4 C3.06 -1.24, 7.2 1.32, 15.45 -1.15 M0.25 0.71 C3.79 0.8, 6.21 -0.1, 14.43 -0.66 M15.26 -1.15 C13.68 2.99, 13.69 5.52, 14.16 13.87 M15.21 -0.46 C14.9 5.35, 15.34 9.81, 15.04 15.49 M14.05 14.51 C9.46 16.13, 4.79 15.79, -0.64 15.57 M14.94 15.26 C10.09 15.29, 6.28 15.15, 0.12 14.95 M1.01 14.25 C-0.43 10.71, -0.42 9.51, 1.24 1.25 M0.56 15.44 C-0.5 11.1, -0.35 7.62, 0 0.19 M0 0 C0 0, 0 0, 0 0 M0 0 C0 0, 0 0, 0 0 M0 0 C0 0, 0 0, 0 0 M0 0 C0 0, 0 0, 0 0" stroke="#23a3c2" stroke-width="1" fill="none"></path></g></g><g stroke-linecap="round"><g transform="translate(1256.2188717283734 92.90104807892777) rotate(0 95.18133579115806 -3.951685377896169)" fill-rule="evenodd"><path d="M0 0 L190.36 0 L190.36 0 L188.61 -0.42 L186.59 -0.91 L184.47 -1.53 L182.44 -2.31 L180.67 -3.29 L179.94 -3.88 L179.34 -4.53 L178.9 -5.25 L178.63 -6.05 L178.57 -6.93 L178.73 -7.9 L177.2 -6.4 L175.45 -5.15 L173.53 -4.13 L171.46 -3.34 L169.28 -2.75 L167.04 -2.36 L164.76 -2.15 L162.47 -2.11 L160.22 -2.22 L158.04 -2.47 L155.97 -2.85 L154.04 -3.33 L152.28 -3.91 L150.74 -4.57 L149.44 -5.3 L148.43 -6.09 L147.88 -5.42 L147.19 -4.81 L145.46 -3.77 L143.3 -2.95 L140.8 -2.33 L138.02 -1.91 L135.05 -1.68 L131.96 -1.62 L128.83 -1.73 L125.74 -2 L122.75 -2.4 L119.96 -2.94 L117.43 -3.6 L115.25 -4.38 L113.48 -5.25 L112.21 -6.22 L111.78 -6.73 L111.51 -7.26 L110.16 -5.94 L108.53 -4.8 L106.67 -3.83 L104.6 -3.04 L102.39 -2.42 L100.05 -1.98 L97.64 -1.72 L95.18 -1.63 L92.73 -1.72 L90.31 -1.98 L87.98 -2.42 L85.76 -3.04 L83.7 -3.83 L81.84 -4.8 L80.21 -5.94 L78.86 -7.26 L78.58 -6.73 L78.16 -6.22 L76.88 -5.25 L75.12 -4.38 L72.93 -3.6 L70.4 -2.94 L67.61 -2.4 L64.63 -2 L61.53 -1.73 L58.4 -1.62 L55.31 -1.68 L52.34 -1.91 L49.57 -2.33 L47.06 -2.95 L44.9 -3.77 L43.17 -4.81 L42.48 -5.42 L41.94 -6.09 L40.92 -5.3 L39.63 -4.57 L38.08 -3.91 L36.33 -3.33 L34.39 -2.85 L32.32 -2.47 L30.14 -2.22 L27.89 -2.11 L25.61 -2.15 L23.33 -2.36 L21.08 -2.75 L18.91 -3.34 L16.84 -4.13 L14.91 -5.15 L13.17 -6.4 L11.64 -7.9 L11.79 -6.93 L11.73 -6.05 L11.47 -5.25 L11.02 -4.52 L10.43 -3.88 L9.7 -3.29 L7.93 -2.31 L5.89 -1.53 L3.78 -0.91 L1.75 -0.42 L0 0" stroke="none" stroke-width="0" fill="#FFFFFF" fill-rule="evenodd"></path><path d="M0 0 C46.54 0, 93.09 0, 190.36 0 M0 0 C56.94 0, 113.87 0, 190.36 0 M190.36 0 C190.36 0, 190.36 0, 190.36 0 M190.36 0 C190.36 0, 190.36 0, 190.36 0 M190.36 0 C189.94 -0.1, 189.53 -0.2, 188.61 -0.42 M190.36 0 C189.9 -0.11, 189.45 -0.22, 188.61 -0.42 M188.61 -0.42 C187.96 -0.58, 187.32 -0.74, 186.59 -0.91 M188.61 -0.42 C188.08 -0.55, 187.55 -0.68, 186.59 -0.91 M186.59 -0.91 C185.79 -1.15, 184.99 -1.38, 184.47 -1.53 M186.59 -0.91 C185.83 -1.14, 185.06 -1.36, 184.47 -1.53 M184.47 -1.53 C183.8 -1.79, 183.13 -2.04, 182.44 -2.31 M184.47 -1.53 C184.04 -1.7, 183.61 -1.86, 182.44 -2.31 M182.44 -2.31 C181.92 -2.6, 181.4 -2.89, 180.67 -3.29 M182.44 -2.31 C181.8 -2.66, 181.17 -3.01, 180.67 -3.29 M180.67 -3.29 C180.48 -3.44, 180.3 -3.59, 179.94 -3.88 M180.67 -3.29 C180.45 -3.47, 180.23 -3.64, 179.94 -3.88 M179.94 -3.88 C179.81 -4.02, 179.67 -4.16, 179.34 -4.53 M179.94 -3.88 C179.76 -4.07, 179.59 -4.26, 179.34 -4.53 M179.34 -4.53 C179.2 -4.75, 179.07 -4.97, 178.9 -5.25 M179.34 -4.53 C179.24 -4.68, 179.15 -4.84, 178.9 -5.25 M178.9 -5.25 C178.82 -5.48, 178.74 -5.72, 178.63 -6.05 M178.9 -5.25 C178.8 -5.55, 178.7 -5.85, 178.63 -6.05 M178.63 -6.05 C178.62 -6.29, 178.6 -6.53, 178.57 -6.93 M178.63 -6.05 C178.61 -6.38, 178.59 -6.71, 178.57 -6.93 M178.57 -6.93 C178.61 -7.17, 178.65 -7.42, 178.73 -7.9 M178.57 -6.93 C178.62 -7.22, 178.66 -7.51, 178.73 -7.9 M178.73 -7.9 C178.16 -7.34, 177.59 -6.78, 177.2 -6.4 M178.73 -7.9 C178.42 -7.6, 178.11 -7.3, 177.2 -6.4 M177.2 -6.4 C176.63 -5.99, 176.06 -5.58, 175.45 -5.15 M177.2 -6.4 C176.67 -6.02, 176.14 -5.64, 175.45 -5.15 M175.45 -5.15 C174.72 -4.76, 173.98 -4.37, 173.53 -4.13 M175.45 -5.15 C174.96 -4.89, 174.47 -4.63, 173.53 -4.13 M173.53 -4.13 C172.77 -3.84, 172.01 -3.55, 171.46 -3.34 M173.53 -4.13 C172.84 -3.86, 172.15 -3.6, 171.46 -3.34 M171.46 -3.34 C170.74 -3.14, 170.02 -2.95, 169.28 -2.75 M171.46 -3.34 C170.76 -3.15, 170.07 -2.96, 169.28 -2.75 M169.28 -2.75 C168.59 -2.63, 167.89 -2.51, 167.04 -2.36 M169.28 -2.75 C168.63 -2.64, 167.98 -2.53, 167.04 -2.36 M167.04 -2.36 C166.13 -2.28, 165.22 -2.2, 164.76 -2.15 M167.04 -2.36 C166.36 -2.3, 165.68 -2.24, 164.76 -2.15 M164.76 -2.15 C164.07 -2.14, 163.38 -2.13, 162.47 -2.11 M164.76 -2.15 C163.95 -2.14, 163.14 -2.12, 162.47 -2.11 M162.47 -2.11 C161.99 -2.14, 161.5 -2.16, 160.22 -2.22 M162.47 -2.11 C161.76 -2.15, 161.05 -2.18, 160.22 -2.22 M160.22 -2.22 C159.39 -2.32, 158.55 -2.41, 158.04 -2.47 M160.22 -2.22 C159.63 -2.29, 159.04 -2.36, 158.04 -2.47 M158.04 -2.47 C157.28 -2.61, 156.52 -2.75, 155.97 -2.85 M158.04 -2.47 C157.58 -2.56, 157.11 -2.64, 155.97 -2.85 M155.97 -2.85 C155.57 -2.94, 155.18 -3.04, 154.04 -3.33 M155.97 -2.85 C155.44 -2.98, 154.91 -3.11, 154.04 -3.33 M154.04 -3.33 C153.53 -3.5, 153.03 -3.66, 152.28 -3.91 M154.04 -3.33 C153.51 -3.5, 152.98 -3.68, 152.28 -3.91 M152.28 -3.91 C151.8 -4.12, 151.32 -4.32, 150.74 -4.57 M152.28 -3.91 C151.73 -4.14, 151.19 -4.38, 150.74 -4.57 M150.74 -4.57 C150.27 -4.83, 149.8 -5.1, 149.44 -5.3 M150.74 -4.57 C150.3 -4.82, 149.86 -5.07, 149.44 -5.3 M149.44 -5.3 C149.18 -5.5, 148.92 -5.7, 148.43 -6.09 M149.44 -5.3 C149.05 -5.61, 148.65 -5.91, 148.43 -6.09 M148.43 -6.09 C148.3 -5.93, 148.18 -5.78, 147.88 -5.42 M148.43 -6.09 C148.23 -5.84, 148.03 -5.6, 147.88 -5.42 M147.88 -5.42 C147.68 -5.25, 147.49 -5.07, 147.19 -4.81 M147.88 -5.42 C147.73 -5.29, 147.58 -5.15, 147.19 -4.81 M147.19 -4.81 C146.71 -4.53, 146.23 -4.24, 145.46 -3.77 M147.19 -4.81 C146.65 -4.49, 146.11 -4.16, 145.46 -3.77 M145.46 -3.77 C144.91 -3.56, 144.36 -3.35, 143.3 -2.95 M145.46 -3.77 C144.67 -3.47, 143.87 -3.17, 143.3 -2.95 M143.3 -2.95 C142.43 -2.73, 141.56 -2.52, 140.8 -2.33 M143.3 -2.95 C142.39 -2.72, 141.48 -2.5, 140.8 -2.33 M140.8 -2.33 C139.91 -2.2, 139.02 -2.07, 138.02 -1.91 M140.8 -2.33 C139.89 -2.2, 138.99 -2.06, 138.02 -1.91 M138.02 -1.91 C137.32 -1.86, 136.62 -1.8, 135.05 -1.68 M138.02 -1.91 C137.42 -1.87, 136.82 -1.82, 135.05 -1.68 M135.05 -1.68 C134.33 -1.67, 133.62 -1.65, 131.96 -1.62 M135.05 -1.68 C134.26 -1.67, 133.47 -1.65, 131.96 -1.62 M131.96 -1.62 C130.77 -1.67, 129.58 -1.71, 128.83 -1.73 M131.96 -1.62 C130.88 -1.66, 129.81 -1.7, 128.83 -1.73 M128.83 -1.73 C128.05 -1.8, 127.27 -1.86, 125.74 -2 M128.83 -1.73 C127.9 -1.81, 126.97 -1.89, 125.74 -2 M125.74 -2 C124.6 -2.15, 123.46 -2.31, 122.75 -2.4 M125.74 -2 C125.06 -2.09, 124.38 -2.18, 122.75 -2.4 M122.75 -2.4 C122.09 -2.53, 121.42 -2.66, 119.96 -2.94 M122.75 -2.4 C122 -2.55, 121.24 -2.7, 119.96 -2.94 M119.96 -2.94 C119.24 -3.13, 118.52 -3.32, 117.43 -3.6 M119.96 -2.94 C119.17 -3.15, 118.37 -3.36, 117.43 -3.6 M117.43 -3.6 C116.67 -3.87, 115.9 -4.15, 115.25 -4.38 M117.43 -3.6 C116.66 -3.88, 115.88 -4.15, 115.25 -4.38 M115.25 -4.38 C114.74 -4.63, 114.23 -4.88, 113.48 -5.25 M115.25 -4.38 C114.56 -4.72, 113.86 -5.06, 113.48 -5.25 M113.48 -5.25 C113.03 -5.59, 112.59 -5.93, 112.21 -6.22 M113.48 -5.25 C113.21 -5.46, 112.95 -5.66, 112.21 -6.22 M112.21 -6.22 C112.1 -6.34, 112 -6.47, 111.78 -6.73 M112.21 -6.22 C112.09 -6.36, 111.98 -6.49, 111.78 -6.73 M111.78 -6.73 C111.7 -6.89, 111.62 -7.06, 111.51 -7.26 M111.78 -6.73 C111.71 -6.88, 111.63 -7.02, 111.51 -7.26 M111.51 -7.26 C111.03 -6.8, 110.55 -6.33, 110.16 -5.94 M111.51 -7.26 C111.14 -6.91, 110.78 -6.55, 110.16 -5.94 M110.16 -5.94 C109.71 -5.63, 109.27 -5.32, 108.53 -4.8 M110.16 -5.94 C109.77 -5.67, 109.38 -5.39, 108.53 -4.8 M108.53 -4.8 C108.03 -4.54, 107.53 -4.28, 106.67 -3.83 M108.53 -4.8 C107.86 -4.45, 107.19 -4.1, 106.67 -3.83 M106.67 -3.83 C106.2 -3.65, 105.73 -3.47, 104.6 -3.04 M106.67 -3.83 C106.25 -3.67, 105.84 -3.51, 104.6 -3.04 M104.6 -3.04 C103.73 -2.79, 102.86 -2.55, 102.39 -2.42 M104.6 -3.04 C104.13 -2.91, 103.66 -2.77, 102.39 -2.42 M102.39 -2.42 C101.61 -2.27, 100.83 -2.13, 100.05 -1.98 M102.39 -2.42 C101.67 -2.29, 100.96 -2.15, 100.05 -1.98 M100.05 -1.98 C99.11 -1.88, 98.17 -1.78, 97.64 -1.72 M100.05 -1.98 C99.25 -1.89, 98.44 -1.8, 97.64 -1.72 M97.64 -1.72 C97 -1.69, 96.36 -1.67, 95.18 -1.63 M97.64 -1.72 C96.95 -1.69, 96.26 -1.67, 95.18 -1.63 M95.18 -1.63 C94.54 -1.65, 93.91 -1.67, 92.73 -1.72 M95.18 -1.63 C94.33 -1.66, 93.48 -1.69, 92.73 -1.72 M92.73 -1.72 C92.05 -1.79, 91.37 -1.86, 90.31 -1.98 M92.73 -1.72 C91.94 -1.8, 91.15 -1.89, 90.31 -1.98 M90.31 -1.98 C89.69 -2.1, 89.07 -2.22, 87.98 -2.42 M90.31 -1.98 C89.61 -2.11, 88.91 -2.25, 87.98 -2.42 M87.98 -2.42 C87.16 -2.65, 86.34 -2.88, 85.76 -3.04 M87.98 -2.42 C87.5 -2.55, 87.02 -2.69, 85.76 -3.04 M85.76 -3.04 C85.31 -3.21, 84.85 -3.39, 83.7 -3.83 M85.76 -3.04 C85 -3.33, 84.23 -3.62, 83.7 -3.83 M83.7 -3.83 C83.14 -4.12, 82.59 -4.41, 81.84 -4.8 M83.7 -3.83 C82.96 -4.22, 82.22 -4.6, 81.84 -4.8 M81.84 -4.8 C81.21 -5.24, 80.58 -5.68, 80.21 -5.94 M81.84 -4.8 C81.26 -5.2, 80.69 -5.6, 80.21 -5.94 M80.21 -5.94 C79.74 -6.4, 79.28 -6.85, 78.86 -7.26 M80.21 -5.94 C79.82 -6.33, 79.43 -6.71, 78.86 -7.26 M78.86 -7.26 C78.75 -7.07, 78.65 -6.87, 78.58 -6.73 M78.86 -7.26 C78.76 -7.07, 78.66 -6.88, 78.58 -6.73 M78.58 -6.73 C78.42 -6.54, 78.26 -6.34, 78.16 -6.22 M78.58 -6.73 C78.42 -6.53, 78.25 -6.34, 78.16 -6.22 M78.16 -6.22 C77.84 -5.98, 77.52 -5.73, 76.88 -5.25 M78.16 -6.22 C77.72 -5.89, 77.28 -5.55, 76.88 -5.25 M76.88 -5.25 C76.18 -4.91, 75.48 -4.56, 75.12 -4.38 M76.88 -5.25 C76.25 -4.94, 75.62 -4.63, 75.12 -4.38 M75.12 -4.38 C74.6 -4.19, 74.07 -4.01, 72.93 -3.6 M75.12 -4.38 C74.31 -4.09, 73.5 -3.81, 72.93 -3.6 M72.93 -3.6 C72.01 -3.36, 71.08 -3.12, 70.4 -2.94 M72.93 -3.6 C72.07 -3.38, 71.21 -3.15, 70.4 -2.94 M70.4 -2.94 C69.84 -2.83, 69.28 -2.72, 67.61 -2.4 M70.4 -2.94 C69.5 -2.77, 68.6 -2.59, 67.61 -2.4 M67.61 -2.4 C66.5 -2.25, 65.4 -2.1, 64.63 -2 M67.61 -2.4 C66.86 -2.3, 66.12 -2.2, 64.63 -2 M64.63 -2 C63.51 -1.9, 62.38 -1.8, 61.53 -1.73 M64.63 -2 C63.95 -1.94, 63.27 -1.88, 61.53 -1.73 M61.53 -1.73 C60.6 -1.7, 59.67 -1.67, 58.4 -1.62 M61.53 -1.73 C60.67 -1.7, 59.81 -1.67, 58.4 -1.62 M58.4 -1.62 C57.19 -1.65, 55.97 -1.67, 55.31 -1.68 M58.4 -1.62 C57.49 -1.64, 56.57 -1.66, 55.31 -1.68 M55.31 -1.68 C54.33 -1.76, 53.35 -1.83, 52.34 -1.91 M55.31 -1.68 C54.2 -1.77, 53.08 -1.86, 52.34 -1.91 M52.34 -1.91 C51.46 -2.05, 50.58 -2.18, 49.57 -2.33 M52.34 -1.91 C51.47 -2.04, 50.6 -2.18, 49.57 -2.33 M49.57 -2.33 C48.92 -2.49, 48.28 -2.65, 47.06 -2.95 M49.57 -2.33 C48.59 -2.57, 47.62 -2.81, 47.06 -2.95 M47.06 -2.95 C46.61 -3.12, 46.15 -3.3, 44.9 -3.77 M47.06 -2.95 C46.51 -3.16, 45.97 -3.37, 44.9 -3.77 M44.9 -3.77 C44.27 -4.15, 43.64 -4.53, 43.17 -4.81 M44.9 -3.77 C44.35 -4.1, 43.8 -4.43, 43.17 -4.81 M43.17 -4.81 C42.96 -5, 42.76 -5.18, 42.48 -5.42 M43.17 -4.81 C43.01 -4.95, 42.86 -5.09, 42.48 -5.42 M42.48 -5.42 C42.29 -5.65, 42.1 -5.88, 41.94 -6.09 M42.48 -5.42 C42.35 -5.59, 42.21 -5.75, 41.94 -6.09 M41.94 -6.09 C41.67 -5.88, 41.4 -5.67, 40.92 -5.3 M41.94 -6.09 C41.57 -5.8, 41.21 -5.52, 40.92 -5.3 M40.92 -5.3 C40.42 -5.02, 39.91 -4.73, 39.63 -4.57 M40.92 -5.3 C40.62 -5.13, 40.32 -4.97, 39.63 -4.57 M39.63 -4.57 C39.12 -4.35, 38.61 -4.14, 38.08 -3.91 M39.63 -4.57 C39.15 -4.37, 38.68 -4.16, 38.08 -3.91 M38.08 -3.91 C37.57 -3.74, 37.05 -3.57, 36.33 -3.33 M38.08 -3.91 C37.39 -3.68, 36.69 -3.45, 36.33 -3.33 M36.33 -3.33 C35.59 -3.14, 34.85 -2.96, 34.39 -2.85 M36.33 -3.33 C35.65 -3.16, 34.98 -2.99, 34.39 -2.85 M34.39 -2.85 C33.67 -2.72, 32.96 -2.59, 32.32 -2.47 M34.39 -2.85 C33.88 -2.75, 33.37 -2.66, 32.32 -2.47 M32.32 -2.47 C31.77 -2.41, 31.22 -2.35, 30.14 -2.22 M32.32 -2.47 C31.7 -2.4, 31.08 -2.33, 30.14 -2.22 M30.14 -2.22 C29.58 -2.19, 29.02 -2.17, 27.89 -2.11 M30.14 -2.22 C29.34 -2.18, 28.54 -2.14, 27.89 -2.11 M27.89 -2.11 C27.37 -2.12, 26.85 -2.13, 25.61 -2.15 M27.89 -2.11 C27.12 -2.13, 26.35 -2.14, 25.61 -2.15 M25.61 -2.15 C24.7 -2.24, 23.79 -2.32, 23.33 -2.36 M25.61 -2.15 C24.99 -2.21, 24.36 -2.27, 23.33 -2.36 M23.33 -2.36 C22.55 -2.5, 21.78 -2.63, 21.08 -2.75 M23.33 -2.36 C22.75 -2.46, 22.17 -2.56, 21.08 -2.75 M21.08 -2.75 C20.23 -2.98, 19.37 -3.21, 18.91 -3.34 M21.08 -2.75 C20.6 -2.88, 20.12 -3.01, 18.91 -3.34 M18.91 -3.34 C18.31 -3.56, 17.72 -3.79, 16.84 -4.13 M18.91 -3.34 C18.47 -3.5, 18.03 -3.67, 16.84 -4.13 M16.84 -4.13 C16.19 -4.47, 15.55 -4.81, 14.91 -5.15 M16.84 -4.13 C16.08 -4.53, 15.33 -4.92, 14.91 -5.15 M14.91 -5.15 C14.4 -5.51, 13.88 -5.88, 13.17 -6.4 M14.91 -5.15 C14.39 -5.52, 13.87 -5.9, 13.17 -6.4 M13.17 -6.4 C12.67 -6.89, 12.17 -7.38, 11.64 -7.9 M13.17 -6.4 C12.77 -6.79, 12.38 -7.17, 11.64 -7.9 M11.64 -7.9 C11.68 -7.65, 11.72 -7.39, 11.79 -6.93 M11.64 -7.9 C11.67 -7.67, 11.71 -7.44, 11.79 -6.93 M11.79 -6.93 C11.77 -6.6, 11.75 -6.27, 11.73 -6.05 M11.79 -6.93 C11.78 -6.7, 11.76 -6.47, 11.73 -6.05 M11.73 -6.05 C11.67 -5.86, 11.61 -5.68, 11.47 -5.25 M11.73 -6.05 C11.66 -5.83, 11.59 -5.62, 11.47 -5.25 M11.47 -5.25 C11.34 -5.05, 11.22 -4.85, 11.02 -4.52 M11.47 -5.25 C11.33 -5.02, 11.19 -4.8, 11.02 -4.52 M11.02 -4.52 C10.85 -4.33, 10.68 -4.15, 10.43 -3.88 M11.02 -4.52 C10.88 -4.36, 10.73 -4.2, 10.43 -3.88 M10.43 -3.88 C10.17 -3.67, 9.92 -3.47, 9.7 -3.29 M10.43 -3.88 C10.2 -3.7, 9.98 -3.52, 9.7 -3.29 M9.7 -3.29 C9.18 -3, 8.66 -2.71, 7.93 -2.31 M9.7 -3.29 C9.03 -2.92, 8.36 -2.55, 7.93 -2.31 M7.93 -2.31 C7.32 -2.08, 6.71 -1.84, 5.89 -1.53 M7.93 -2.31 C7.51 -2.15, 7.09 -1.99, 5.89 -1.53 M5.89 -1.53 C5.19 -1.32, 4.48 -1.12, 3.78 -0.91 M5.89 -1.53 C5.34 -1.37, 4.78 -1.21, 3.78 -0.91 M3.78 -0.91 C3.1 -0.75, 2.42 -0.58, 1.75 -0.42 M3.78 -0.91 C3.08 -0.74, 2.39 -0.57, 1.75 -0.42 M1.75 -0.42 C1.3 -0.31, 0.84 -0.2, 0 0 M1.75 -0.42 C1.33 -0.32, 0.92 -0.22, 0 0 M0 0 C0 0, 0 0, 0 0 M0 0 C0 0, 0 0, 0 0" stroke="#00000000" stroke-width="1" fill="none"></path></g></g><g stroke-linecap="round" transform="translate(78.53422190631238 41.64855467253362) rotate(0 36.25692139035263 49.41090254665)"><path d="M-0.92 0.19 L71.86 -1.68 L73.99 99.91 L0.9 97.36" stroke="none" stroke-width="0" fill="#edf2f9"></path><path d="M-1.61 1.51 C25.36 -1.61, 53.16 1.21, 73.63 -1.85 M0.89 -0.35 C18.47 0.68, 35.5 0.62, 71.63 -0.9 M71.35 -0.12 C73.78 36.75, 71.41 77.92, 74.21 98.8 M72.28 -0.53 C72.32 20.94, 71.78 42.74, 72.48 98.93 M71.77 99.89 C45.07 97.58, 16.72 100.42, -1.36 97.48 M71.94 99.7 C54.97 99.48, 36.53 100.03, -0.68 99.53 M-1.75 100.19 C0.05 72.56, -1.7 44.62, 1.13 1.43 M-0.88 99.72 C-0.58 70.14, -1.44 41.15, -0.2 0.53" stroke="#000000" stroke-width="4" fill="none"></path></g><g stroke-linecap="round" transform="translate(69.76426562101244 52.68801929823046) rotate(0 36.25692139035263 49.41090254665)"><path d="M0.19 -0.66 L70.84 1.48 L73.61 99.72 L-1.46 100.2" stroke="none" stroke-width="0" fill="#edf2f9"></path><path d="M1.51 -0.55 C17.23 1.93, 38.88 1.7, 70.66 -1.16 M-0.35 0.92 C26.59 -0.24, 52.22 -1.53, 71.62 0.85 M72.4 0.57 C71.64 34.81, 74.73 74.91, 72.49 97.2 M71.99 0.47 C72.75 22.91, 72.94 45.93, 72.62 99.6 M73.58 98.75 C51.38 97.49, 35.01 97.19, -1.34 97.84 M73.39 99.47 C52.95 98.8, 33.52 97.73, 0.7 98.62 M1.36 99.32 C0.46 63.49, 0.2 31.8, 1.43 -0.23 M0.9 98.71 C-0.01 63.53, -0.47 29.97, 0.53 -0.46" stroke="#000000" stroke-width="4" fill="none"></path></g><g stroke-linecap="round" transform="translate(63.63428428908958 62.12554746715493) rotate(0 36.25692139035263 49.41090254665)"><path d="M-0.66 -1.68 L73.99 1.09 L73.41 97.36 L1.38 98.87" stroke="none" stroke-width="0" fill="#edf2f9"></path><path d="M-0.55 -1.59 C23.26 0.68, 44.94 -2.4, 71.35 1.09 M0.92 0.89 C24.26 1.08, 46.82 -0.64, 73.37 0.7 M73.09 -1.34 C70.14 36.1, 73.63 68.69, 70.89 97.47 M72.99 -0.68 C72.22 38.29, 72.25 77.67, 73.29 98.47 M72.44 96.89 C42.82 100.11, 13.88 97.87, -0.98 98.33 M73.16 99.24 C48.7 100.42, 23.41 100.16, -0.2 99.27 M0.5 100.23 C-0.4 60.9, 1.99 22.13, -0.23 0.95 M-0.11 98.67 C-0.1 70.01, 0.67 42.97, -0.46 0.09" stroke="#000000" stroke-width="4" fill="none"></path></g><g stroke-linecap="round"><g transform="translate(80.07681144322635 101.06755336666286) rotate(0 19.39942345348331 0.07855705887079267)"><path d="M-0.33 -0.96 C6.35 -0.98, 32.57 0.76, 39.13 0.74 M1.7 1.16 C8.38 0.71, 32.46 -0.74, 38.6 -1" stroke="#000" stroke-width="4" fill="none"></path></g></g><g stroke-linecap="round"><g transform="translate(81.25318146171878 116.12966697258615) rotate(0 19.05023754936788 -0.10106296793706626)"><path d="M-0.96 0.81 C5.4 0.97, 32.7 0.92, 39.06 0.67 M0.74 0.19 C6.93 0.03, 32.03 -1.12, 38.49 -1.1" stroke="#000" stroke-width="4" fill="none"></path></g></g><g stroke-linecap="round"><g transform="translate(81.51447353330161 131.43484657374665) rotate(0 19.37975662023905 -0.18793922178447264)"><path d="M0.81 0.74 C7.36 0.71, 32.85 -1.1, 38.99 -1.11 M-0.23 0.08 C6.25 0.24, 32.27 0.08, 38.39 -0.16" stroke="#000" stroke-width="4" fill="none"></path></g></g><g transform="translate(58.4000701904298 168.5513717038093) rotate(0 52 12.5)"><text x="0" y="18" font-family="Virgil, Segoe UI Emoji" font-size="20px" fill="#000" text-anchor="start" style="white-space: pre;" direction="ltr">Documents</text></g></svg>