<svg version="1.1" xmlns="http://www.w3.org/2000/svg" viewBox="0 0 265 331.5" width="530" height="663">
  <!-- svg-source:excalidraw -->
  
  <defs>
    <style>
      @font-face {
        font-family: "Virgil";
        src: url("https://excalidraw.com/Virgil.woff2");
      }
      @font-face {
        font-family: "Cascadia";
        src: url("https://excalidraw.com/Cascadia.woff2");
      }
    </style>
  </defs>
  <rect x="0" y="0" width="265" height="331.5" fill="#ffffff"></rect><g transform="translate(11 214.25) rotate(0 122 18.5)"><path d="M0.9078075157198018 -0.7874262894409126 C89.65410964231091 2.9759962263747957, 182.72113982818624 1.1564228239583998, 244.01335489710726 -0.1209057359234996 M0.6563808495204593 -0.7518967979043688 C69.67888956258513 -1.2524557458532368, 140.00923998396544 -0.21359525709716454, 243.34700071959315 0.3099290807539854 M242.94169523380697 -1.4293689038604498 C242.90184517874383 13.59262757273391, 242.51173259987496 22.239938761852684, 245.71990486048162 38.52752030827105 M244.46114469040185 -0.08464961219578981 C244.1034260280151 9.563526350725443, 243.4567688889522 17.902447667345406, 243.55422381032258 36.93754808139056 M243.8470851904122 35.84472078703018 C187.45139992327498 37.53446156962474, 127.99394410668177 38.964638479752594, -0.8566678908086947 36.36347797349284 M243.50853957104533 36.47912432968994 C188.1341937186647 35.07306512459296, 132.99690891295424 34.669617475131105, -0.761156771779463 37.46505983353826 M1.3050097431987524 35.12531394697726 C-0.8325737181212753 20.942483724188058, 1.0908245977852493 6.583332471735773, -0.3160916958004236 1.937752017751336 M0.26961976755410433 37.815799604170024 C-0.5074911776650697 23.277402993198486, -0.6484586957562715 9.263186794519424, -0.10656037461012602 0.22415719460695982" stroke="#000000" stroke-width="1" fill="none"></path></g><g transform="translate(90 220.25) rotate(0 45.5 12.5)"><text x="0" y="18" font-family="Virgil, Segoe UI Emoji" font-size="20px" fill="#000000" text-anchor="start" style="white-space: pre;" direction="ltr">Hardware</text></g><g transform="translate(10 170.75) rotate(0 122 18.5)"><path d="M-1.1863136022995164 1.4085082000318816 C55.27801366790732 0.5495948707333991, 108.48879555499113 0.8397543371944137, 243.80090923675013 -1.5073176343497223 M-0.5828028417893621 -0.4404624143030967 C82.50873380977362 2.4330262613396356, 165.39275798870744 2.1445572676406455, 244.1500466756302 -0.07103825449430606 M242.93364175222814 1.821021804586053 C242.34774279161357 8.872740611154587, 245.52411847873591 21.879547079466285, 242.93280055187643 38.215439626947045 M243.8785696970299 0.43784532975405455 C243.4025360934157 7.950615492928774, 243.72484734577128 16.53660781644285, 243.383436803706 36.87795169185847 M245.60725793370116 36.31192888890074 C156.31638824200493 36.33266515920541, 67.16478833813295 34.95403733366966, -1.192495127015727 37.60865662384134 M243.7345952628631 36.8340640653809 C192.30093974821025 35.15967978036249, 139.4452987219389 36.1941231979817, 0.8085959254174139 36.69192942398806 M-0.9704654607921839 35.66174210049212 C0.7115060526225716 23.64495389861986, -0.5575184982921928 14.183961366303265, 1.227648874744773 -0.16116719506680965 M-0.5373071087524295 36.648553411476314 C-0.7780339408386499 24.353582810517402, -0.2063196886051446 13.920347553491592, 0.29194087255746126 0.2778592212125659" stroke="#2b8a3e" stroke-width="1" fill="none"></path></g><g transform="translate(93 176.25) rotate(0 40 12.5)"><text x="0" y="18" font-family="Virgil, Segoe UI Emoji" font-size="20px" fill="#2b8a3e" text-anchor="start" style="white-space: pre;" direction="ltr">Host OS</text></g><g transform="translate(13.5 10) rotate(0 24 77.5)"><path d="M-0.5496279504150152 0.9092055168002844 C16.41913233883679 -1.9672397124022245, 31.399193668738008 -0.9686212884634733, 47.389873871579766 0.601655026897788 M0.3316639168187976 -0.25107123982161283 C11.315710690431297 -1.1327097081765531, 22.279931528680027 -0.7464832031354308, 48.26850012969226 0.7697603749111295 M49.84973324276507 0.47336151264607906 C49.138544297358024 30.989805490244173, 47.85611335053109 63.36295990180223, 48.338072726503015 154.10858102701602 M48.06744388770312 -0.41609668266028166 C48.242871090071276 32.737501876894385, 48.64054150809534 66.12560227513313, 47.030627260915935 154.40851167310026 M48.803898284211755 155.97407718561587 C31.998360188677907 156.2653877893835, 15.418112391605973 155.20190675653515, -0.5118908789008856 153.51538457535204 M47.26079202722758 154.69194630254057 C33.23076156955212 155.688639662005, 19.381527735106644 155.51933752629904, 0.41655180882662535 154.3723638700321 M0.8441782090812922 156.32633056305346 C-1.8936286711599677 118.41277883527798, -1.4867018604185431 80.34312015864997, 0.6779347155243158 0.5866530742496252 M0.4209551615640521 154.92660385835913 C-2.3305646803695708 120.79079367918891, -1.2696080532390623 88.66640184260903, 0.3915752870962024 -0.26931657921522856" stroke="#a61e4d" stroke-width="1" fill="none"></path></g><g transform="translate(-6.059999999999718 63.439999999999486) rotate(90 46 24)"><text x="46" y="17" font-family="Virgil, Segoe UI Emoji" font-size="19.60000000000016px" fill="#a61e4d" text-anchor="middle" style="white-space: pre;" direction="ltr">Container</text><text x="46" y="41" font-family="Virgil, Segoe UI Emoji" font-size="19.60000000000016px" fill="#a61e4d" text-anchor="middle" style="white-space: pre;" direction="ltr">Engine</text></g><g transform="translate(72.5 12) rotate(0 88 75)"><path d="M-1.655155697837472 -0.0206903126090765 C44.26385865919292 2.104619721099734, 85.77389741502702 1.5226663743704556, 176.29202022217214 0.1081444714218378 M176.87159259058535 0.6459401454776525 C175.39867524942383 47.308832134120166, 176.63873003562912 92.80676707625389, 177.01527989841998 150.5759766306728 M176.48931874893606 149.90532989241183 C130.46137158684434 152.39717389427125, 90.11471981965005 152.23231763921677, -0.22583786584436893 148.58037782646716 M0.0010792110115289688 150.09459473751485 C-1.2486640340648592 93.4220661977306, 2.4385781758464873 40.655320357531295, 1.5937506649643183 -0.06165150739252567" stroke="#000000" stroke-width="1.5" fill="none" stroke-dasharray="3 6"></path></g><g transform="translate(173.5 108) rotate(0 30.5 26)"><path d="M-1.8652127292007208 0.3163487520068884 C20.32279948322102 -1.0297491831239314, 43.47267425972967 -0.5534886998590083, 62.338079223409274 -1.5778068099170923 M0.5824290616437793 0.43323460686951876 C24.114517599251116 0.8787792194169015, 45.98060100227593 -0.345855100126937, 61.763743500225225 0.6624993728473783 M60.6437943074852 1.5950166191905737 C61.70443999867884 11.633052649348976, 58.76950126986949 24.24325321502984, 61.13164169527588 50.476272663101554 M60.748890261165776 0.6817967342212796 C60.35592667944727 15.32736049797386, 62.10667593963442 31.754972487129272, 60.76154453586785 51.51629087794572 M59.10836202837525 52.74347170256078 C37.4730414723046 51.65619327000342, 12.943260238133362 52.220500780856234, -1.069857707247138 52.898613473400474 M60.68133027385918 51.49364945758134 C39.69149464042856 51.40927746449597, 17.583932681009166 51.81380688701756, 0.14663175772875547 52.06157732475549 M-1.6316047813743353 52.805598279461265 C-1.078705395720899 34.98543482124805, 0.9435358986631036 16.9199310157448, 0.25512642599642277 -0.7922907266765833 M0.6409490508958697 51.25163579452783 C-0.17641817316412928 38.937674473039806, -0.12480946168303492 24.272521630860865, -0.5512401955202222 -0.9154779566451907" stroke="#0b7285" stroke-width="1" fill="none"></path></g><g transform="translate(186.5 112) rotate(0 19.5 25)"><text x="0" y="18" font-family="Virgil, Segoe UI Emoji" font-size="20px" fill="#0b7285" text-anchor="start" style="white-space: pre;" direction="ltr">Bins</text><text x="0" y="43" font-family="Virgil, Segoe UI Emoji" font-size="20px" fill="#0b7285" text-anchor="start" style="white-space: pre;" direction="ltr">Libs</text></g><g transform="translate(84 108) rotate(0 36 26)"><path d="M-1.3769255671650171 -1.5740526225417852 C18.538758057728398 1.1964396107196804, 41.22655739001927 0.20483164668083154, 72.05272372625764 1.0269901845604181 M0.19348079431802034 -0.48857747483998537 C28.11222809646277 0.8719695632532238, 57.29312616307285 -0.5949945325776935, 72.99822411406781 -0.7237898306921124 M71.13223966024812 0.34063983894884586 C71.0262540550902 15.21227612271905, 72.97542637307193 31.00286725573242, 73.79353835247453 51.88981229998171 M71.9947172151878 0.9946943325921893 C72.80155036441978 17.932386759854854, 71.03848869197067 37.719180253706874, 72.32159054744984 51.49731595348567 M70.88979317806657 53.20649845339358 C42.530430673435305 50.21207771137357, 13.610053993388995 51.12552574709058, -0.6269877348095179 50.67505300976336 M72.13918197620656 52.45317346882075 C51.394710012711556 52.16750690434128, 31.66196156758813 51.26086270902306, 0.5236162291839719 51.47899893950671 M0.8595411386340857 50.91030300594866 C-0.8648863521590829 32.73093285262584, -0.6286923972144723 14.50872555635869, -0.08293900825083256 0.4511327240616083 M0.3778821574524045 52.749622385017574 C-1.1924880601465702 34.83460512626916, 0.7557673297822476 17.838452117703852, -0.5851214481517673 -0.39742373395711184" stroke="#495057" stroke-width="1" fill="none"></path></g><g transform="translate(100 110) rotate(0 19.5 25)"><text x="0" y="18" font-family="Virgil, Segoe UI Emoji" font-size="20px" fill="#495057" text-anchor="start" style="white-space: pre;" direction="ltr">Bins</text><text x="0" y="43" font-family="Virgil, Segoe UI Emoji" font-size="20px" fill="#495057" text-anchor="start" style="white-space: pre;" direction="ltr">Libs</text></g><g transform="translate(69.47247966996963 48.99981064889539) rotate(270.7884242624401 26 12.5)"><text x="26" y="18" font-family="Virgil, Segoe UI Emoji" font-size="20px" fill="#e67700" text-anchor="middle" style="white-space: pre;" direction="ltr">APP 1</text></g><g transform="translate(56.500094675552646 48.98623983498533) rotate(270.7884242624401 38 10.5)"><path d="M0.06277056597173214 1.99799002148211 C26.203059061616663 0.6709583352133632, 49.747116096690306 0.26296281319111586, 76.94180836342275 -1.968489220365882 M-0.3998762024566531 -0.4241687851026654 C20.16458043958992 0.8978911066800356, 38.3897168988362 0.6279971326142549, 75.9056825088337 -0.7996160881593823 M74.62439741753042 -1.7122583892196417 C75.60177457480691 4.752442441601307, 76.21077317147515 11.46049997713417, 75.8647843208164 22.00395012833178 M76.65447205770761 0.020697603933513165 C75.23226951059885 8.439956029225142, 75.97341640290804 16.40207162462175, 75.83479139674455 20.215512256138027 M75.20424898527563 21.302768239751458 C52.18561914861202 20.26937062237412, 29.49153421856463 20.58881879542023, -0.9455408845096827 22.795963833108544 M76.76039216388017 21.890142659656703 C49.58960995506496 21.976139031797647, 22.295877192355697 22.38955079808831, -0.931323523633182 21.082190702669322 M0.5962095465511084 20.63102156855166 C0.9501221986208112 16.82792170299217, 1.736645361939445 9.989980299957097, -0.22067360021173954 -0.13535582087934017 M0.4257271336391568 21.27446789573878 C0.9457231829594821 16.30329248374328, -0.2218690146971494 13.00919055044651, 0.5185010777786374 0.56552545260638" stroke="#e67700" stroke-width="1" fill="none"></path></g><g transform="translate(97.5 49.51357081390995) rotate(270.7884242624401 26 12.5)"><text x="26" y="18" font-family="Virgil, Segoe UI Emoji" font-size="20px" fill="#e67700" text-anchor="middle" style="white-space: pre;" direction="ltr">APP 1</text></g><g transform="translate(84.5276150055829 49.499999999999886) rotate(270.7884242624401 38 10.5)"><path d="M-0.5981352124363184 -0.5848395135253668 C22.009306033700707 1.4158194242045283, 39.66706122942269 0.5602855263277888, 76.5953499879688 -1.8607307579368353 M0.683362846262753 0.6079519493505359 C25.777764897607266 0.29170314081013204, 51.50010140482336 0.524921006038785, 76.5012382613495 -0.7278863983228803 M76.1243593301624 -1.0507737305015326 C73.89552564202808 8.389099128264935, 76.15558434306644 14.393556719087066, 75.69097342155874 19.978032061830163 M76.66629520524293 0.735852281562984 C76.13962513116188 6.320607404876501, 76.81276455429382 14.348640840873124, 75.15919369924814 20.439056406728923 M77.5462919678539 22.059580275788903 C46.94174259603023 21.306924880482256, 21.82781479097902 22.548585654236376, -1.8494753036648035 20.977616796270013 M76.29525131452829 21.07620359491557 C55.37031372021883 21.44562387123704, 33.498664585687216 22.535670426040888, -0.7572555793449283 21.51592944096774 M0.736937602981925 21.71503354050219 C-0.7629581446852535 12.481905728112906, -0.5056727285590022 4.703133155591786, -0.9196119103580713 1.4134751055389643 M-0.7002461208030581 21.419502715580165 C-0.03034986247308552 12.794509110506624, 0.2626759589742869 5.194275751709938, 0.6034834431484342 0.7492842180654407" stroke="#e67700" stroke-width="1" fill="none"></path></g><g transform="translate(123.5 51.51357081390995) rotate(270.7884242624401 26 12.5)"><text x="26" y="18" font-family="Virgil, Segoe UI Emoji" font-size="20px" fill="#e67700" text-anchor="middle" style="white-space: pre;" direction="ltr">APP 1</text></g><g transform="translate(110.5276150055829 51.499999999999886) rotate(270.7884242624401 38 10.5)"><path d="M1.3969804737716913 1.64444943331182 C27.289929870516062 0.24884950716048482, 56.568081675097346 -1.4718657175824046, 75.78079915978014 -1.0437582526355982 M-0.41759072709828615 0.4780122386291623 C25.761241571046412 -0.5439548075944185, 51.78505506273359 -0.03619014032185075, 76.82836757134646 0.13103646505624056 M77.29903865791857 1.8950563874095678 C76.1857140825782 3.1511692824773494, 77.72289754615166 9.282669369317592, 75.15637762285769 22.50423296354711 M76.91721306275576 0.7917522834613919 C76.79682728755287 4.651880809199065, 75.93736994373612 10.85728998221457, 75.99768502544612 21.253863309510052 M76.16202862001956 22.28351696394384 C52.05518499910831 21.69056269612163, 25.945970543846485 20.994417936466633, -0.4733596947044134 19.454176923260093 M76.2067163689062 21.405843471176922 C47.68799896705895 21.326092678159476, 17.578166567347935 21.096321868747474, -0.1241781311109662 20.79743314255029 M-1.5647698547691107 19.994340440258384 C-0.2681826004479081 13.525380795169621, -1.1634675511810928 7.145553459040819, 0.5225076172500849 1.9651922788470984 M0.532431642524898 20.00781631935388 C0.4615346214640885 13.007639391068368, 0.6211984476912766 3.9538783639669397, 0.06284524034708738 -0.39740320574492216" stroke="#e67700" stroke-width="1" fill="none"></path></g><g transform="translate(155.49999999999977 49.513570813910064) rotate(270.7884242624401 32 12.5)"><text x="32" y="18" font-family="Virgil, Segoe UI Emoji" font-size="20px" fill="#364fc7" text-anchor="middle" style="white-space: pre;" direction="ltr">APP 2</text></g><g transform="translate(149.5276150055828 53.5) rotate(270.7884242624401 38.00000000000006 10.5)"><path d="M-0.5153032932430506 1.7947318647056818 C17.83628416880965 -1.030858764834702, 33.409633334353565 0.21054833155125374, 76.70269705913961 -0.11025827191770077 M-0.004036332480609417 -0.8378051714971662 C29.653800450824203 0.9316142845898867, 58.80453140679747 1.5432873118668795, 76.1787635134533 -0.9064420955255628 M76.17151047848165 -1.0176932122558355 C75.0019254991319 4.425880293268711, 75.92886766879819 9.331926714442671, 77.81494685076177 22.299433121457696 M76.81398189533502 -0.27993028331547976 C75.44269010660238 7.913478328753262, 74.99584299561567 15.439600067958235, 75.98695984948426 21.538894454948604 M76.03340931795537 21.701187023893 C44.794645676016806 22.00844414446503, 15.706232604756948 21.418945326544346, 0.4171620812267065 21.830822894349694 M76.1041652308777 21.15985969733447 C51.31010404657573 21.26311289921403, 26.408900413848464 20.030625846534967, -0.4189274860545993 20.951320658437908 M0.2744337525218725 20.191667983308434 C0.9566416634712368 13.365790184866636, -0.20476074083708226 8.591374559886752, 0.8129926528781652 -0.031652918085455894 M0.5130285667255521 21.401944409124553 C0.07038751642219723 14.184014821704476, 0.3731265107821673 7.31192092001438, 0.6984367119148374 0.238520841114223" stroke="#364fc7" stroke-width="1" fill="none"></path></g><g transform="translate(182.49999999999955 49.51357081391018) rotate(270.7884242624401 32 12.5)"><text x="32" y="18" font-family="Virgil, Segoe UI Emoji" font-size="20px" fill="#364fc7" text-anchor="middle" style="white-space: pre;" direction="ltr">APP 2</text></g><g transform="translate(176.52761500558245 53.500000000000114) rotate(270.7884242624401 38 10.5)"><path d="M0.3065702524036169 -1.5473462250083685 C21.76254793033004 0.08608014803379771, 43.835673053935174 -0.5054328300431371, 75.4883576836437 -1.486252835020423 M0.5422460185363889 0.7575607700273395 C27.155652760528028 -0.8601332043856382, 52.881643616594374 -0.9133905207365751, 76.21828049886972 0.6179609401151538 M76.09611763618886 -0.3055835273116827 C77.07523130326531 7.111847649235279, 76.41877274661324 12.645194124244155, 77.21200807951391 21.842006215825677 M76.97421116102487 0.1469538314267993 C75.68733337578364 7.728225334454328, 75.75469029006548 13.919980960711838, 76.42222306597978 20.129617909900844 M76.19148739241064 20.287919053807855 C53.96606729924679 19.324258079268038, 32.55982101894915 20.515852858759462, -1.6194200310856104 21.97567946650088 M76.65379307139665 20.24534938763827 C49.5708863241598 21.56865699902177, 21.92630831990391 20.381810891777278, -0.9433257533237338 21.72256131004542 M0.6521887984126806 22.805488178506494 C0.9273524589929729 13.698609688412397, -1.7791205935087056 5.648198254592716, 0.028192004188895226 0.8562342021614313 M-0.16897773277014494 20.27586145233363 C-1.0471725036669521 15.716282886918634, -0.6107226481009275 10.04202975332737, -0.4750151289626956 0.5447098417207599" stroke="#364fc7" stroke-width="1" fill="none"></path></g><g transform="translate(44.5 278.5) rotate(0 89 21.5)"><text x="89" y="30" font-family="Virgil, Segoe UI Emoji" font-size="33.489655172413784px" fill="#000000" text-anchor="middle" style="white-space: pre;" direction="ltr">Containers</text></g></svg>