<svg version="1.1" xmlns="http://www.w3.org/2000/svg" viewBox="0 0 592.9000000000001 406.5" width="592.9000000000001" height="406.5">
  <!-- svg-source:excalidraw -->
  
  <defs>
    <style>
      @font-face {
        font-family: "Virgil";
        src: url("https://excalidraw.com/Virgil.woff2");
      }
      @font-face {
        font-family: "Cascadia";
        src: url("https://excalidraw.com/Cascadia.woff2");
      }
    </style>
  </defs>
  <rect x="0" y="0" width="592.9000000000001" height="406.5" fill="#ffffff"></rect><g transform="translate(23.40000000000009 289) rotate(0 122 18.5)"><path d="M-1.4603141696473305 1.283921753695399 C75.48472031765928 -0.476603717683444, 154.50588545357962 -0.18702476536813734, 242.5867300916696 0.5650293838590926 M-0.38502173670721906 0.6725906058263923 C56.553189185672956 0.4113493559167605, 113.35059226815177 0.16401847596672592, 244.67381712025963 -0.5998983477810356 M242.31360829807818 0.18615653179585934 C245.7090047121141 9.18449542997405, 242.95537472964264 16.7853943714872, 244.63053817488253 37.70823975466192 M243.7059039277956 -0.31150137912482023 C243.15324877711944 9.710533533524723, 244.53731216999702 19.900786105170848, 244.31967247556895 37.91006818879396 M244.64065324111178 35.91146410694614 C172.70072653331076 38.35266401863577, 103.49171968520749 36.41655311590194, -0.8985032515889114 37.224228951649934 M243.66907531325722 36.82532143987874 C149.12301912575842 35.647072505784536, 55.086353015081905 35.869477393312685, -0.2537729919638838 36.1983713113621 M-0.499487629160285 38.23265280388296 C1.1937679923977704 27.52675022529438, -1.2323206387553363 21.582465307228265, 0.5774100515991449 0.16060074232518673 M0.4865010781213641 36.893541996367276 C-1.1873990417551248 25.062348859850317, -0.08023498664610085 13.21535238623619, 0.5371497375890613 0.7549831615760922" stroke="#000000" stroke-width="1" fill="none"></path></g><g transform="translate(102.40000000000009 295) rotate(0 45.5 12.5)"><text x="0" y="18" font-family="Virgil, Segoe UI Emoji" font-size="20px" fill="#000000" text-anchor="start" style="white-space: pre;" direction="ltr">Hardware</text></g><g transform="translate(22.40000000000009 245.5) rotate(0 122 18.5)"><path d="M-1.6189017857499293 0.7393528651580147 C73.64557763352917 1.9485415723393045, 151.1614231539626 1.643529280447658, 242.37050287030107 -1.5014580974065725 M0.386096158417442 -0.06053783165391347 C61.397980245357914 0.47398798247654506, 121.9669345026868 0.27034126006814313, 244.7990403038842 -0.30525920641085763 M245.1135841216892 1.8191380593925714 C243.45150890036487 12.913222309667617, 245.3099143116083 25.002189143560827, 243.30726959370077 38.21055752970278 M244.12696025241166 0.4983441634103656 C243.88255905193276 8.068126515019685, 243.63198288363404 17.42756169103086, 243.40144634712487 36.21662206482142 M243.56783024514212 36.68957605474098 C182.2073325272313 38.2598508013138, 119.47753645017207 36.58998481332383, 1.2971683356062478 36.67989764919391 M243.78452273129807 36.41581608903045 C174.4724413327783 37.003807839290914, 104.01314573128269 37.980793856814, -0.6522930998777958 36.679307798911715 M-0.8647265825420618 35.783134112134576 C0.4424851411674172 28.022876493167132, 0.5893770331237466 18.092584465630352, -0.7704254183918238 -1.2053711917251348 M-0.5268392218276858 37.943923155777156 C-0.19534767274744813 27.166422330494967, -0.13768295054323976 16.474900013208387, 0.4985414193943143 -0.9071444170549512" stroke="#2b8a3e" stroke-width="1" fill="none"></path></g><g transform="translate(105.40000000000009 251) rotate(0 40 12.5)"><text x="0" y="18" font-family="Virgil, Segoe UI Emoji" font-size="20px" fill="#2b8a3e" text-anchor="start" style="white-space: pre;" direction="ltr">Host OS</text></g><g transform="translate(338.9000000000001 289.25) rotate(0 122 18.5)"><path d="M0.9078075157198018 -0.7874262894409126 C89.65410964231091 2.9759962263747957, 182.72113982818624 1.1564228239583998, 244.01335489710726 -0.1209057359234996 M0.6563808495204593 -0.7518967979043688 C69.67888956258513 -1.2524557458532368, 140.00923998396544 -0.21359525709716454, 243.34700071959315 0.3099290807539854 M242.94169523380697 -1.4293689038604498 C242.90184517874383 13.59262757273391, 242.51173259987496 22.239938761852684, 245.71990486048162 38.52752030827105 M244.46114469040185 -0.08464961219578981 C244.1034260280151 9.563526350725443, 243.4567688889522 17.902447667345406, 243.55422381032258 36.93754808139056 M243.8470851904122 35.84472078703018 C187.45139992327498 37.53446156962474, 127.99394410668177 38.964638479752594, -0.8566678908086947 36.36347797349284 M243.50853957104533 36.47912432968994 C188.1341937186647 35.07306512459296, 132.99690891295424 34.669617475131105, -0.761156771779463 37.46505983353826 M1.3050097431987524 35.12531394697726 C-0.8325737181212753 20.942483724188058, 1.0908245977852493 6.583332471735773, -0.3160916958004236 1.937752017751336 M0.26961976755410433 37.815799604170024 C-0.5074911776650697 23.277402993198486, -0.6484586957562715 9.263186794519424, -0.10656037461012602 0.22415719460695982" stroke="#000000" stroke-width="1" fill="none"></path></g><g transform="translate(417.9000000000001 295.25) rotate(0 45.5 12.5)"><text x="0" y="18" font-family="Virgil, Segoe UI Emoji" font-size="20px" fill="#000000" text-anchor="start" style="white-space: pre;" direction="ltr">Hardware</text></g><g transform="translate(337.9000000000001 245.75) rotate(0 122 18.5)"><path d="M-1.1863136022995164 1.4085082000318816 C55.27801366790732 0.5495948707333991, 108.48879555499113 0.8397543371944137, 243.80090923675013 -1.5073176343497223 M-0.5828028417893621 -0.4404624143030967 C82.50873380977362 2.4330262613396356, 165.39275798870744 2.1445572676406455, 244.1500466756302 -0.07103825449430606 M242.93364175222814 1.821021804586053 C242.34774279161357 8.872740611154587, 245.52411847873591 21.879547079466285, 242.93280055187643 38.215439626947045 M243.8785696970299 0.43784532975405455 C243.4025360934157 7.950615492928774, 243.72484734577128 16.53660781644285, 243.383436803706 36.87795169185847 M245.60725793370116 36.31192888890074 C156.31638824200493 36.33266515920541, 67.16478833813295 34.95403733366966, -1.192495127015727 37.60865662384134 M243.7345952628631 36.8340640653809 C192.30093974821025 35.15967978036249, 139.4452987219389 36.1941231979817, 0.8085959254174139 36.69192942398806 M-0.9704654607921839 35.66174210049212 C0.7115060526225716 23.64495389861986, -0.5575184982921928 14.183961366303265, 1.227648874744773 -0.16116719506680965 M-0.5373071087524295 36.648553411476314 C-0.7780339408386499 24.353582810517402, -0.2063196886051446 13.920347553491592, 0.29194087255746126 0.2778592212125659" stroke="#2b8a3e" stroke-width="1" fill="none"></path></g><g transform="translate(420.9000000000001 251.25) rotate(0 40 12.5)"><text x="0" y="18" font-family="Virgil, Segoe UI Emoji" font-size="20px" fill="#2b8a3e" text-anchor="start" style="white-space: pre;" direction="ltr">Host OS</text></g><g transform="translate(22.40000000000009 199.5) rotate(0 122 18.5)"><path d="M1.4444833248327544 -1.644076598103564 C86.03599932925361 1.8955134547108932, 174.23713829864562 2.4282197329035804, 243.5262801650361 1.09495365812977 M0.06327999205257034 -0.6537244303762528 C65.53444162920403 2.0230350337133034, 130.82700554210356 2.27388954879577, 244.25962244523294 0.45148583939507264 M245.37558914162219 1.063455244526267 C242.32890848220325 12.569056175928562, 246.08346865476108 25.26547398660332, 243.47880823351443 38.552239974960685 M243.79903517197818 -0.7732134414836764 C244.13145539912395 11.784902123641224, 244.85300696644 23.225895992293957, 243.07565886806697 36.129220460541546 M244.1298367609184 38.458502292467124 C156.67075373654328 40.23329614919581, 68.41940282259831 39.88379593747608, -0.6207996123685307 37.54668095865072 M243.8943681625813 36.72902236155421 C180.74192822002647 36.67980281147693, 117.43788332775588 37.63762678725047, 0.3525074184662852 37.434873586055 M-0.1776114609092474 35.51717044971883 C-1.8406258194241674 23.007903314102442, 0.9795128138270229 13.84069817494601, 0.6496867630630732 1.0297398176044226 M-0.5130228595808148 36.873545174486935 C-0.0966885657142848 28.852649330440908, 0.09808573414571581 20.347017043828963, -0.424152840860188 -0.281781162135303" stroke="#5f3dc4" stroke-width="1" fill="none"></path></g><g transform="translate(99.40000000000009 207) rotate(0 48 12.5)"><text x="0" y="18" font-family="Virgil, Segoe UI Emoji" font-size="20px" fill="#5f3dc4" text-anchor="start" style="white-space: pre;" direction="ltr">Hypervisor</text></g><g transform="translate(341.4000000000001 85) rotate(0 24 77.5)"><path d="M-0.5496279504150152 0.9092055168002844 C16.41913233883679 -1.9672397124022245, 31.399193668738008 -0.9686212884634733, 47.389873871579766 0.601655026897788 M0.3316639168187976 -0.25107123982161283 C11.315710690431297 -1.1327097081765531, 22.279931528680027 -0.7464832031354308, 48.26850012969226 0.7697603749111295 M49.84973324276507 0.47336151264607906 C49.138544297358024 30.989805490244173, 47.85611335053109 63.36295990180223, 48.338072726503015 154.10858102701602 M48.06744388770312 -0.41609668266028166 C48.242871090071276 32.737501876894385, 48.64054150809534 66.12560227513313, 47.030627260915935 154.40851167310026 M48.803898284211755 155.97407718561587 C31.998360188677907 156.2653877893835, 15.418112391605973 155.20190675653515, -0.5118908789008856 153.51538457535204 M47.26079202722758 154.69194630254057 C33.23076156955212 155.688639662005, 19.381527735106644 155.51933752629904, 0.41655180882662535 154.3723638700321 M0.8441782090812922 156.32633056305346 C-1.8936286711599677 118.41277883527798, -1.4867018604185431 80.34312015864997, 0.6779347155243158 0.5866530742496252 M0.4209551615640521 154.92660385835913 C-2.3305646803695708 120.79079367918891, -1.2696080532390623 88.66640184260903, 0.3915752870962024 -0.26931657921522856" stroke="#a61e4d" stroke-width="1" fill="none"></path></g><g transform="translate(321.8400000000004 138.4399999999995) rotate(90 46 24)"><text x="46" y="17" font-family="Virgil, Segoe UI Emoji" font-size="19.60000000000016px" fill="#a61e4d" text-anchor="middle" style="white-space: pre;" direction="ltr">Container</text><text x="46" y="41" font-family="Virgil, Segoe UI Emoji" font-size="19.60000000000016px" fill="#a61e4d" text-anchor="middle" style="white-space: pre;" direction="ltr">Engine</text></g><g transform="translate(400.4000000000001 87) rotate(0 88 75)"><path d="M-1.655155697837472 -0.0206903126090765 C44.26385865919292 2.104619721099734, 85.77389741502702 1.5226663743704556, 176.29202022217214 0.1081444714218378 M176.87159259058535 0.6459401454776525 C175.39867524942383 47.308832134120166, 176.63873003562912 92.80676707625389, 177.01527989841998 150.5759766306728 M176.48931874893606 149.90532989241183 C130.46137158684434 152.39717389427125, 90.11471981965005 152.23231763921677, -0.22583786584436893 148.58037782646716 M0.0010792110115289688 150.09459473751485 C-1.2486640340648592 93.4220661977306, 2.4385781758464873 40.655320357531295, 1.5937506649643183 -0.06165150739252567" stroke="#000000" stroke-width="1.5" fill="none" stroke-dasharray="3 6"></path></g><g transform="translate(24.40000000000009 10) rotate(0 121 91.5)"><path d="M1.0627393664264775 0.8050895724993251 C50.35490798205282 0.5172542272096532, 99.66927238880237 -0.43835578065556113, 242.4292237927813 -0.2694362542945601 M243.5190094318241 0.10428358055651188 C242.58290708412417 71.23712319647893, 241.4821068679262 139.82260906789452, 242.35851552151144 184.90273887850344 M242.01601694992297 182.62364093200551 C179.3080767391479 185.5340404654456, 118.11575873553609 184.5207714246954, -0.07297591777967438 182.76536245733794 M-0.5836818013340235 184.0957678053528 C0.4180661978852003 115.69149677017703, -0.15241289709694694 45.74628068190066, 1.7081157770007849 0.45667160488665104" stroke="#000000" stroke-width="1.5" fill="none" stroke-dasharray="3 6"></path></g><g transform="translate(501.4000000000001 183) rotate(0 30.5 26)"><path d="M-1.8652127292007208 0.3163487520068884 C20.32279948322102 -1.0297491831239314, 43.47267425972967 -0.5534886998590083, 62.338079223409274 -1.5778068099170923 M0.5824290616437793 0.43323460686951876 C24.114517599251116 0.8787792194169015, 45.98060100227593 -0.345855100126937, 61.763743500225225 0.6624993728473783 M60.6437943074852 1.5950166191905737 C61.70443999867884 11.633052649348976, 58.76950126986949 24.24325321502984, 61.13164169527588 50.476272663101554 M60.748890261165776 0.6817967342212796 C60.35592667944727 15.32736049797386, 62.10667593963442 31.754972487129272, 60.76154453586785 51.51629087794572 M59.10836202837525 52.74347170256078 C37.4730414723046 51.65619327000342, 12.943260238133362 52.220500780856234, -1.069857707247138 52.898613473400474 M60.68133027385918 51.49364945758134 C39.69149464042856 51.40927746449597, 17.583932681009166 51.81380688701756, 0.14663175772875547 52.06157732475549 M-1.6316047813743353 52.805598279461265 C-1.078705395720899 34.98543482124805, 0.9435358986631036 16.9199310157448, 0.25512642599642277 -0.7922907266765833 M0.6409490508958697 51.25163579452783 C-0.17641817316412928 38.937674473039806, -0.12480946168303492 24.272521630860865, -0.5512401955202222 -0.9154779566451907" stroke="#0b7285" stroke-width="1" fill="none"></path></g><g transform="translate(514.4000000000001 187) rotate(0 19.5 25)"><text x="0" y="18" font-family="Virgil, Segoe UI Emoji" font-size="20px" fill="#0b7285" text-anchor="start" style="white-space: pre;" direction="ltr">Bins</text><text x="0" y="43" font-family="Virgil, Segoe UI Emoji" font-size="20px" fill="#0b7285" text-anchor="start" style="white-space: pre;" direction="ltr">Libs</text></g><g transform="translate(165.9000000000001 74) rotate(0 30.5 26)"><path d="M-0.4423231389373541 0.6197603549808264 C21.94671969143673 -1.2971976113971322, 44.00844051558523 1.0137148188892753, 60.07311404682693 -1.7118456158787012 M-0.6447504060342908 -0.746849681250751 C17.594877898599947 -0.28038185653276737, 32.825788666307915 0.36565223517827694, 60.985746542923124 -0.028626556508243084 M61.20063699223098 0.9482519831508398 C62.564414213709505 17.8180338524282, 62.47567070584741 34.55111795254052, 59.35597629286346 53.33163281343877 M61.85759679507461 -0.9451049519702792 C62.32839358218011 14.420837759040296, 61.653695378378 27.707439535297453, 60.62320555280891 51.75523964036256 M60.65938729979095 50.28434821031988 C47.51911270963026 52.79503281346522, 36.40613037105648 50.36855281821452, 1.2969749066978693 50.27572121284902 M60.16944087576118 52.08051386941224 C45.202060821372996 53.37912930105813, 28.731273288652282 53.2877499863971, -0.6737655596807599 52.66266865003854 M-0.15194868110120296 53.28521456383169 C-1.5827833953127266 38.67592306435108, -2.1428136768564583 23.526491412892938, 0.36687404848635197 1.3771944846957922 M0.29612241219729185 52.12495917547494 C0.16615296140313152 39.4873039348051, -0.30790551766753194 28.36753676328808, 0.9312284691259265 -0.6705668224021792" stroke="#0b7285" stroke-width="1" fill="none"></path></g><g transform="translate(174.9000000000001 78) rotate(0 19.5 25)"><text x="0" y="18" font-family="Virgil, Segoe UI Emoji" font-size="20px" fill="#0b7285" text-anchor="start" style="white-space: pre;" direction="ltr">Bins</text><text x="0" y="43" font-family="Virgil, Segoe UI Emoji" font-size="20px" fill="#0b7285" text-anchor="start" style="white-space: pre;" direction="ltr">Libs</text></g><g transform="translate(411.9000000000001 183) rotate(0 36 26)"><path d="M-1.3769255671650171 -1.5740526225417852 C18.538758057728398 1.1964396107196804, 41.22655739001927 0.20483164668083154, 72.05272372625764 1.0269901845604181 M0.19348079431802034 -0.48857747483998537 C28.11222809646277 0.8719695632532238, 57.29312616307285 -0.5949945325776935, 72.99822411406781 -0.7237898306921124 M71.13223966024812 0.34063983894884586 C71.0262540550902 15.21227612271905, 72.97542637307193 31.00286725573242, 73.79353835247453 51.88981229998171 M71.9947172151878 0.9946943325921893 C72.80155036441978 17.932386759854854, 71.03848869197067 37.719180253706874, 72.32159054744984 51.49731595348567 M70.88979317806657 53.20649845339358 C42.530430673435305 50.21207771137357, 13.610053993388995 51.12552574709058, -0.6269877348095179 50.67505300976336 M72.13918197620656 52.45317346882075 C51.394710012711556 52.16750690434128, 31.66196156758813 51.26086270902306, 0.5236162291839719 51.47899893950671 M0.8595411386340857 50.91030300594866 C-0.8648863521590829 32.73093285262584, -0.6286923972144723 14.50872555635869, -0.08293900825083256 0.4511327240616083 M0.3778821574524045 52.749622385017574 C-1.1924880601465702 34.83460512626916, 0.7557673297822476 17.838452117703852, -0.5851214481517673 -0.39742373395711184" stroke="#495057" stroke-width="1" fill="none"></path></g><g transform="translate(427.9000000000001 185) rotate(0 19.5 25)"><text x="0" y="18" font-family="Virgil, Segoe UI Emoji" font-size="20px" fill="#495057" text-anchor="start" style="white-space: pre;" direction="ltr">Bins</text><text x="0" y="43" font-family="Virgil, Segoe UI Emoji" font-size="20px" fill="#495057" text-anchor="start" style="white-space: pre;" direction="ltr">Libs</text></g><g transform="translate(64.90000000000009 75) rotate(0 30.5 26)"><path d="M-0.08212368749082088 -0.19251886941492558 C19.067591592948876 -0.5745474529918284, 40.04672314841299 -1.4459928107913584, 59.215982565656276 -0.30557320453226566 M0.3552760584279895 -0.4693836225196719 C23.79448162307962 -0.234738529296592, 47.09581926017998 0.6004969173949211, 60.9234179658815 -0.6913689328357577 M59.80627406574783 1.6554277148097754 C62.02848219733682 19.054280915111306, 58.89870780568567 42.1518855649978, 60.32289571501312 51.499059399589896 M60.87345425318924 -0.48974430095404387 C60.66106503374872 12.807377933524549, 61.76628168590364 25.970715873874724, 60.86162007879463 52.2628234969452 M59.06954402662811 50.9597093667835 C38.237415650952585 52.27299006930552, 16.745567808113982 51.96591009846888, -1.52484773658216 50.07490744255483 M60.52705706190315 52.571435128338635 C36.780743363220225 52.441543243872005, 12.57374679557978 51.00567387794145, 0.6522573037073016 51.11230725515634 M-0.6750652696937323 53.92436661385 C-1.100670615695417 34.99053259193897, -0.9878645935282111 19.69575763680041, 0.34664137102663517 0.7256208267062902 M0.3448625607416034 52.86066955793649 C-0.22405345186591147 39.58634468149394, 0.48268183127045633 28.853589514829217, 0.9051624042913318 -0.9055824531242251" stroke="#495057" stroke-width="1" fill="none"></path></g><g transform="translate(73.90000000000009 79) rotate(0 19.5 25)"><text x="0" y="18" font-family="Virgil, Segoe UI Emoji" font-size="20px" fill="#495057" text-anchor="start" style="white-space: pre;" direction="ltr">Bins</text><text x="0" y="43" font-family="Virgil, Segoe UI Emoji" font-size="20px" fill="#495057" text-anchor="start" style="white-space: pre;" direction="ltr">Libs</text></g><g transform="translate(165.9000000000001 130) rotate(0 30.5 26)"><path d="M1.1236739847809076 0.8669193591922522 C11.68870448796078 1.379062607223168, 23.382467672415068 -1.3802459097560495, 60.55241073109207 -1.5815994534641504 M-0.1884224908426404 0.6579445349052548 C13.709628999140108 0.044340457348152784, 27.941248108446587 0.5753385383170095, 60.61164538096634 -0.2658153725787997 M62.39013875462112 -0.6121756825596094 C62.19892923217264 17.926867546886207, 61.44163714032617 38.576283319666985, 62.94608230330047 51.33886261843145 M60.892064969055326 -0.13187872897833586 C61.12262358553705 11.132460092566909, 62.01437740810213 21.998610323108736, 61.90390480589119 52.38888517487794 M60.21751088835296 52.46809168718755 C42.708545378316174 53.86829964867793, 24.6204268073663 50.838395581161606, -1.788242569193244 51.74294247291982 M60.41730321478096 52.643480692990124 C43.449394872505195 52.07384496782906, 26.851614208146913 52.08715620492585, 0.412613014690578 51.24283212888986 M1.2386639211326838 51.54613699577749 C-0.6612184729799628 30.70217886269093, 0.23715578649193048 12.627650890126823, 0.5389502737671137 -0.331334987655282 M-0.7167421774938703 52.13835019338876 C0.3462389446794987 42.04054957460612, 0.17203092947602272 30.11053936872631, -0.6352097289636731 -0.20882680546492338" stroke="#c92a2a" stroke-width="1" fill="none"></path></g><g transform="translate(168.9000000000001 133) rotate(0 29.5 25)"><text x="29.5" y="18" font-family="Virgil, Segoe UI Emoji" font-size="20px" fill="#c92a2a" text-anchor="middle" style="white-space: pre;" direction="ltr">Guest</text><text x="29.5" y="43" font-family="Virgil, Segoe UI Emoji" font-size="20px" fill="#c92a2a" text-anchor="middle" style="white-space: pre;" direction="ltr">OS</text></g><g transform="translate(64.40000000000009 131.5) rotate(0 30.5 26)"><path d="M1.961956998333335 1.626266548410058 C21.888102875370524 1.3074446510430424, 40.930236530117675 0.22898747435770905, 62.97277160547671 -0.34183203242719173 M0.34281373489648104 -0.03820281196385622 C16.461249949131155 -1.0495870767813176, 33.96970558017491 -0.15760532605461763, 60.72242239583281 -0.9485307531431317 M61.68555780313906 0.560715327039361 C59.10100533444432 11.795755002647638, 59.18664844710377 26.72892433218658, 59.877362629398675 53.171483704820275 M60.276547943241866 0.24576822947710752 C60.19357900612054 17.831653181649745, 61.29236616484818 34.78037211056799, 60.03467089403418 52.59872592519969 M61.91450490616259 52.066325375810266 C49.78749032123012 53.63123574757017, 36.73239613119511 52.0801490237657, 0.8346021976321936 51.082681903615594 M61.263898675329955 52.65295685362071 C43.1588643687777 51.449106714231895, 24.486390982940776 51.99454801390879, -0.07379880081862211 51.65808568429202 M-0.7116142902523279 53.66659522987902 C0.6124538239464163 38.80093044936657, 1.3667103704437613 26.75754083059728, -0.228812912479043 -1.028098275884986 M-0.063267613761127 52.00901613663882 C-0.5350915433466434 35.44360374677926, 0.7736699043214321 17.330319767259063, 0.5259500788524747 0.13625628780573606" stroke="#087f5b" stroke-width="1" fill="none"></path></g><g transform="translate(67.40000000000009 134.5) rotate(0 29.5 25)"><text x="29.5" y="18" font-family="Virgil, Segoe UI Emoji" font-size="20px" fill="#087f5b" text-anchor="middle" style="white-space: pre;" direction="ltr">Guest</text><text x="29.5" y="43" font-family="Virgil, Segoe UI Emoji" font-size="20px" fill="#087f5b" text-anchor="middle" style="white-space: pre;" direction="ltr">OS</text></g><g transform="translate(63.90000000000009 20) rotate(0 30.5 26)"><path d="M-1.2727678325027227 -1.776042738929391 C20.46156159965321 -0.49963547891937204, 41.508827814646054 -0.6962418169435114, 60.48306013084945 -1.2044237647205591 M-0.7150255339220166 -0.9975479496642947 C21.507303935196244 -0.20806501266546557, 44.126372410356986 -0.6259290075022728, 60.12471328210083 -0.9651597095653415 M62.23030353523788 -0.018050530925393105 C61.611670690588625 20.119727339595556, 58.99876870494333 40.36140802688897, 59.94988615252075 53.9544683303684 M61.53265057038513 -0.4243169380351901 C60.630764077976316 15.012767802737654, 60.611486177518934 32.415250378288334, 60.47741086315361 52.099775289185345 M59.07516605593261 50.34068592451513 C40.40705824838949 53.69815952948294, 20.539313981495788 53.115967406546694, 0.22975576855242252 50.54070379398763 M60.43522150348869 51.577194903977215 C48.62104917438698 52.47205887232907, 34.330019659921504 52.677987525807694, 0.020373146049678326 51.43213296402246 M1.6485995147377253 51.54717590473592 C1.9481816110387444 34.84520273506641, 0.0004674610868096174 14.585877499356862, 0.8910893891006708 1.7759012784808874 M-0.3945502834394574 52.66326809395105 C0.2900168778002262 35.28793411087244, -0.41521797761321066 17.916633216477926, -0.11508273053914309 0.8415141450241208" stroke="#e67700" stroke-width="1" fill="none"></path></g><g transform="translate(72.90000000000009 24) rotate(0 19.5 25)"><text x="19.5" y="18" font-family="Virgil, Segoe UI Emoji" font-size="20px" fill="#e67700" text-anchor="middle" style="white-space: pre;" direction="ltr">APP</text><text x="19.5" y="43" font-family="Virgil, Segoe UI Emoji" font-size="20px" fill="#e67700" text-anchor="middle" style="white-space: pre;" direction="ltr">1</text></g><g transform="translate(165.9000000000001 18) rotate(0 30.5 26)"><path d="M-0.23016546107828617 1.6830282900482416 C21.390517912525677 -0.37855927714146675, 38.0187906263396 0.829146876251325, 60.33866306208071 0.6046696994453669 M0.49041152466088533 0.6547069055959582 C17.690778900776053 -0.32332949030213054, 36.1088024124503 0.1802092672605068, 60.7606909619644 0.3134249849244952 M61.394955119118066 0.8785549495369196 C61.68340735394505 11.408990094810726, 59.54392229277638 24.480328331515196, 61.380125423893304 53.03433675505221 M61.29345420468596 -0.6720856027677655 C60.5960611914843 16.36341730747372, 60.95511751525101 33.19192997571081, 61.84800965059546 52.27384389471263 M62.59671106003222 50.8395788166672 C39.625345135759545 53.981851721042766, 14.930001168884331 50.60169395231642, -0.29822460748255253 52.3999722097069 M60.700406377203734 52.31623400282115 C46.5030191558413 53.35072453211062, 29.409579573944193 52.54971502612345, -0.2632218850776553 52.01638541650027 M-0.07906023599207401 51.68334842659533 C-1.0744067374244333 31.843455168604848, -1.8987939897552133 9.35611050985753, -1.863440254703164 1.8754652235656977 M-0.8599905027076602 51.39844379853457 C0.6983835695683956 40.884640257246794, 0.7097969947755337 27.909390907548367, -0.147191877476871 0.9008823139593005" stroke="#364fc7" stroke-width="1" fill="none"></path></g><g transform="translate(174.9000000000001 22) rotate(0 19.5 25)"><text x="19.5" y="18" font-family="Virgil, Segoe UI Emoji" font-size="20px" fill="#364fc7" text-anchor="middle" style="white-space: pre;" direction="ltr">APP</text><text x="19.5" y="43" font-family="Virgil, Segoe UI Emoji" font-size="20px" fill="#364fc7" text-anchor="middle" style="white-space: pre;" direction="ltr">2</text></g><g transform="translate(397.3724796699697 123.99981064889539) rotate(270.7884242624401 26 12.5)"><text x="26" y="18" font-family="Virgil, Segoe UI Emoji" font-size="20px" fill="#e67700" text-anchor="middle" style="white-space: pre;" direction="ltr">APP 1</text></g><g transform="translate(384.40009467555274 123.98623983498533) rotate(270.7884242624401 38 10.5)"><path d="M0.06277056597173214 1.99799002148211 C26.203059061616663 0.6709583352133632, 49.747116096690306 0.26296281319111586, 76.94180836342275 -1.968489220365882 M-0.3998762024566531 -0.4241687851026654 C20.16458043958992 0.8978911066800356, 38.3897168988362 0.6279971326142549, 75.9056825088337 -0.7996160881593823 M74.62439741753042 -1.7122583892196417 C75.60177457480691 4.752442441601307, 76.21077317147515 11.46049997713417, 75.8647843208164 22.00395012833178 M76.65447205770761 0.020697603933513165 C75.23226951059885 8.439956029225142, 75.97341640290804 16.40207162462175, 75.83479139674455 20.215512256138027 M75.20424898527563 21.302768239751458 C52.18561914861202 20.26937062237412, 29.49153421856463 20.58881879542023, -0.9455408845096827 22.795963833108544 M76.76039216388017 21.890142659656703 C49.58960995506496 21.976139031797647, 22.295877192355697 22.38955079808831, -0.931323523633182 21.082190702669322 M0.5962095465511084 20.63102156855166 C0.9501221986208112 16.82792170299217, 1.736645361939445 9.989980299957097, -0.22067360021173954 -0.13535582087934017 M0.4257271336391568 21.27446789573878 C0.9457231829594821 16.30329248374328, -0.2218690146971494 13.00919055044651, 0.5185010777786374 0.56552545260638" stroke="#e67700" stroke-width="1" fill="none"></path></g><g transform="translate(425.4000000000001 124.51357081390995) rotate(270.7884242624401 26 12.5)"><text x="26" y="18" font-family="Virgil, Segoe UI Emoji" font-size="20px" fill="#e67700" text-anchor="middle" style="white-space: pre;" direction="ltr">APP 1</text></g><g transform="translate(412.427615005583 124.49999999999989) rotate(270.7884242624401 38 10.5)"><path d="M-0.5981352124363184 -0.5848395135253668 C22.009306033700707 1.4158194242045283, 39.66706122942269 0.5602855263277888, 76.5953499879688 -1.8607307579368353 M0.683362846262753 0.6079519493505359 C25.777764897607266 0.29170314081013204, 51.50010140482336 0.524921006038785, 76.5012382613495 -0.7278863983228803 M76.1243593301624 -1.0507737305015326 C73.89552564202808 8.389099128264935, 76.15558434306644 14.393556719087066, 75.69097342155874 19.978032061830163 M76.66629520524293 0.735852281562984 C76.13962513116188 6.320607404876501, 76.81276455429382 14.348640840873124, 75.15919369924814 20.439056406728923 M77.5462919678539 22.059580275788903 C46.94174259603023 21.306924880482256, 21.82781479097902 22.548585654236376, -1.8494753036648035 20.977616796270013 M76.29525131452829 21.07620359491557 C55.37031372021883 21.44562387123704, 33.498664585687216 22.535670426040888, -0.7572555793449283 21.51592944096774 M0.736937602981925 21.71503354050219 C-0.7629581446852535 12.481905728112906, -0.5056727285590022 4.703133155591786, -0.9196119103580713 1.4134751055389643 M-0.7002461208030581 21.419502715580165 C-0.03034986247308552 12.794509110506624, 0.2626759589742869 5.194275751709938, 0.6034834431484342 0.7492842180654407" stroke="#e67700" stroke-width="1" fill="none"></path></g><g transform="translate(451.4000000000001 126.51357081390995) rotate(270.7884242624401 26 12.5)"><text x="26" y="18" font-family="Virgil, Segoe UI Emoji" font-size="20px" fill="#e67700" text-anchor="middle" style="white-space: pre;" direction="ltr">APP 1</text></g><g transform="translate(438.427615005583 126.49999999999989) rotate(270.7884242624401 38 10.5)"><path d="M1.3969804737716913 1.64444943331182 C27.289929870516062 0.24884950716048482, 56.568081675097346 -1.4718657175824046, 75.78079915978014 -1.0437582526355982 M-0.41759072709828615 0.4780122386291623 C25.761241571046412 -0.5439548075944185, 51.78505506273359 -0.03619014032185075, 76.82836757134646 0.13103646505624056 M77.29903865791857 1.8950563874095678 C76.1857140825782 3.1511692824773494, 77.72289754615166 9.282669369317592, 75.15637762285769 22.50423296354711 M76.91721306275576 0.7917522834613919 C76.79682728755287 4.651880809199065, 75.93736994373612 10.85728998221457, 75.99768502544612 21.253863309510052 M76.16202862001956 22.28351696394384 C52.05518499910831 21.69056269612163, 25.945970543846485 20.994417936466633, -0.4733596947044134 19.454176923260093 M76.2067163689062 21.405843471176922 C47.68799896705895 21.326092678159476, 17.578166567347935 21.096321868747474, -0.1241781311109662 20.79743314255029 M-1.5647698547691107 19.994340440258384 C-0.2681826004479081 13.525380795169621, -1.1634675511810928 7.145553459040819, 0.5225076172500849 1.9651922788470984 M0.532431642524898 20.00781631935388 C0.4615346214640885 13.007639391068368, 0.6211984476912766 3.9538783639669397, 0.06284524034708738 -0.39740320574492216" stroke="#e67700" stroke-width="1" fill="none"></path></g><g transform="translate(483.39999999999986 124.51357081391006) rotate(270.7884242624401 32 12.5)"><text x="32" y="18" font-family="Virgil, Segoe UI Emoji" font-size="20px" fill="#364fc7" text-anchor="middle" style="white-space: pre;" direction="ltr">APP 2</text></g><g transform="translate(477.4276150055829 128.5) rotate(270.7884242624401 38.00000000000006 10.5)"><path d="M-0.5153032932430506 1.7947318647056818 C17.83628416880965 -1.030858764834702, 33.409633334353565 0.21054833155125374, 76.70269705913961 -0.11025827191770077 M-0.004036332480609417 -0.8378051714971662 C29.653800450824203 0.9316142845898867, 58.80453140679747 1.5432873118668795, 76.1787635134533 -0.9064420955255628 M76.17151047848165 -1.0176932122558355 C75.0019254991319 4.425880293268711, 75.92886766879819 9.331926714442671, 77.81494685076177 22.299433121457696 M76.81398189533502 -0.27993028331547976 C75.44269010660238 7.913478328753262, 74.99584299561567 15.439600067958235, 75.98695984948426 21.538894454948604 M76.03340931795537 21.701187023893 C44.794645676016806 22.00844414446503, 15.706232604756948 21.418945326544346, 0.4171620812267065 21.830822894349694 M76.1041652308777 21.15985969733447 C51.31010404657573 21.26311289921403, 26.408900413848464 20.030625846534967, -0.4189274860545993 20.951320658437908 M0.2744337525218725 20.191667983308434 C0.9566416634712368 13.365790184866636, -0.20476074083708226 8.591374559886752, 0.8129926528781652 -0.031652918085455894 M0.5130285667255521 21.401944409124553 C0.07038751642219723 14.184014821704476, 0.3731265107821673 7.31192092001438, 0.6984367119148374 0.238520841114223" stroke="#364fc7" stroke-width="1" fill="none"></path></g><g transform="translate(510.39999999999964 124.51357081391018) rotate(270.7884242624401 32 12.5)"><text x="32" y="18" font-family="Virgil, Segoe UI Emoji" font-size="20px" fill="#364fc7" text-anchor="middle" style="white-space: pre;" direction="ltr">APP 2</text></g><g transform="translate(504.42761500558254 128.5000000000001) rotate(270.7884242624401 38 10.5)"><path d="M0.3065702524036169 -1.5473462250083685 C21.76254793033004 0.08608014803379771, 43.835673053935174 -0.5054328300431371, 75.4883576836437 -1.486252835020423 M0.5422460185363889 0.7575607700273395 C27.155652760528028 -0.8601332043856382, 52.881643616594374 -0.9133905207365751, 76.21828049886972 0.6179609401151538 M76.09611763618886 -0.3055835273116827 C77.07523130326531 7.111847649235279, 76.41877274661324 12.645194124244155, 77.21200807951391 21.842006215825677 M76.97421116102487 0.1469538314267993 C75.68733337578364 7.728225334454328, 75.75469029006548 13.919980960711838, 76.42222306597978 20.129617909900844 M76.19148739241064 20.287919053807855 C53.96606729924679 19.324258079268038, 32.55982101894915 20.515852858759462, -1.6194200310856104 21.97567946650088 M76.65379307139665 20.24534938763827 C49.5708863241598 21.56865699902177, 21.92630831990391 20.381810891777278, -0.9433257533237338 21.72256131004542 M0.6521887984126806 22.805488178506494 C0.9273524589929729 13.698609688412397, -1.7791205935087056 5.648198254592716, 0.028192004188895226 0.8562342021614313 M-0.16897773277014494 20.27586145233363 C-1.0471725036669521 15.716282886918634, -0.6107226481009275 10.04202975332737, -0.4750151289626956 0.5447098417207599" stroke="#364fc7" stroke-width="1" fill="none"></path></g><g transform="translate(10 350) rotate(0 130.5 21.5)"><text x="130.5" y="30" font-family="Virgil, Segoe UI Emoji" font-size="33.489655172413784px" fill="#000000" text-anchor="middle" style="white-space: pre;" direction="ltr">Virtual Machines</text></g><g transform="translate(372.4000000000001 353.5) rotate(0 89 21.5)"><text x="89" y="30" font-family="Virgil, Segoe UI Emoji" font-size="33.489655172413784px" fill="#000000" text-anchor="middle" style="white-space: pre;" direction="ltr">Containers</text></g></svg>