<svg version="1.1" xmlns="http://www.w3.org/2000/svg" viewBox="0 0 1085.5999755859375 616.8000335693359" width="1085.5999755859375" height="616.8000335693359">
  <!-- svg-source:excalidraw -->
  
  <defs>
    <style>
      @font-face {
        font-family: "Virgil";
        src: url("https://excalidraw.com/Virgil.woff2");
      }
      @font-face {
        font-family: "Cascadia";
        src: url("https://excalidraw.com/Cascadia.woff2");
      }
    </style>
  </defs>
  <rect x="0" y="0" width="1085.5999755859375" height="616.8000335693359" fill="#ffffff"></rect><g stroke-linecap="round" transform="translate(10 10) rotate(0 532.7999877929688 298.40001678466797)"><path d="M1.57 0.91 C291.33 -7.64, 579.39 -6.35, 1065.04 0.68 M-0.1 0.2 C422.75 3.23, 846.23 3.29, 1065.04 -0.27 M1065.34 0.73 C1067.42 120.57, 1068.49 242.99, 1065.83 595.58 M1065.82 0 C1069.23 167.24, 1069.18 334.69, 1066.21 597.27 M1064.06 597.72 C829.04 602.73, 592.78 603.72, 1.3 596.12 M1065.67 596.94 C799.02 588.26, 533.64 588.78, -0.03 596.88 M-1.07 597.75 C-3.8 356.99, -2.46 118.98, -0.1 0.5 M0.12 596.88 C-2.75 425.86, -2.24 254.73, 0.36 0.06" stroke="#087f5b" stroke-width="4" fill="none"></path></g><g transform="translate(37.99993896484375 89.80001831054688) rotate(0 509.5135135135133 41.16157205240178)"><text x="0" y="19.44104803493452" font-family="Virgil, Segoe UI Emoji" font-size="22.249498406703644px" fill="#000000" text-anchor="start" style="white-space: pre;" direction="ltr">Ce contenu a pour objectif de faire découvrir les concepts de la conteneurisation.</text><text x="0" y="46.88209606986904" font-family="Virgil, Segoe UI Emoji" font-size="22.249498406703644px" fill="#000000" text-anchor="start" style="white-space: pre;" direction="ltr">Certains aspects sont simplifiés dans le but de rester compréhensible par un public voulant </text><text x="0" y="74.32314410480356" font-family="Virgil, Segoe UI Emoji" font-size="22.249498406703644px" fill="#000000" text-anchor="start" style="white-space: pre;" direction="ltr">appréhender ce sujet sans en devenir des experts.</text></g><g transform="translate(40.39996337890625 46.40000915527344) rotate(0 89.5 17.5)"><text x="0" y="25" font-family="Virgil, Segoe UI Emoji" font-size="28px" fill="#862e9c" text-anchor="start" style="white-space: pre;" direction="ltr">Avant-propos</text></g><g transform="translate(41.89996337890625 265.4999694824219) rotate(0 62.5 17.5)"><text x="0" y="25" font-family="Virgil, Segoe UI Emoji" font-size="28px" fill="#862e9c" text-anchor="start" style="white-space: pre;" direction="ltr">Objectifs</text></g><g transform="translate(38.800018310546875 314.51310022205814) rotate(0 513 123)"><text x="0" y="25.142857142857146" font-family="Virgil, Segoe UI Emoji" font-size="28px" fill="#000000" text-anchor="start" style="white-space: pre;" direction="ltr">Ce contenu doit permettre aux étudiants d’appréhender les concepts </text><text x="0" y="60.28571428571429" font-family="Virgil, Segoe UI Emoji" font-size="28px" fill="#000000" text-anchor="start" style="white-space: pre;" direction="ltr">de la conteneurisation ainsi que les solutions techniques misent en œuvre.</text><text x="0" y="95.42857142857144" font-family="Virgil, Segoe UI Emoji" font-size="28px" fill="#000000" text-anchor="start" style="white-space: pre;" direction="ltr">Il sert donc de support pour un module d’enseignement de la </text><text x="0" y="130.57142857142858" font-family="Virgil, Segoe UI Emoji" font-size="28px" fill="#000000" text-anchor="start" style="white-space: pre;" direction="ltr">conteneurisation aussi bien pour les parties théoriques que pratiques. </text><text x="0" y="165.71428571428572" font-family="Virgil, Segoe UI Emoji" font-size="28px" fill="#000000" text-anchor="start" style="white-space: pre;" direction="ltr">Il limite au maximum le temps passé sur la phase de déploiement des </text><text x="0" y="200.8571428571429" font-family="Virgil, Segoe UI Emoji" font-size="28px" fill="#000000" text-anchor="start" style="white-space: pre;" direction="ltr">environnements afin de laissé le plus de temps possible à la compréhension</text><text x="0" y="236.00000000000003" font-family="Virgil, Segoe UI Emoji" font-size="28px" fill="#000000" text-anchor="start" style="white-space: pre;" direction="ltr"> de la conteneurisation et aux échanges entre étudiants et formateurs.</text></g></svg>