<svg version="1.1" xmlns="http://www.w3.org/2000/svg" viewBox="0 0 1477.3999252319334 841.4000415802002" width="1477.3999252319334" height="841.4000415802002">
  <!-- svg-source:excalidraw -->
  
  <defs>
    <style>
      @font-face {
        font-family: "Virgil";
        src: url("https://excalidraw.com/Virgil.woff2");
      }
      @font-face {
        font-family: "Cascadia";
        src: url("https://excalidraw.com/Cascadia.woff2");
      }
    </style>
  </defs>
  <rect x="0" y="0" width="1477.3999252319334" height="841.4000415802002" fill="#ffffff"></rect><g stroke-linecap="round" transform="translate(10 10) rotate(0 728.6999626159667 410.7000207901001)"><path d="M-1.31 -1.5 C323.06 10.45, 649.75 12.7, 1457.86 -1.31 M0.05 -0.34 C524.82 2.04, 1047.9 2.91, 1458.02 -0.31 M1456.48 1.19 C1460.03 193.81, 1462.35 388.79, 1456.97 820.9 M1457.03 -0.75 C1455.53 254.35, 1454.83 509.81, 1456.65 822.11 M1457.04 822.39 C1019.45 820.17, 581.67 820.85, 0.77 822.91 M1457.32 821.58 C1010.24 818.21, 565.02 818.2, -0.24 821.24 M1.38 821.69 C5.66 514.35, 6.44 208.03, -0.51 0.32 M-0.64 822.11 C7.14 497.25, 7.12 173.73, -0.48 -0.01" stroke="#0b7285" stroke-width="4" fill="none"></path></g></svg>