<svg version="1.1" xmlns="http://www.w3.org/2000/svg" viewBox="0 0 265 331.5" width="530" height="663">
  <!-- svg-source:excalidraw -->
  
  <defs>
    <style>
      @font-face {
        font-family: "Virgil";
        src: url("https://excalidraw.com/Virgil.woff2");
      }
      @font-face {
        font-family: "Cascadia";
        src: url("https://excalidraw.com/Cascadia.woff2");
      }
    </style>
  </defs>
  <rect x="0" y="0" width="265" height="331.5" fill="#ffffff"></rect><g transform="translate(11 214.25) rotate(0 122 18.5)"><path d="M0.9078075157198018 -0.7874262894409126 C89.65410964231091 2.9759962263747957, 182.72113982818624 1.1564228239583998, 244.01335489710726 -0.1209057359234996 M0.6563808495204593 -0.7518967979043688 C69.67888956258513 -1.2524557458532368, 140.00923998396544 -0.21359525709716454, 243.34700071959315 0.3099290807539854 M242.94169523380697 -1.4293689038604498 C242.90184517874383 13.59262757273391, 242.51173259987496 22.239938761852684, 245.71990486048162 38.52752030827105 M244.46114469040185 -0.08464961219578981 C244.1034260280151 9.563526350725443, 243.4567688889522 17.902447667345406, 243.55422381032258 36.93754808139056 M243.8470851904122 35.84472078703018 C187.45139992327498 37.53446156962474, 127.99394410668177 38.964638479752594, -0.8566678908086947 36.36347797349284 M243.50853957104533 36.47912432968994 C188.1341937186647 35.07306512459296, 132.99690891295424 34.669617475131105, -0.761156771779463 37.46505983353826 M1.3050097431987524 35.12531394697726 C-0.8325737181212753 20.942483724188058, 1.0908245977852493 6.583332471735773, -0.3160916958004236 1.937752017751336 M0.26961976755410433 37.815799604170024 C-0.5074911776650697 23.277402993198486, -0.6484586957562715 9.263186794519424, -0.10656037461012602 0.22415719460695982" stroke="#000000" stroke-width="1" fill="none"></path></g><g transform="translate(90 220.25) rotate(0 45.5 12.5)"><text x="0" y="18" font-family="Virgil, Segoe UI Emoji" font-size="20px" fill="#000000" text-anchor="start" style="white-space: pre;" direction="ltr">Hardware</text></g><g transform="translate(10 170.75) rotate(0 122 18.5)"><path d="M-1.1863136022995164 1.4085082000318816 C55.27801366790732 0.5495948707333991, 108.48879555499113 0.8397543371944137, 243.80090923675013 -1.5073176343497223 M-0.5828028417893621 -0.4404624143030967 C82.50873380977362 2.4330262613396356, 165.39275798870744 2.1445572676406455, 244.1500466756302 -0.07103825449430606 M242.93364175222814 1.821021804586053 C242.34774279161357 8.872740611154587, 245.52411847873591 21.879547079466285, 242.93280055187643 38.215439626947045 M243.8785696970299 0.43784532975405455 C243.4025360934157 7.950615492928774, 243.72484734577128 16.53660781644285, 243.383436803706 36.87795169185847 M245.60725793370116 36.31192888890074 C156.31638824200493 36.33266515920541, 67.16478833813295 34.95403733366966, -1.192495127015727 37.60865662384134 M243.7345952628631 36.8340640653809 C192.30093974821025 35.15967978036249, 139.4452987219389 36.1941231979817, 0.8085959254174139 36.69192942398806 M-0.9704654607921839 35.66174210049212 C0.7115060526225716 23.64495389861986, -0.5575184982921928 14.183961366303265, 1.227648874744773 -0.16116719506680965 M-0.5373071087524295 36.648553411476314 C-0.7780339408386499 24.353582810517402, -0.2063196886051446 13.920347553491592, 0.29194087255746126 0.2778592212125659" stroke="#2b8a3e" stroke-width="1" fill="none"></path></g><g transform="translate(93 176.25) rotate(0 40 12.5)"><text x="0" y="18" font-family="Virgil, Segoe UI Emoji" font-size="20px" fill="#2b8a3e" text-anchor="start" style="white-space: pre;" direction="ltr">Host OS</text></g><g transform="translate(13.5 10) rotate(0 24 77.5)"><path d="M-0.5496279504150152 0.9092055168002844 C16.41913233883679 -1.9672397124022245, 31.399193668738008 -0.9686212884634733, 47.389873871579766 0.601655026897788 M0.3316639168187976 -0.25107123982161283 C11.315710690431297 -1.1327097081765531, 22.279931528680027 -0.7464832031354308, 48.26850012969226 0.7697603749111295 M49.84973324276507 0.47336151264607906 C49.138544297358024 30.989805490244173, 47.85611335053109 63.36295990180223, 48.338072726503015 154.10858102701602 M48.06744388770312 -0.41609668266028166 C48.242871090071276 32.737501876894385, 48.64054150809534 66.12560227513313, 47.030627260915935 154.40851167310026 M48.803898284211755 155.97407718561587 C31.998360188677907 156.2653877893835, 15.418112391605973 155.20190675653515, -0.5118908789008856 153.51538457535204 M47.26079202722758 154.69194630254057 C33.23076156955212 155.688639662005, 19.381527735106644 155.51933752629904, 0.41655180882662535 154.3723638700321 M0.8441782090812922 156.32633056305346 C-1.8936286711599677 118.41277883527798, -1.4867018604185431 80.34312015864997, 0.6779347155243158 0.5866530742496252 M0.4209551615640521 154.92660385835913 C-2.3305646803695708 120.79079367918891, -1.2696080532390623 88.66640184260903, 0.3915752870962024 -0.26931657921522856" stroke="#a61e4d" stroke-width="1" fill="none"></path></g><g transform="translate(-6.059999999999718 63.439999999999486) rotate(90 46 24)"><text x="46" y="17" font-family="Virgil, Segoe UI Emoji" font-size="19.60000000000016px" fill="#a61e4d" text-anchor="middle" style="white-space: pre;" direction="ltr">Container</text><text x="46" y="41" font-family="Virgil, Segoe UI Emoji" font-size="19.60000000000016px" fill="#a61e4d" text-anchor="middle" style="white-space: pre;" direction="ltr">Engine</text></g><g transform="translate(72.5 12) rotate(0 88 75)"><path d="M-1.655155697837472 -0.0206903126090765 C44.26385865919292 2.104619721099734, 85.77389741502702 1.5226663743704556, 176.29202022217214 0.1081444714218378 M176.87159259058535 0.6459401454776525 C175.39867524942383 47.308832134120166, 176.63873003562912 92.80676707625389, 177.01527989841998 150.5759766306728 M176.48931874893606 149.90532989241183 C130.46137158684434 152.39717389427125, 90.11471981965005 152.23231763921677, -0.22583786584436893 148.58037782646716 M0.0010792110115289688 150.09459473751485 C-1.2486640340648592 93.4220661977306, 2.4385781758464873 40.655320357531295, 1.5937506649643183 -0.06165150739252567" stroke="#000000" stroke-width="1.5" fill="none" stroke-dasharray="3 6"></path></g><g transform="translate(173.5 108) rotate(0 30.5 26)"><path d="M-1.8652127292007208 0.3163487520068884 C20.32279948322102 -1.0297491831239314, 43.47267425972967 -0.5534886998590083, 62.338079223409274 -1.5778068099170923 M0.5824290616437793 0.43323460686951876 C24.114517599251116 0.8787792194169015, 45.98060100227593 -0.345855100126937, 61.763743500225225 0.6624993728473783 M60.6437943074852 1.5950166191905737 C61.70443999867884 11.633052649348976, 58.76950126986949 24.24325321502984, 61.13164169527588 50.476272663101554 M60.748890261165776 0.6817967342212796 C60.35592667944727 15.32736049797386, 62.10667593963442 31.754972487129272, 60.76154453586785 51.51629087794572 M59.10836202837525 52.74347170256078 C37.4730414723046 51.65619327000342, 12.943260238133362 52.220500780856234, -1.069857707247138 52.898613473400474 M60.68133027385918 51.49364945758134 C39.69149464042856 51.40927746449597, 17.583932681009166 51.81380688701756, 0.14663175772875547 52.06157732475549 M-1.6316047813743353 52.805598279461265 C-1.078705395720899 34.98543482124805, 0.9435358986631036 16.9199310157448, 0.25512642599642277 -0.7922907266765833 M0.6409490508958697 51.25163579452783 C-0.17641817316412928 38.937674473039806, -0.12480946168303492 24.272521630860865, -0.5512401955202222 -0.9154779566451907" stroke="#0b7285" stroke-width="1" fill="none"></path></g><g transform="translate(186.5 112) rotate(0 19.5 25)"><text x="0" y="18" font-family="Virgil, Segoe UI Emoji" font-size="20px" fill="#0b7285" text-anchor="start" style="white-space: pre;" direction="ltr">Bins</text><text x="0" y="43" font-family="Virgil, Segoe UI Emoji" font-size="20px" fill="#0b7285" text-anchor="start" style="white-space: pre;" direction="ltr">Libs</text></g><g transform="translate(44.5 278.5) rotate(0 89 21.5)"><text x="89" y="30" font-family="Virgil, Segoe UI Emoji" font-size="33.489655172413784px" fill="#000000" text-anchor="middle" style="white-space: pre;" direction="ltr">Containers</text></g><g transform="translate(90 108) rotate(0 30.5 26)"><path d="M-1.0705364253371954 0.13621254824101925 C15.644410768430674 -0.05307365125976482, 31.132255682535458 -1.2553257412370291, 61.164631137624355 -1.090355733409524 M-0.24322711396962404 -0.816018427722156 C16.56157281985506 -0.5042056023795155, 33.69719379097222 -0.7227135181147603, 61.92739854287353 0.4550630496814847 M61.13672805763778 0.0000702347606420517 C59.897386804632816 18.68621331676841, 61.63925166469065 33.65692327804864, 60.201861212030025 53.04256590269506 M61.963143448345335 -0.10260492097586393 C60.52612155325708 19.05609141495079, 61.07433327682313 39.80079105440527, 61.219747613184126 51.43703601229936 M62.65355713106689 50.85627373121679 C46.980646381247766 54.03115985087119, 34.755560109578056 50.82418135098182, 0.11365831829607487 50.40068246982992 M60.69208462070671 52.61672613490373 C44.68957940014077 53.142593649970365, 28.05054902546106 51.74807369505055, 0.7731621665880084 51.31094336975366 M-1.7895194198936224 50.10808231495321 C-0.5567936125025152 32.38481912910938, 2.188149708248675 15.097367939725515, 1.8121928665786982 0.36186262033879757 M0.6344838542863727 51.17013025749475 C-0.31578672632575033 37.35970201324672, 1.2368977297842503 22.767662326432763, -0.7029156582430005 -0.4417390478774905" stroke="#495057" stroke-width="1" fill="none"></path></g><g transform="translate(99 112) rotate(0 19.5 25)"><text x="0" y="18" font-family="Virgil, Segoe UI Emoji" font-size="20px" fill="#495057" text-anchor="start" style="white-space: pre;" direction="ltr">Bins</text><text x="0" y="43" font-family="Virgil, Segoe UI Emoji" font-size="20px" fill="#495057" text-anchor="start" style="white-space: pre;" direction="ltr">Libs</text></g><g transform="translate(88 52) rotate(0 30.5 26)"><path d="M-1.4866806771606207 0.43703277967870235 C24.385356006305656 0.728308364087716, 47.85170154292135 0.47414968841709226, 59.60617197491226 -1.472599009051919 M-0.3298222320154309 -0.8489616168662906 C18.60215611448511 0.1293599564116451, 37.58999211937188 0.008918370632455042, 61.09747723769394 -0.6762592745944858 M60.25231064297256 0.28704692982137203 C61.504665378145845 17.348738446086646, 60.592687312178285 32.35600758381188, 62.19575876928863 52.47155233286321 M61.8052344722673 -0.5267891837283969 C60.27701879389581 10.54836845304817, 61.63423816211519 22.071406834758818, 60.72518969606605 52.63181880582124 M60.02755112387237 50.920300444588065 C41.31674834834409 49.998051255857575, 18.976743683777734 52.35562124839984, -0.750121584162116 50.881010910496116 M61.5868241889402 52.59042433369905 C39.17614728482438 51.47203854058869, 16.240700597688544 51.38102925156243, 0.5250394148752093 52.17759544122964 M1.9016018006950617 52.22052135132253 C0.5891094336286187 32.942055800557135, -0.6510889997705818 12.0338504884392, 1.1377325747162104 -0.5108858738094568 M0.5085687441751361 51.12185007799417 C0.856178043037653 38.04647496771067, 0.7135976828634739 26.47714710626751, 0.9467029077932239 0.2960620867088437" stroke="#e67700" stroke-width="1" fill="none"></path></g><g transform="translate(97 56) rotate(0 19.5 25)"><text x="19.5" y="18" font-family="Virgil, Segoe UI Emoji" font-size="20px" fill="#e67700" text-anchor="middle" style="white-space: pre;" direction="ltr">APP</text><text x="19.5" y="43" font-family="Virgil, Segoe UI Emoji" font-size="20px" fill="#e67700" text-anchor="middle" style="white-space: pre;" direction="ltr">1</text></g><g transform="translate(172 52) rotate(0 30.5 26)"><path d="M1.463956007733941 -1.3795506749302149 C21.042917770426712 -0.7011862740572543, 42.05096621830015 -0.8575723514612765, 59.47152919508514 -0.8142240438610315 M-0.21490438748151064 0.3503118799999356 C20.0078547685407 1.0461130562704055, 40.958438135683515 0.14300526413135217, 61.836013208143385 -0.8064297093078494 M60.23245973326263 -1.936215678229928 C61.63819811563936 20.58160156235099, 60.942198672108326 39.91627327986062, 62.92345310188827 51.004681250080466 M60.321457515470655 0.07572928536683321 C60.10795940525827 13.126152723096311, 60.10146741636095 26.669775509275496, 61.74109898041931 51.588883821852505 M60.3851740453392 53.73634256981313 C47.72530313180757 52.00134223780595, 34.52491441126911 50.81032252392732, -1.6539255883544683 51.35792454145849 M60.79863343667236 51.83462161291391 C46.67447770209981 52.82131864433177, 34.66431561224161 52.055003988789394, -0.41962354350835085 52.35193130839616 M-1.6852618958801031 50.723023971542716 C-0.7284980633482336 35.68539161980152, 1.1065350553765894 18.572890112176538, -1.2488270904868841 1.8675151076167822 M-0.7829188602045178 51.72369906771928 C0.3745787359774113 38.61766455601901, 0.013855866342783019 27.627449021674693, 0.6541080875322223 0.4514932679012418" stroke="#364fc7" stroke-width="1" fill="none"></path></g><g transform="translate(181 56) rotate(0 19.5 25)"><text x="19.5" y="18" font-family="Virgil, Segoe UI Emoji" font-size="20px" fill="#364fc7" text-anchor="middle" style="white-space: pre;" direction="ltr">APP</text><text x="19.5" y="43" font-family="Virgil, Segoe UI Emoji" font-size="20px" fill="#364fc7" text-anchor="middle" style="white-space: pre;" direction="ltr">2</text></g></svg>