<svg version="1.1" xmlns="http://www.w3.org/2000/svg" viewBox="0 0 592.9000000000001 406.5" width="1185.8000000000002" height="813">
  <!-- svg-source:excalidraw -->
  
  <defs>
    <style>
      @font-face {
        font-family: "Virgil";
        src: url("https://excalidraw.com/Virgil.woff2");
      }
      @font-face {
        font-family: "Cascadia";
        src: url("https://excalidraw.com/Cascadia.woff2");
      }
    </style>
  </defs>
  <rect x="0" y="0" width="592.9000000000001" height="406.5" fill="#ffffff"></rect><g transform="translate(23.40000000000009 289) rotate(0 122 18.5)"><path d="M-1.4603141696473305 1.283921753695399 C75.48472031765928 -0.476603717683444, 154.50588545357962 -0.18702476536813734, 242.5867300916696 0.5650293838590926 M-0.38502173670721906 0.6725906058263923 C56.553189185672956 0.4113493559167605, 113.35059226815177 0.16401847596672592, 244.67381712025963 -0.5998983477810356 M242.31360829807818 0.18615653179585934 C245.7090047121141 9.18449542997405, 242.95537472964264 16.7853943714872, 244.63053817488253 37.70823975466192 M243.7059039277956 -0.31150137912482023 C243.15324877711944 9.710533533524723, 244.53731216999702 19.900786105170848, 244.31967247556895 37.91006818879396 M244.64065324111178 35.91146410694614 C172.70072653331076 38.35266401863577, 103.49171968520749 36.41655311590194, -0.8985032515889114 37.224228951649934 M243.66907531325722 36.82532143987874 C149.12301912575842 35.647072505784536, 55.086353015081905 35.869477393312685, -0.2537729919638838 36.1983713113621 M-0.499487629160285 38.23265280388296 C1.1937679923977704 27.52675022529438, -1.2323206387553363 21.582465307228265, 0.5774100515991449 0.16060074232518673 M0.4865010781213641 36.893541996367276 C-1.1873990417551248 25.062348859850317, -0.08023498664610085 13.21535238623619, 0.5371497375890613 0.7549831615760922" stroke="#000000" stroke-width="1" fill="none"></path></g><g transform="translate(102.40000000000009 295) rotate(0 45.5 12.5)"><text x="0" y="18" font-family="Virgil, Segoe UI Emoji" font-size="20px" fill="#000000" text-anchor="start" style="white-space: pre;" direction="ltr">Hardware</text></g><g transform="translate(22.40000000000009 245.5) rotate(0 122 18.5)"><path d="M-1.6189017857499293 0.7393528651580147 C73.64557763352917 1.9485415723393045, 151.1614231539626 1.643529280447658, 242.37050287030107 -1.5014580974065725 M0.386096158417442 -0.06053783165391347 C61.397980245357914 0.47398798247654506, 121.9669345026868 0.27034126006814313, 244.7990403038842 -0.30525920641085763 M245.1135841216892 1.8191380593925714 C243.45150890036487 12.913222309667617, 245.3099143116083 25.002189143560827, 243.30726959370077 38.21055752970278 M244.12696025241166 0.4983441634103656 C243.88255905193276 8.068126515019685, 243.63198288363404 17.42756169103086, 243.40144634712487 36.21662206482142 M243.56783024514212 36.68957605474098 C182.2073325272313 38.2598508013138, 119.47753645017207 36.58998481332383, 1.2971683356062478 36.67989764919391 M243.78452273129807 36.41581608903045 C174.4724413327783 37.003807839290914, 104.01314573128269 37.980793856814, -0.6522930998777958 36.679307798911715 M-0.8647265825420618 35.783134112134576 C0.4424851411674172 28.022876493167132, 0.5893770331237466 18.092584465630352, -0.7704254183918238 -1.2053711917251348 M-0.5268392218276858 37.943923155777156 C-0.19534767274744813 27.166422330494967, -0.13768295054323976 16.474900013208387, 0.4985414193943143 -0.9071444170549512" stroke="#2b8a3e" stroke-width="1" fill="none"></path></g><g transform="translate(105.40000000000009 251) rotate(0 40 12.5)"><text x="0" y="18" font-family="Virgil, Segoe UI Emoji" font-size="20px" fill="#2b8a3e" text-anchor="start" style="white-space: pre;" direction="ltr">Host OS</text></g><g transform="translate(338.9000000000001 289.25) rotate(0 122 18.5)"><path d="M0.9078075157198018 -0.7874262894409126 C89.65410964231091 2.9759962263747957, 182.72113982818624 1.1564228239583998, 244.01335489710726 -0.1209057359234996 M0.6563808495204593 -0.7518967979043688 C69.67888956258513 -1.2524557458532368, 140.00923998396544 -0.21359525709716454, 243.34700071959315 0.3099290807539854 M242.94169523380697 -1.4293689038604498 C242.90184517874383 13.59262757273391, 242.51173259987496 22.239938761852684, 245.71990486048162 38.52752030827105 M244.46114469040185 -0.08464961219578981 C244.1034260280151 9.563526350725443, 243.4567688889522 17.902447667345406, 243.55422381032258 36.93754808139056 M243.8470851904122 35.84472078703018 C187.45139992327498 37.53446156962474, 127.99394410668177 38.964638479752594, -0.8566678908086947 36.36347797349284 M243.50853957104533 36.47912432968994 C188.1341937186647 35.07306512459296, 132.99690891295424 34.669617475131105, -0.761156771779463 37.46505983353826 M1.3050097431987524 35.12531394697726 C-0.8325737181212753 20.942483724188058, 1.0908245977852493 6.583332471735773, -0.3160916958004236 1.937752017751336 M0.26961976755410433 37.815799604170024 C-0.5074911776650697 23.277402993198486, -0.6484586957562715 9.263186794519424, -0.10656037461012602 0.22415719460695982" stroke="#000000" stroke-width="1" fill="none"></path></g><g transform="translate(417.9000000000001 295.25) rotate(0 45.5 12.5)"><text x="0" y="18" font-family="Virgil, Segoe UI Emoji" font-size="20px" fill="#000000" text-anchor="start" style="white-space: pre;" direction="ltr">Hardware</text></g><g transform="translate(337.9000000000001 245.75) rotate(0 122 18.5)"><path d="M-1.1863136022995164 1.4085082000318816 C55.27801366790732 0.5495948707333991, 108.48879555499113 0.8397543371944137, 243.80090923675013 -1.5073176343497223 M-0.5828028417893621 -0.4404624143030967 C82.50873380977362 2.4330262613396356, 165.39275798870744 2.1445572676406455, 244.1500466756302 -0.07103825449430606 M242.93364175222814 1.821021804586053 C242.34774279161357 8.872740611154587, 245.52411847873591 21.879547079466285, 242.93280055187643 38.215439626947045 M243.8785696970299 0.43784532975405455 C243.4025360934157 7.950615492928774, 243.72484734577128 16.53660781644285, 243.383436803706 36.87795169185847 M245.60725793370116 36.31192888890074 C156.31638824200493 36.33266515920541, 67.16478833813295 34.95403733366966, -1.192495127015727 37.60865662384134 M243.7345952628631 36.8340640653809 C192.30093974821025 35.15967978036249, 139.4452987219389 36.1941231979817, 0.8085959254174139 36.69192942398806 M-0.9704654607921839 35.66174210049212 C0.7115060526225716 23.64495389861986, -0.5575184982921928 14.183961366303265, 1.227648874744773 -0.16116719506680965 M-0.5373071087524295 36.648553411476314 C-0.7780339408386499 24.353582810517402, -0.2063196886051446 13.920347553491592, 0.29194087255746126 0.2778592212125659" stroke="#2b8a3e" stroke-width="1" fill="none"></path></g><g transform="translate(420.9000000000001 251.25) rotate(0 40 12.5)"><text x="0" y="18" font-family="Virgil, Segoe UI Emoji" font-size="20px" fill="#2b8a3e" text-anchor="start" style="white-space: pre;" direction="ltr">Host OS</text></g><g transform="translate(22.40000000000009 199.5) rotate(0 122 18.5)"><path d="M1.4444833248327544 -1.644076598103564 C86.03599932925361 1.8955134547108932, 174.23713829864562 2.4282197329035804, 243.5262801650361 1.09495365812977 M0.06327999205257034 -0.6537244303762528 C65.53444162920403 2.0230350337133034, 130.82700554210356 2.27388954879577, 244.25962244523294 0.45148583939507264 M245.37558914162219 1.063455244526267 C242.32890848220325 12.569056175928562, 246.08346865476108 25.26547398660332, 243.47880823351443 38.552239974960685 M243.79903517197818 -0.7732134414836764 C244.13145539912395 11.784902123641224, 244.85300696644 23.225895992293957, 243.07565886806697 36.129220460541546 M244.1298367609184 38.458502292467124 C156.67075373654328 40.23329614919581, 68.41940282259831 39.88379593747608, -0.6207996123685307 37.54668095865072 M243.8943681625813 36.72902236155421 C180.74192822002647 36.67980281147693, 117.43788332775588 37.63762678725047, 0.3525074184662852 37.434873586055 M-0.1776114609092474 35.51717044971883 C-1.8406258194241674 23.007903314102442, 0.9795128138270229 13.84069817494601, 0.6496867630630732 1.0297398176044226 M-0.5130228595808148 36.873545174486935 C-0.0966885657142848 28.852649330440908, 0.09808573414571581 20.347017043828963, -0.424152840860188 -0.281781162135303" stroke="#5f3dc4" stroke-width="1" fill="none"></path></g><g transform="translate(99.40000000000009 207) rotate(0 48 12.5)"><text x="0" y="18" font-family="Virgil, Segoe UI Emoji" font-size="20px" fill="#5f3dc4" text-anchor="start" style="white-space: pre;" direction="ltr">Hypervisor</text></g><g transform="translate(341.4000000000001 85) rotate(0 24 77.5)"><path d="M-0.5496279504150152 0.9092055168002844 C16.41913233883679 -1.9672397124022245, 31.399193668738008 -0.9686212884634733, 47.389873871579766 0.601655026897788 M0.3316639168187976 -0.25107123982161283 C11.315710690431297 -1.1327097081765531, 22.279931528680027 -0.7464832031354308, 48.26850012969226 0.7697603749111295 M49.84973324276507 0.47336151264607906 C49.138544297358024 30.989805490244173, 47.85611335053109 63.36295990180223, 48.338072726503015 154.10858102701602 M48.06744388770312 -0.41609668266028166 C48.242871090071276 32.737501876894385, 48.64054150809534 66.12560227513313, 47.030627260915935 154.40851167310026 M48.803898284211755 155.97407718561587 C31.998360188677907 156.2653877893835, 15.418112391605973 155.20190675653515, -0.5118908789008856 153.51538457535204 M47.26079202722758 154.69194630254057 C33.23076156955212 155.688639662005, 19.381527735106644 155.51933752629904, 0.41655180882662535 154.3723638700321 M0.8441782090812922 156.32633056305346 C-1.8936286711599677 118.41277883527798, -1.4867018604185431 80.34312015864997, 0.6779347155243158 0.5866530742496252 M0.4209551615640521 154.92660385835913 C-2.3305646803695708 120.79079367918891, -1.2696080532390623 88.66640184260903, 0.3915752870962024 -0.26931657921522856" stroke="#a61e4d" stroke-width="1" fill="none"></path></g><g transform="translate(321.8400000000004 138.4399999999995) rotate(90 46 24)"><text x="46" y="17" font-family="Virgil, Segoe UI Emoji" font-size="19.60000000000016px" fill="#a61e4d" text-anchor="middle" style="white-space: pre;" direction="ltr">Container</text><text x="46" y="41" font-family="Virgil, Segoe UI Emoji" font-size="19.60000000000016px" fill="#a61e4d" text-anchor="middle" style="white-space: pre;" direction="ltr">Engine</text></g><g transform="translate(400.4000000000001 87) rotate(0 88 75)"><path d="M-1.655155697837472 -0.0206903126090765 C44.26385865919292 2.104619721099734, 85.77389741502702 1.5226663743704556, 176.29202022217214 0.1081444714218378 M176.87159259058535 0.6459401454776525 C175.39867524942383 47.308832134120166, 176.63873003562912 92.80676707625389, 177.01527989841998 150.5759766306728 M176.48931874893606 149.90532989241183 C130.46137158684434 152.39717389427125, 90.11471981965005 152.23231763921677, -0.22583786584436893 148.58037782646716 M0.0010792110115289688 150.09459473751485 C-1.2486640340648592 93.4220661977306, 2.4385781758464873 40.655320357531295, 1.5937506649643183 -0.06165150739252567" stroke="#000000" stroke-width="1.5" fill="none" stroke-dasharray="3 6"></path></g><g transform="translate(24.40000000000009 10) rotate(0 121 91.5)"><path d="M1.0627393664264775 0.8050895724993251 C50.35490798205282 0.5172542272096532, 99.66927238880237 -0.43835578065556113, 242.4292237927813 -0.2694362542945601 M243.5190094318241 0.10428358055651188 C242.58290708412417 71.23712319647893, 241.4821068679262 139.82260906789452, 242.35851552151144 184.90273887850344 M242.01601694992297 182.62364093200551 C179.3080767391479 185.5340404654456, 118.11575873553609 184.5207714246954, -0.07297591777967438 182.76536245733794 M-0.5836818013340235 184.0957678053528 C0.4180661978852003 115.69149677017703, -0.15241289709694694 45.74628068190066, 1.7081157770007849 0.45667160488665104" stroke="#000000" stroke-width="1.5" fill="none" stroke-dasharray="3 6"></path></g><g transform="translate(501.4000000000001 183) rotate(0 30.5 26)"><path d="M-1.8652127292007208 0.3163487520068884 C20.32279948322102 -1.0297491831239314, 43.47267425972967 -0.5534886998590083, 62.338079223409274 -1.5778068099170923 M0.5824290616437793 0.43323460686951876 C24.114517599251116 0.8787792194169015, 45.98060100227593 -0.345855100126937, 61.763743500225225 0.6624993728473783 M60.6437943074852 1.5950166191905737 C61.70443999867884 11.633052649348976, 58.76950126986949 24.24325321502984, 61.13164169527588 50.476272663101554 M60.748890261165776 0.6817967342212796 C60.35592667944727 15.32736049797386, 62.10667593963442 31.754972487129272, 60.76154453586785 51.51629087794572 M59.10836202837525 52.74347170256078 C37.4730414723046 51.65619327000342, 12.943260238133362 52.220500780856234, -1.069857707247138 52.898613473400474 M60.68133027385918 51.49364945758134 C39.69149464042856 51.40927746449597, 17.583932681009166 51.81380688701756, 0.14663175772875547 52.06157732475549 M-1.6316047813743353 52.805598279461265 C-1.078705395720899 34.98543482124805, 0.9435358986631036 16.9199310157448, 0.25512642599642277 -0.7922907266765833 M0.6409490508958697 51.25163579452783 C-0.17641817316412928 38.937674473039806, -0.12480946168303492 24.272521630860865, -0.5512401955202222 -0.9154779566451907" stroke="#0b7285" stroke-width="1" fill="none"></path></g><g transform="translate(514.4000000000001 187) rotate(0 19.5 25)"><text x="0" y="18" font-family="Virgil, Segoe UI Emoji" font-size="20px" fill="#0b7285" text-anchor="start" style="white-space: pre;" direction="ltr">Bins</text><text x="0" y="43" font-family="Virgil, Segoe UI Emoji" font-size="20px" fill="#0b7285" text-anchor="start" style="white-space: pre;" direction="ltr">Libs</text></g><g transform="translate(165.9000000000001 74) rotate(0 30.5 26)"><path d="M-0.4423231389373541 0.6197603549808264 C21.94671969143673 -1.2971976113971322, 44.00844051558523 1.0137148188892753, 60.07311404682693 -1.7118456158787012 M-0.6447504060342908 -0.746849681250751 C17.594877898599947 -0.28038185653276737, 32.825788666307915 0.36565223517827694, 60.985746542923124 -0.028626556508243084 M61.20063699223098 0.9482519831508398 C62.564414213709505 17.8180338524282, 62.47567070584741 34.55111795254052, 59.35597629286346 53.33163281343877 M61.85759679507461 -0.9451049519702792 C62.32839358218011 14.420837759040296, 61.653695378378 27.707439535297453, 60.62320555280891 51.75523964036256 M60.65938729979095 50.28434821031988 C47.51911270963026 52.79503281346522, 36.40613037105648 50.36855281821452, 1.2969749066978693 50.27572121284902 M60.16944087576118 52.08051386941224 C45.202060821372996 53.37912930105813, 28.731273288652282 53.2877499863971, -0.6737655596807599 52.66266865003854 M-0.15194868110120296 53.28521456383169 C-1.5827833953127266 38.67592306435108, -2.1428136768564583 23.526491412892938, 0.36687404848635197 1.3771944846957922 M0.29612241219729185 52.12495917547494 C0.16615296140313152 39.4873039348051, -0.30790551766753194 28.36753676328808, 0.9312284691259265 -0.6705668224021792" stroke="#0b7285" stroke-width="1" fill="none"></path></g><g transform="translate(174.9000000000001 78) rotate(0 19.5 25)"><text x="0" y="18" font-family="Virgil, Segoe UI Emoji" font-size="20px" fill="#0b7285" text-anchor="start" style="white-space: pre;" direction="ltr">Bins</text><text x="0" y="43" font-family="Virgil, Segoe UI Emoji" font-size="20px" fill="#0b7285" text-anchor="start" style="white-space: pre;" direction="ltr">Libs</text></g><g transform="translate(64.90000000000009 75) rotate(0 30.5 26)"><path d="M-0.08212368749082088 -0.19251886941492558 C19.067591592948876 -0.5745474529918284, 40.04672314841299 -1.4459928107913584, 59.215982565656276 -0.30557320453226566 M0.3552760584279895 -0.4693836225196719 C23.79448162307962 -0.234738529296592, 47.09581926017998 0.6004969173949211, 60.9234179658815 -0.6913689328357577 M59.80627406574783 1.6554277148097754 C62.02848219733682 19.054280915111306, 58.89870780568567 42.1518855649978, 60.32289571501312 51.499059399589896 M60.87345425318924 -0.48974430095404387 C60.66106503374872 12.807377933524549, 61.76628168590364 25.970715873874724, 60.86162007879463 52.2628234969452 M59.06954402662811 50.9597093667835 C38.237415650952585 52.27299006930552, 16.745567808113982 51.96591009846888, -1.52484773658216 50.07490744255483 M60.52705706190315 52.571435128338635 C36.780743363220225 52.441543243872005, 12.57374679557978 51.00567387794145, 0.6522573037073016 51.11230725515634 M-0.6750652696937323 53.92436661385 C-1.100670615695417 34.99053259193897, -0.9878645935282111 19.69575763680041, 0.34664137102663517 0.7256208267062902 M0.3448625607416034 52.86066955793649 C-0.22405345186591147 39.58634468149394, 0.48268183127045633 28.853589514829217, 0.9051624042913318 -0.9055824531242251" stroke="#495057" stroke-width="1" fill="none"></path></g><g transform="translate(73.90000000000009 79) rotate(0 19.5 25)"><text x="0" y="18" font-family="Virgil, Segoe UI Emoji" font-size="20px" fill="#495057" text-anchor="start" style="white-space: pre;" direction="ltr">Bins</text><text x="0" y="43" font-family="Virgil, Segoe UI Emoji" font-size="20px" fill="#495057" text-anchor="start" style="white-space: pre;" direction="ltr">Libs</text></g><g transform="translate(165.9000000000001 130) rotate(0 30.5 26)"><path d="M1.1236739847809076 0.8669193591922522 C11.68870448796078 1.379062607223168, 23.382467672415068 -1.3802459097560495, 60.55241073109207 -1.5815994534641504 M-0.1884224908426404 0.6579445349052548 C13.709628999140108 0.044340457348152784, 27.941248108446587 0.5753385383170095, 60.61164538096634 -0.2658153725787997 M62.39013875462112 -0.6121756825596094 C62.19892923217264 17.926867546886207, 61.44163714032617 38.576283319666985, 62.94608230330047 51.33886261843145 M60.892064969055326 -0.13187872897833586 C61.12262358553705 11.132460092566909, 62.01437740810213 21.998610323108736, 61.90390480589119 52.38888517487794 M60.21751088835296 52.46809168718755 C42.708545378316174 53.86829964867793, 24.6204268073663 50.838395581161606, -1.788242569193244 51.74294247291982 M60.41730321478096 52.643480692990124 C43.449394872505195 52.07384496782906, 26.851614208146913 52.08715620492585, 0.412613014690578 51.24283212888986 M1.2386639211326838 51.54613699577749 C-0.6612184729799628 30.70217886269093, 0.23715578649193048 12.627650890126823, 0.5389502737671137 -0.331334987655282 M-0.7167421774938703 52.13835019338876 C0.3462389446794987 42.04054957460612, 0.17203092947602272 30.11053936872631, -0.6352097289636731 -0.20882680546492338" stroke="#c92a2a" stroke-width="1" fill="none"></path></g><g transform="translate(168.9000000000001 133) rotate(0 29.5 25)"><text x="29.5" y="18" font-family="Virgil, Segoe UI Emoji" font-size="20px" fill="#c92a2a" text-anchor="middle" style="white-space: pre;" direction="ltr">Guest</text><text x="29.5" y="43" font-family="Virgil, Segoe UI Emoji" font-size="20px" fill="#c92a2a" text-anchor="middle" style="white-space: pre;" direction="ltr">OS</text></g><g transform="translate(64.40000000000009 131.5) rotate(0 30.5 26)"><path d="M1.961956998333335 1.626266548410058 C21.888102875370524 1.3074446510430424, 40.930236530117675 0.22898747435770905, 62.97277160547671 -0.34183203242719173 M0.34281373489648104 -0.03820281196385622 C16.461249949131155 -1.0495870767813176, 33.96970558017491 -0.15760532605461763, 60.72242239583281 -0.9485307531431317 M61.68555780313906 0.560715327039361 C59.10100533444432 11.795755002647638, 59.18664844710377 26.72892433218658, 59.877362629398675 53.171483704820275 M60.276547943241866 0.24576822947710752 C60.19357900612054 17.831653181649745, 61.29236616484818 34.78037211056799, 60.03467089403418 52.59872592519969 M61.91450490616259 52.066325375810266 C49.78749032123012 53.63123574757017, 36.73239613119511 52.0801490237657, 0.8346021976321936 51.082681903615594 M61.263898675329955 52.65295685362071 C43.1588643687777 51.449106714231895, 24.486390982940776 51.99454801390879, -0.07379880081862211 51.65808568429202 M-0.7116142902523279 53.66659522987902 C0.6124538239464163 38.80093044936657, 1.3667103704437613 26.75754083059728, -0.228812912479043 -1.028098275884986 M-0.063267613761127 52.00901613663882 C-0.5350915433466434 35.44360374677926, 0.7736699043214321 17.330319767259063, 0.5259500788524747 0.13625628780573606" stroke="#087f5b" stroke-width="1" fill="none"></path></g><g transform="translate(67.40000000000009 134.5) rotate(0 29.5 25)"><text x="29.5" y="18" font-family="Virgil, Segoe UI Emoji" font-size="20px" fill="#087f5b" text-anchor="middle" style="white-space: pre;" direction="ltr">Guest</text><text x="29.5" y="43" font-family="Virgil, Segoe UI Emoji" font-size="20px" fill="#087f5b" text-anchor="middle" style="white-space: pre;" direction="ltr">OS</text></g><g transform="translate(63.90000000000009 20) rotate(0 30.5 26)"><path d="M-1.2727678325027227 -1.776042738929391 C20.46156159965321 -0.49963547891937204, 41.508827814646054 -0.6962418169435114, 60.48306013084945 -1.2044237647205591 M-0.7150255339220166 -0.9975479496642947 C21.507303935196244 -0.20806501266546557, 44.126372410356986 -0.6259290075022728, 60.12471328210083 -0.9651597095653415 M62.23030353523788 -0.018050530925393105 C61.611670690588625 20.119727339595556, 58.99876870494333 40.36140802688897, 59.94988615252075 53.9544683303684 M61.53265057038513 -0.4243169380351901 C60.630764077976316 15.012767802737654, 60.611486177518934 32.415250378288334, 60.47741086315361 52.099775289185345 M59.07516605593261 50.34068592451513 C40.40705824838949 53.69815952948294, 20.539313981495788 53.115967406546694, 0.22975576855242252 50.54070379398763 M60.43522150348869 51.577194903977215 C48.62104917438698 52.47205887232907, 34.330019659921504 52.677987525807694, 0.020373146049678326 51.43213296402246 M1.6485995147377253 51.54717590473592 C1.9481816110387444 34.84520273506641, 0.0004674610868096174 14.585877499356862, 0.8910893891006708 1.7759012784808874 M-0.3945502834394574 52.66326809395105 C0.2900168778002262 35.28793411087244, -0.41521797761321066 17.916633216477926, -0.11508273053914309 0.8415141450241208" stroke="#e67700" stroke-width="1" fill="none"></path></g><g transform="translate(72.90000000000009 24) rotate(0 19.5 25)"><text x="19.5" y="18" font-family="Virgil, Segoe UI Emoji" font-size="20px" fill="#e67700" text-anchor="middle" style="white-space: pre;" direction="ltr">APP</text><text x="19.5" y="43" font-family="Virgil, Segoe UI Emoji" font-size="20px" fill="#e67700" text-anchor="middle" style="white-space: pre;" direction="ltr">1</text></g><g transform="translate(165.9000000000001 18) rotate(0 30.5 26)"><path d="M-0.23016546107828617 1.6830282900482416 C21.390517912525677 -0.37855927714146675, 38.0187906263396 0.829146876251325, 60.33866306208071 0.6046696994453669 M0.49041152466088533 0.6547069055959582 C17.690778900776053 -0.32332949030213054, 36.1088024124503 0.1802092672605068, 60.7606909619644 0.3134249849244952 M61.394955119118066 0.8785549495369196 C61.68340735394505 11.408990094810726, 59.54392229277638 24.480328331515196, 61.380125423893304 53.03433675505221 M61.29345420468596 -0.6720856027677655 C60.5960611914843 16.36341730747372, 60.95511751525101 33.19192997571081, 61.84800965059546 52.27384389471263 M62.59671106003222 50.8395788166672 C39.625345135759545 53.981851721042766, 14.930001168884331 50.60169395231642, -0.29822460748255253 52.3999722097069 M60.700406377203734 52.31623400282115 C46.5030191558413 53.35072453211062, 29.409579573944193 52.54971502612345, -0.2632218850776553 52.01638541650027 M-0.07906023599207401 51.68334842659533 C-1.0744067374244333 31.843455168604848, -1.8987939897552133 9.35611050985753, -1.863440254703164 1.8754652235656977 M-0.8599905027076602 51.39844379853457 C0.6983835695683956 40.884640257246794, 0.7097969947755337 27.909390907548367, -0.147191877476871 0.9008823139593005" stroke="#364fc7" stroke-width="1" fill="none"></path></g><g transform="translate(174.9000000000001 22) rotate(0 19.5 25)"><text x="19.5" y="18" font-family="Virgil, Segoe UI Emoji" font-size="20px" fill="#364fc7" text-anchor="middle" style="white-space: pre;" direction="ltr">APP</text><text x="19.5" y="43" font-family="Virgil, Segoe UI Emoji" font-size="20px" fill="#364fc7" text-anchor="middle" style="white-space: pre;" direction="ltr">2</text></g><g transform="translate(10 350) rotate(0 130.5 21.5)"><text x="130.5" y="30" font-family="Virgil, Segoe UI Emoji" font-size="33.489655172413784px" fill="#000000" text-anchor="middle" style="white-space: pre;" direction="ltr">Virtual Machines</text></g><g transform="translate(372.4000000000001 353.5) rotate(0 89 21.5)"><text x="89" y="30" font-family="Virgil, Segoe UI Emoji" font-size="33.489655172413784px" fill="#000000" text-anchor="middle" style="white-space: pre;" direction="ltr">Containers</text></g><g transform="translate(417.9000000000001 183) rotate(0 30.5 26)"><path d="M-1.0705364253371954 0.13621254824101925 C15.644410768430674 -0.05307365125976482, 31.132255682535458 -1.2553257412370291, 61.164631137624355 -1.090355733409524 M-0.24322711396962404 -0.816018427722156 C16.56157281985506 -0.5042056023795155, 33.69719379097222 -0.7227135181147603, 61.92739854287353 0.4550630496814847 M61.13672805763778 0.0000702347606420517 C59.897386804632816 18.68621331676841, 61.63925166469065 33.65692327804864, 60.201861212030025 53.04256590269506 M61.963143448345335 -0.10260492097586393 C60.52612155325708 19.05609141495079, 61.07433327682313 39.80079105440527, 61.219747613184126 51.43703601229936 M62.65355713106689 50.85627373121679 C46.980646381247766 54.03115985087119, 34.755560109578056 50.82418135098182, 0.11365831829607487 50.40068246982992 M60.69208462070671 52.61672613490373 C44.68957940014077 53.142593649970365, 28.05054902546106 51.74807369505055, 0.7731621665880084 51.31094336975366 M-1.7895194198936224 50.10808231495321 C-0.5567936125025152 32.38481912910938, 2.188149708248675 15.097367939725515, 1.8121928665786982 0.36186262033879757 M0.6344838542863727 51.17013025749475 C-0.31578672632575033 37.35970201324672, 1.2368977297842503 22.767662326432763, -0.7029156582430005 -0.4417390478774905" stroke="#495057" stroke-width="1" fill="none"></path></g><g transform="translate(426.9000000000001 187) rotate(0 19.5 25)"><text x="0" y="18" font-family="Virgil, Segoe UI Emoji" font-size="20px" fill="#495057" text-anchor="start" style="white-space: pre;" direction="ltr">Bins</text><text x="0" y="43" font-family="Virgil, Segoe UI Emoji" font-size="20px" fill="#495057" text-anchor="start" style="white-space: pre;" direction="ltr">Libs</text></g><g transform="translate(415.9000000000001 127) rotate(0 30.5 26)"><path d="M-1.4866806771606207 0.43703277967870235 C24.385356006305656 0.728308364087716, 47.85170154292135 0.47414968841709226, 59.60617197491226 -1.472599009051919 M-0.3298222320154309 -0.8489616168662906 C18.60215611448511 0.1293599564116451, 37.58999211937188 0.008918370632455042, 61.09747723769394 -0.6762592745944858 M60.25231064297256 0.28704692982137203 C61.504665378145845 17.348738446086646, 60.592687312178285 32.35600758381188, 62.19575876928863 52.47155233286321 M61.8052344722673 -0.5267891837283969 C60.27701879389581 10.54836845304817, 61.63423816211519 22.071406834758818, 60.72518969606605 52.63181880582124 M60.02755112387237 50.920300444588065 C41.31674834834409 49.998051255857575, 18.976743683777734 52.35562124839984, -0.750121584162116 50.881010910496116 M61.5868241889402 52.59042433369905 C39.17614728482438 51.47203854058869, 16.240700597688544 51.38102925156243, 0.5250394148752093 52.17759544122964 M1.9016018006950617 52.22052135132253 C0.5891094336286187 32.942055800557135, -0.6510889997705818 12.0338504884392, 1.1377325747162104 -0.5108858738094568 M0.5085687441751361 51.12185007799417 C0.856178043037653 38.04647496771067, 0.7135976828634739 26.47714710626751, 0.9467029077932239 0.2960620867088437" stroke="#e67700" stroke-width="1" fill="none"></path></g><g transform="translate(424.9000000000001 131) rotate(0 19.5 25)"><text x="19.5" y="18" font-family="Virgil, Segoe UI Emoji" font-size="20px" fill="#e67700" text-anchor="middle" style="white-space: pre;" direction="ltr">APP</text><text x="19.5" y="43" font-family="Virgil, Segoe UI Emoji" font-size="20px" fill="#e67700" text-anchor="middle" style="white-space: pre;" direction="ltr">1</text></g><g transform="translate(499.9000000000001 127) rotate(0 30.5 26)"><path d="M1.463956007733941 -1.3795506749302149 C21.042917770426712 -0.7011862740572543, 42.05096621830015 -0.8575723514612765, 59.47152919508514 -0.8142240438610315 M-0.21490438748151064 0.3503118799999356 C20.0078547685407 1.0461130562704055, 40.958438135683515 0.14300526413135217, 61.836013208143385 -0.8064297093078494 M60.23245973326263 -1.936215678229928 C61.63819811563936 20.58160156235099, 60.942198672108326 39.91627327986062, 62.92345310188827 51.004681250080466 M60.321457515470655 0.07572928536683321 C60.10795940525827 13.126152723096311, 60.10146741636095 26.669775509275496, 61.74109898041931 51.588883821852505 M60.3851740453392 53.73634256981313 C47.72530313180757 52.00134223780595, 34.52491441126911 50.81032252392732, -1.6539255883544683 51.35792454145849 M60.79863343667236 51.83462161291391 C46.67447770209981 52.82131864433177, 34.66431561224161 52.055003988789394, -0.41962354350835085 52.35193130839616 M-1.6852618958801031 50.723023971542716 C-0.7284980633482336 35.68539161980152, 1.1065350553765894 18.572890112176538, -1.2488270904868841 1.8675151076167822 M-0.7829188602045178 51.72369906771928 C0.3745787359774113 38.61766455601901, 0.013855866342783019 27.627449021674693, 0.6541080875322223 0.4514932679012418" stroke="#364fc7" stroke-width="1" fill="none"></path></g><g transform="translate(508.9000000000001 131) rotate(0 19.5 25)"><text x="19.5" y="18" font-family="Virgil, Segoe UI Emoji" font-size="20px" fill="#364fc7" text-anchor="middle" style="white-space: pre;" direction="ltr">APP</text><text x="19.5" y="43" font-family="Virgil, Segoe UI Emoji" font-size="20px" fill="#364fc7" text-anchor="middle" style="white-space: pre;" direction="ltr">2</text></g></svg>